<svg viewBox="0 0 330 200" xmlns="http://www.w3.org/2000/svg"><g><g><g><g><g><line x1="30.70800018310547" y1="176.95999908447266" x2="25.70800018310547" y2="176.95999908447266" style="visibility: inherit;" fill="rgb(0, 0, 0)" stroke="rgb(204, 204, 204)" stroke-width="1px"></line><line x1="30.70800018310547" y1="157.2977769639757" x2="25.70800018310547" y2="157.2977769639757" style="visibility: inherit;" fill="rgb(0, 0, 0)" stroke="rgb(204, 204, 204)" stroke-width="1px"></line><line x1="30.70800018310547" y1="137.63555484347873" x2="25.70800018310547" y2="137.63555484347873" style="visibility: inherit;" fill="rgb(0, 0, 0)" stroke="rgb(204, 204, 204)" stroke-width="1px"></line><line x1="30.70800018310547" y1="117.97333272298178" x2="25.70800018310547" y2="117.97333272298178" style="visibility: inherit;" fill="rgb(0, 0, 0)" stroke="rgb(204, 204, 204)" stroke-width="1px"></line><line x1="30.70800018310547" y1="98.31111060248482" x2="25.70800018310547" y2="98.31111060248482" style="visibility: inherit;" fill="rgb(0, 0, 0)" stroke="rgb(204, 204, 204)" stroke-width="1px"></line><line x1="30.70800018310547" y1="78.64888848198784" x2="25.70800018310547" y2="78.64888848198784" style="visibility: inherit;" fill="rgb(0, 0, 0)" stroke="rgb(204, 204, 204)" stroke-width="1px"></line><line x1="30.70800018310547" y1="58.98666636149089" x2="25.70800018310547" y2="58.98666636149089" style="visibility: inherit;" fill="rgb(0, 0, 0)" stroke="rgb(204, 204, 204)" stroke-width="1px"></line><line x1="30.70800018310547" y1="39.32444424099393" x2="25.70800018310547" y2="39.32444424099393" style="visibility: inherit;" fill="rgb(0, 0, 0)" stroke="rgb(204, 204, 204)" stroke-width="1px"></line><line x1="30.70800018310547" y1="19.662222120496978" x2="25.70800018310547" y2="19.662222120496978" style="visibility: inherit;" fill="rgb(0, 0, 0)" stroke="rgb(204, 204, 204)" stroke-width="1px"></line><line x1="30.70800018310547" y1="0" x2="25.70800018310547" y2="0" style="visibility: inherit;" fill="rgb(0, 0, 0)" stroke="rgb(204, 204, 204)" stroke-width="1px"></line></g><g transform="translate(20.70800018310547, 0)"><text style="text-anchor: end; visibility: hidden; font-family: &quot;Helvetica Neue&quot;, sans-serif; font-size: 12px; font-weight: 200;" x="0" y="176.95999908447266" dx="0em" dy="0.3em" fill="rgb(33, 33, 33)" stroke="none" stroke-width="1px">0</text><text style="text-anchor: end; visibility: inherit; font-family: &quot;Helvetica Neue&quot;, sans-serif; font-size: 12px; font-weight: 200;" x="0" y="157.2977769639757" dx="0em" dy="0.3em" fill="rgb(33, 33, 33)" stroke="none" stroke-width="1px">10</text><text style="text-anchor: end; visibility: hidden; font-family: &quot;Helvetica Neue&quot;, sans-serif; font-size: 12px; font-weight: 200;" x="0" y="137.63555484347873" dx="0em" dy="0.3em" fill="rgb(33, 33, 33)" stroke="none" stroke-width="1px">20</text><text style="text-anchor: end; visibility: inherit; font-family: &quot;Helvetica Neue&quot;, sans-serif; font-size: 12px; font-weight: 200;" x="0" y="117.97333272298178" dx="0em" dy="0.3em" fill="rgb(33, 33, 33)" stroke="none" stroke-width="1px">30</text><text style="text-anchor: end; visibility: hidden; font-family: &quot;Helvetica Neue&quot;, sans-serif; font-size: 12px; font-weight: 200;" x="0" y="98.31111060248482" dx="0em" dy="0.3em" fill="rgb(33, 33, 33)" stroke="none" stroke-width="1px">40</text><text style="text-anchor: end; visibility: inherit; font-family: &quot;Helvetica Neue&quot;, sans-serif; font-size: 12px; font-weight: 200;" x="0" y="78.64888848198784" dx="0em" dy="0.3em" fill="rgb(33, 33, 33)" stroke="none" stroke-width="1px">50</text><text style="text-anchor: end; visibility: hidden; font-family: &quot;Helvetica Neue&quot;, sans-serif; font-size: 12px; font-weight: 200;" x="0" y="58.98666636149089" dx="0em" dy="0.3em" fill="rgb(33, 33, 33)" stroke="none" stroke-width="1px">60</text><text style="text-anchor: end; visibility: inherit; font-family: &quot;Helvetica Neue&quot;, sans-serif; font-size: 12px; font-weight: 200;" x="0" y="39.32444424099393" dx="0em" dy="0.3em" fill="rgb(33, 33, 33)" stroke="none" stroke-width="1px">70</text><text style="text-anchor: end; visibility: hidden; font-family: &quot;Helvetica Neue&quot;, sans-serif; font-size: 12px; font-weight: 200;" x="0" y="19.662222120496978" dx="0em" dy="0.3em" fill="rgb(33, 33, 33)" stroke="none" stroke-width="1px">80</text><text style="text-anchor: end; visibility: hidden; font-family: &quot;Helvetica Neue&quot;, sans-serif; font-size: 12px; font-weight: 200;" x="0" y="0" dx="0em" dy="0.3em" fill="rgb(33, 33, 33)" stroke="none" stroke-width="1px">90</text></g><line x1="30.70800018310547" y1="0" x2="30.70800018310547" y2="176.95999908447266" fill="rgb(0, 0, 0)" stroke="rgb(204, 204, 204)" stroke-width="1px"></line></g></g><g transform="translate(30, 0)" clip-path="url(#clip_0)"><clipPath id="clip_0"><rect width="299" height="176"></rect></clipPath><g><g><g><line x1="0" y1="0" x2="0" y2="176.95999908447266" fill="rgb(0, 0, 0)" stroke="rgb(66, 66, 66)" stroke-width="1px" opacity="0.25"></line><line x1="29.929199981689454" y1="0" x2="29.929199981689454" y2="176.95999908447266" fill="rgb(0, 0, 0)" stroke="rgb(66, 66, 66)" stroke-width="1px" opacity="0.25"></line><line x1="59.85839996337891" y1="0" x2="59.85839996337891" y2="176.95999908447266" fill="rgb(0, 0, 0)" stroke="rgb(66, 66, 66)" stroke-width="1px" opacity="0.25"></line><line x1="89.78759994506835" y1="0" x2="89.78759994506835" y2="176.95999908447266" fill="rgb(0, 0, 0)" stroke="rgb(66, 66, 66)" stroke-width="1px" opacity="0.25"></line><line x1="119.71679992675782" y1="0" x2="119.71679992675782" y2="176.95999908447266" fill="rgb(0, 0, 0)" stroke="rgb(66, 66, 66)" stroke-width="1px" opacity="0.25"></line><line x1="149.64599990844727" y1="0" x2="149.64599990844727" y2="176.95999908447266" fill="rgb(0, 0, 0)" stroke="rgb(66, 66, 66)" stroke-width="1px" opacity="0.25"></line><line x1="179.5751998901367" y1="0" x2="179.5751998901367" y2="176.95999908447266" fill="rgb(0, 0, 0)" stroke="rgb(66, 66, 66)" stroke-width="1px" opacity="0.25"></line><line x1="209.50439987182617" y1="0" x2="209.50439987182617" y2="176.95999908447266" fill="rgb(0, 0, 0)" stroke="rgb(66, 66, 66)" stroke-width="1px" opacity="0.25"></line><line x1="239.43359985351563" y1="0" x2="239.43359985351563" y2="176.95999908447266" fill="rgb(0, 0, 0)" stroke="rgb(66, 66, 66)" stroke-width="1px" opacity="0.25"></line><line x1="269.36279983520507" y1="0" x2="269.36279983520507" y2="176.95999908447266" fill="rgb(0, 0, 0)" stroke="rgb(66, 66, 66)" stroke-width="1px" opacity="0.25"></line><line x1="299.29199981689453" y1="0" x2="299.29199981689453" y2="176.95999908447266" fill="rgb(0, 0, 0)" stroke="rgb(66, 66, 66)" stroke-width="1px" opacity="0.25"></line></g><g><line x1="0" y1="176.95999908447266" x2="299.29199981689453" y2="176.95999908447266" fill="rgb(0, 0, 0)" stroke="rgb(66, 66, 66)" stroke-width="1px" opacity="0.25"></line><line x1="0" y1="157.2977769639757" x2="299.29199981689453" y2="157.2977769639757" fill="rgb(0, 0, 0)" stroke="rgb(66, 66, 66)" stroke-width="1px" opacity="0.25"></line><line x1="0" y1="137.63555484347873" x2="299.29199981689453" y2="137.63555484347873" fill="rgb(0, 0, 0)" stroke="rgb(66, 66, 66)" stroke-width="1px" opacity="0.25"></line><line x1="0" y1="117.97333272298178" x2="299.29199981689453" y2="117.97333272298178" fill="rgb(0, 0, 0)" stroke="rgb(66, 66, 66)" stroke-width="1px" opacity="0.25"></line><line x1="0" y1="98.31111060248482" x2="299.29199981689453" y2="98.31111060248482" fill="rgb(0, 0, 0)" stroke="rgb(66, 66, 66)" stroke-width="1px" opacity="0.25"></line><line x1="0" y1="78.64888848198784" x2="299.29199981689453" y2="78.64888848198784" fill="rgb(0, 0, 0)" stroke="rgb(66, 66, 66)" stroke-width="1px" opacity="0.25"></line><line x1="0" y1="58.98666636149089" x2="299.29199981689453" y2="58.98666636149089" fill="rgb(0, 0, 0)" stroke="rgb(66, 66, 66)" stroke-width="1px" opacity="0.25"></line><line x1="0" y1="39.32444424099393" x2="299.29199981689453" y2="39.32444424099393" fill="rgb(0, 0, 0)" stroke="rgb(66, 66, 66)" stroke-width="1px" opacity="0.25"></line><line x1="0" y1="19.662222120496978" x2="299.29199981689453" y2="19.662222120496978" fill="rgb(0, 0, 0)" stroke="rgb(66, 66, 66)" stroke-width="1px" opacity="0.25"></line><line x1="0" y1="0" x2="299.29199981689453" y2="0" fill="rgb(0, 0, 0)" stroke="rgb(66, 66, 66)" stroke-width="1px" opacity="0.25"></line></g></g></g><g><g><line x1="0" y1="176.95999908447266" x2="299.29199981689453" y2="176.95999908447266" fill="rgb(0, 0, 0)" stroke="rgb(153, 153, 153)" stroke-width="1.5px"></line></g></g><g><g><line x1="29.929199981689454" y1="0" x2="29.929199981689454" y2="176.95999908447266" fill="rgb(0, 0, 0)" stroke="rgb(153, 153, 153)" stroke-width="1.5px"></line></g></g><g><g><g><g><g><path style="fill: none;" stroke="rgb(255, 112, 67)" stroke-width="2px" d="M29.929199981689454,117.97333272298178L30.52778398132324,136.1790936418227L31.12636798095703,145.8392940544884L31.72495198059082,143.7425174665832L32.32353598022461,132.56573713018423L32.9221199798584,126.44311847114722L33.52070397949219,134.94488624633064L34.11928797912598,128.04029420431874L34.71787197875977,138.9796546518751L35.316455978393556,130.52600992331793L35.915039978027345,140.3966509292275L36.51362397766113,143.37679031804777L37.11220797729492,148.07744815645776L37.71079197692871,150.60238955487446L38.3093759765625,152.40751705703042L38.90795997619629,153.19867544047267L39.50654397583008,146.97237329671523L40.10512797546387,144.69387585361022L40.70371197509766,143.32692549539732L41.30229597473145,144.83723059363663L41.90087997436524,144.86948218554892L42.49946397399902,133.81958439140462L43.09804797363281,144.66740768120906L43.6966319732666,149.71957933343157L44.29521597290039,152.4595743571083L44.893799972534175,154.39485870109675L45.492383972167964,152.06051729563865L46.09096797180176,153.28154570746864L46.68955197143555,156.3444999308739L47.28813597106934,149.15221287436867L47.886719970703126,146.00201058644734L48.485303970336915,144.11188948112274L49.083887969970704,148.2210758966744L49.68247196960449,147.19108119883938L50.28105596923828,148.3208375897871L50.87963996887208,146.3770620188373L51.47822396850586,147.54113425114292L52.07680796813965,146.78311623821637L52.675391967773436,146.61959800139076L53.273975967407225,144.19114950879094L53.87255996704101,137.19952911029338L54.4711439666748,136.2087706292795L55.06972796630859,134.44914676682862L55.66831196594238,131.93691110713976L56.266895965576175,134.5076611704225L56.865479965209964,136.05011120822113L57.46406396484375,138.43204107307594L58.06264796447754,139.2786153550673L58.66123196411133,142.6994818588173L59.25981596374512,147.3736311271072L59.85839996337891,147.55649132199605L60.456983963012696,150.2878368049846L61.05556796264648,142.6052939042664L61.65415196228027,139.74352207461703L62.25273596191406,143.26971770892897L62.85131996154785,146.55060386332642L63.44990396118164,144.44104559767806L64.04848796081542,144.6317704804722L64.64707196044922,134.84227158280655L65.24565596008301,131.88149492879018L65.8442399597168,128.0659824571293L66.44282395935059,125.19409133728149L67.04140795898438,122.01449532308163L67.63999195861817,125.932581583618L68.23857595825196,125.37051215546595L68.83715995788575,127.36360804619719L69.43574395751953,125.06395925920219L70.03432795715332,123.10158485004534L70.63291195678711,123.3806215468424L71.2314959564209,124.42191977025195L71.83007995605469,128.54220502573142L72.42866395568848,130.43179254216773L73.02724795532227,128.94391493592707L73.62583195495606,123.39051327693771L74.22441595458984,121.51493362383528L74.82299995422363,123.59379958492761L75.42158395385742,125.42370279843438L76.02016795349121,125.35647595272721L76.618751953125,128.22906252988525L77.21733595275879,127.91356949703754L77.81591995239258,126.55910490351766L78.41450395202637,126.32900978425711L79.01308795166015,129.97775160261446L79.61167195129394,129.2540740090465L80.21025595092775,127.36340761072303L80.80883995056153,127.3941765455402L81.40742395019532,126.83005276947063L82.00600794982911,127.65674727764014L82.6045919494629,122.03562904511416L83.20317594909669,122.44975549540376L83.80175994873048,125.02856891320002L84.40034394836425,125.9932733270264L84.99892794799804,116.66816064787238L85.59751194763183,114.85989193029366L86.19609594726562,116.97914445270021L86.79467994689941,123.20266362986906L87.3932639465332,125.48031379387919L87.99184794616698,123.35139757085153L88.59043194580077,119.45241922104101L89.18901594543456,116.82173814256626L89.78759994506835,122.81692727530876L90.38618394470214,130.49213071323936L90.98476794433593,123.44556503788527L91.58335194396973,122.13054831725518L92.18193594360352,119.88507844269444L92.78051994323731,113.87711992260452L93.3791039428711,119.88498756952046L93.97768794250489,110.67285164574633L94.57627194213867,104.56298795473897L95.17485594177246,113.13133961498988L95.77343994140625,107.78583314694772L96.37202394104004,109.82178649811028L96.97060794067383,106.38268341356284L97.56919194030762,106.35826804208543L98.16777593994141,106.34361881919898L98.7663599395752,104.29578280621605L99.36494393920898,101.31932878776368L99.96352793884277,104.19413147193724L100.56211193847656,113.78390193064017L101.16069593811036,103.51669544109292L101.75927993774415,111.04710276451108L102.35786393737794,117.02180850085315L102.95644793701172,123.81084569561222L103.5550319366455,125.84522303332508L104.1536159362793,123.57034311451908L104.75219993591308,120.74895532105276L105.35078393554687,110.60865015992285L105.94936793518066,103.06800572095369L106.54795193481445,100.8739566051947L107.14653593444824,94.89685204049432L107.74511993408203,99.46676921824432L108.34370393371582,97.54804442964934L108.9422879333496,94.64905714582973L109.54087193298339,96.11387852849177L110.13945593261718,93.78855760513518L110.73803993225097,97.63662528332608L111.33662393188476,96.15866700032697L111.93520793151855,94.10672175660774L112.53379193115235,94.91460108962724L113.13237593078614,98.31225137402133L113.73095993041993,98.89438020236659L114.32954393005372,96.91331995175125L114.9281279296875,94.26822245909088L115.5267119293213,87.43790373128978L116.12529592895508,87.70909652148268L116.72387992858887,85.54147464797592L117.32246392822266,83.65831638691199L117.92104792785645,90.9758954154323L118.51963192749024,88.37543018967702L119.11821592712403,84.19352243822992L119.71679992675782,85.76246774564676L120.3153839263916,83.49962117714306L120.91396792602539,84.47225078366333L121.51255192565918,84.76453447898707L122.11113592529296,84.64861362780987L122.70971992492674,85.16164625406343L123.30830392456053,85.17817176122712L123.90688792419434,86.93584247640496L124.50547192382813,81.87330846797548L125.10405592346191,91.94393414310444L125.7026399230957,91.86917611086265L126.30122392272949,85.12459971702157L126.89980792236328,87.48628138662448L127.49839192199707,89.1945844569747L128.09697592163084,93.4237800521386L128.69555992126465,90.7180371770321L129.29414392089845,87.05554497271713L129.89272792053222,90.97518608766433L130.49131192016603,85.17079084006244L131.0898959197998,87.513996060449L131.6884799194336,90.958965671932L132.28706391906738,97.10403739710692L132.88564791870118,95.25652913163559L133.48423191833496,95.60448551464395L134.08281591796876,97.56101175511162L134.68139991760253,92.90908513044447L135.27998391723634,96.52635666155179L135.8785679168701,93.45345934801132L136.4771519165039,94.81393471284085L137.0757359161377,90.09566863116225L137.6743199157715,94.83830676198247L138.2729039154053,93.02321454522959L138.87148791503907,91.93415921517787L139.47007191467287,90.69814088018697L140.06865591430665,89.37394474223255L140.66723991394042,87.99684492271702L141.26582391357422,86.00541475708796L141.864407913208,88.88864661599565L142.4629919128418,83.33628202010134L143.06157591247558,85.8307086317295L143.66015991210938,85.28831811945534L144.25874391174315,82.04996112750848L144.85732791137696,81.85469934300296L145.45591191101073,85.52434116221332L146.05449591064453,85.68708277470549L146.6530799102783,84.03697233132118L147.2516639099121,83.62949120225046L147.85024790954589,85.42404900405909L148.4488319091797,87.37465989047558L149.04741590881346,87.67115021699416L149.64599990844727,85.80999793365424L150.24458390808107,89.64527572748374L150.84316790771484,90.78127212986168L151.44175190734865,89.71511756062581L152.04033590698242,93.73609991432927L152.63891990661622,90.61413802597508L153.23750390625,85.53674714000876L153.8360879058838,86.85969363508549L154.43467190551758,85.90570912146894L155.03325590515138,89.70270244017254L155.63183990478515,93.43735677346888L156.23042390441896,97.71719585269776L156.82900790405273,92.12891938366484L157.42759190368653,87.61078322832535L158.0261759033203,84.6086104667502L158.6247599029541,80.47696926218265L159.22334390258789,86.7367495929722L159.8219279022217,88.74486538078331L160.4205119018555,89.07585864813866L161.01909590148927,86.65282299234096L161.61767990112307,83.45124918819972L162.21626390075684,85.60839486400008L162.81484790039065,83.11588337956663L163.41343190002442,85.69846944740867L164.01201589965822,84.62638947190295L164.610599899292,79.61376045994297L165.2091838989258,78.35393546342961L165.80776789855958,76.43287019160185L166.40635189819338,76.44540130242493L167.00493589782715,77.3267961742501L167.60351989746096,82.22501712421875L168.20210389709473,79.62939839362365L168.8006878967285,87.39337434553954L169.39927189636228,90.01271643765503L169.99785589599608,88.38010793997054L170.59643989562986,88.857004183651L171.19502389526366,86.81280438223679L171.79360789489743,88.49920418575365L172.39219189453124,84.55907790424733L172.99077589416504,80.15595565609249L173.58935989379881,81.0095901287418L174.18794389343262,77.15238678545785L174.7865278930664,76.87711125873854L175.3851118927002,77.8771132164097L175.98369589233397,78.18582332264097L176.58227989196777,77.20588211267697L177.18086389160155,75.74403818115027L177.77944789123535,79.52760691747923L178.37803189086912,80.34128681698542L178.97661589050293,76.16882266166115L179.5751998901367,73.95663523683803L180.1737838897705,76.12482760326938L180.77236788940428,79.46478950237926L181.37095188903808,77.97326182051994L181.96953588867186,79.40867975880985L182.56811988830566,78.81347217970962L183.16670388793946,79.03892976899236L183.76528788757324,77.7177459804878L184.36387188720704,81.00312566567018L184.96245588684081,81.51789213448845L185.56103988647462,80.95287581044805L186.1596238861084,81.19644815276672L186.7582078857422,80.76000942141505L187.35679188537597,75.25488595039917L187.95537588500977,78.94282451065713L188.55395988464355,78.82525009918942L189.15254388427735,77.58953817860605L189.75112788391112,77.72198723158733L190.34971188354493,76.9275804580448L190.9482958831787,77.61610366762203L191.5468798828125,76.28146518270573L192.1454638824463,78.10231070774988L192.74404788208008,75.4080191328627L193.34263188171388,77.28695200947264L193.94121588134766,75.50138905085622L194.53979988098146,73.26488400198366L195.13838388061524,73.6707333833227L195.73696788024904,73.04036680679482L196.33555187988281,70.62310038162705L196.93413587951662,72.08566321110875L197.5327198791504,72.96320090879776L198.1313038787842,75.52876700644524L198.72988787841797,74.44647804903978L199.32847187805177,72.34064333230535L199.92705587768555,79.23332541905188L200.52563987731935,74.04758448060984L201.12422387695312,71.51872205428751L201.72280787658693,73.20562135166489L202.32139187622073,71.5961293138804L202.9199758758545,69.17397274891852L203.5185598754883,71.21618663148362L204.11714387512208,71.85892982406283L204.71572787475588,69.91423819198785L205.31431187438966,69.62129941807417L205.91289587402343,66.5326134691436L206.5114798736572,64.09681976304238L207.110063873291,68.16989483995793L207.7086478729248,69.73986368077598L208.3072318725586,73.0121825328893L208.90581587219236,77.01461732319133L209.50439987182617,75.33798823908747L210.10298387145994,73.45813458329381L210.70156787109374,73.78668373210881L211.30015187072752,71.36218160518688L211.89873587036132,73.11169708220451L212.4973198699951,71.8310688207926L213.0959038696289,71.93656806927676L213.69448786926267,70.25211220748766L214.29307186889648,69.24143869041418L214.89165586853028,68.34374351179866L215.49023986816405,67.22254126766948L216.08882386779786,69.75403367414577L216.68740786743163,68.06871536507775L217.28599186706543,68.22269465355667L217.8845758666992,67.1499119527243L218.483159866333,66.79753640081327L219.08174386596679,72.12066237024298L219.6803278656006,71.52773906198713L220.27891186523436,73.21103155628468L220.87749586486817,74.51229812123465L221.47607986450194,73.25401158095356L222.07466386413574,70.16870210916241L222.67324786376952,68.90010156304761L223.27183186340332,69.01281744071002L223.8704158630371,71.11949344655854L224.4689998626709,72.38349905006764L225.0675838623047,73.14190241217311L225.66616786193848,71.84919201877376L226.26475186157228,71.36485685110561L226.86333586120605,73.98717843508707L227.46191986083986,72.0650635639337L228.06050386047363,71.20308870983013L228.65908786010743,71.55978000269927L229.2576718597412,69.15216316220985L229.856255859375,68.87276333183594L230.45483985900879,71.32675204960552L231.0534238586426,69.59493152731346L231.65200785827636,67.97325407697836L232.25059185791017,69.91317029135965L232.84917585754394,72.24229029390818L233.44775985717774,71.60071581618625L234.04634385681152,70.34189492422178L234.64492785644532,70.16918752600299L235.24351185607912,69.19168388152339L235.8420958557129,68.02259955809274L236.4406798553467,67.32114896403436L237.03926385498048,68.35673994989052L237.63784785461428,68.97809454140422L238.23643185424805,66.72927568010151L238.83501585388186,69.45807432160498L239.43359985351563,67.89113975355326L240.03218385314943,68.69873442360185L240.6307678527832,67.14424474637994L241.229351852417,67.95930335070945L241.82793585205079,66.40929503427307L242.4265198516846,65.18799597582282L243.02510385131836,65.62038681467241L243.62368785095214,67.04498859168493L244.2222718505859,66.73458238418966L244.82085585021971,63.05283083815027L245.4194398498535,62.00895018444638L246.0180238494873,64.29554147658942L246.61660784912107,66.83266652579499L247.21519184875487,66.6071891446557L247.81377584838867,67.92836405826333L248.41235984802245,68.42977493783947L249.01094384765625,66.9828690549225L249.60952784729002,65.53214038821247L250.20811184692383,65.53557939351776L250.8066958465576,63.207305249078445L251.4052798461914,63.55809617329447L252.00386384582518,64.05986179619555L252.60244784545898,65.81738251222735L253.20103184509276,65.12414253118382L253.79961584472656,66.45595095322032L254.39819984436033,68.12891221177355L254.99678384399414,67.0936424876544L255.5953678436279,69.09411226939386L256.1939518432617,67.6727625222266L256.7925358428955,69.15029022154874L257.3911198425293,69.45422470439914L257.98970384216307,70.80175266781214L258.5882878417969,71.02768430890006L259.1868718414307,72.03711949888412L259.78545584106445,71.47761333917182L260.3840398406982,71.14190964334442L260.98262384033205,67.44497960430576L261.5812078399658,64.93553051251112L262.1797918395996,66.05148967342826L262.7783758392334,65.26460682790436L263.3769598388672,64.20989198363014L263.975543838501,66.19869169305956L264.57412783813476,66.22680424501445L265.17271183776853,65.95237770759894L265.77129583740236,68.11805933277215L266.36987983703614,67.378424828842L266.9684638366699,66.06076792115262L267.56704783630374,66.1440499818703L268.1656318359375,67.9417716289635L268.7642158355713,67.8552343432997" fill="none"></path></g></g></g></g><g opacity="0.2"><g><g><g><path style="fill: none;" stroke="rgb(255, 112, 67)" stroke-width="2px" d="M29.929199981689454,117.97333272298178L30.52778398132324,147.10255019312729L31.12636798095703,155.11308645064742L31.72495198059082,141.2767081992067L32.32353598022461,117.97333272298178L32.9221199798584,117.97333272298178L33.52070397949219,147.10255019312729L34.11928797912598,117.97333272298178L34.71787197875977,155.11308645064742L35.316455978393556,117.97333272298178L35.915039978027345,155.11308645064742L36.51362397766113,147.83078161432712L37.11220797729492,155.11308645064742L37.71079197692871,154.38485502944758L38.3093759765625,155.11308645064742L38.90795997619629,154.38485502944758L39.50654397583008,137.63555484347873L40.10512797546387,141.2767081992067L40.70371197509766,141.2767081992067L41.30229597473145,147.10255019312729L41.90087997436524,144.9178578046634L42.49946397399902,117.24510130178193L43.09804797363281,160.93892844456803L43.6966319732666,157.2977769639757L44.29521597290039,156.56954741791148L44.893799972534175,157.2977769639757L45.492383972167964,148.55901116039135L46.09096797180176,155.11308645064742L46.68955197143555,160.93892844456803L47.28813597106934,138.36378626467857L47.886719970703126,141.2767081992067L48.485303970336915,141.2767081992067L49.083887969970704,154.38485502944758L49.68247196960449,145.64608922586325L50.28105596923828,150.0154721276554L50.87963996887208,143.46139871253496L51.47822396850586,149.2872425815912L52.07680796813965,145.64608922586325L52.675391967773436,146.3743206470631L53.273975967407225,140.54847677800683L53.87255996704101,126.71209852656611L54.4711439666748,134.72263290895063L55.06972796630859,131.8097109744225L55.66831196594238,128.16855761869454L56.266895965576175,138.36378626467857L56.865479965209964,138.36378626467857L57.46406396484375,142.00493587013528L58.06264796447754,140.54847677800683L58.66123196411133,147.83078161432712L59.25981596374512,154.38485502944758L59.85839996337891,147.83078161432712L60.456983963012696,154.38485502944758L61.05556796264648,131.08147955322266L61.65415196228027,135.45086433015047L62.25273596191406,148.55901116039135L62.85131996154785,151.47193309491945L63.44990396118164,141.2767081992067L64.04848796081542,144.9178578046634L64.64707196044922,120.15802323631004L65.24565596008301,127.44032994776595L65.8442399597168,122.3427137496383L66.44282395935059,120.88625465750988L67.04140795898438,117.24510130178193L67.63999195861817,131.8097109744225L68.23857595825196,124.52740801323785L68.83715995788575,130.35325188229407L69.43574395751953,121.61448607870973L70.03432795715332,120.15802323631004L70.63291195678711,123.799176592038L71.2314959564209,125.98386710536627L71.83007995605469,134.72263290895063L72.42866395568848,133.26617381682217L73.02724795532227,126.71209852656611L73.62583195495606,115.06041078845365L74.22441595458984,118.70156414418162L74.82299995422363,126.71209852656611L75.42158395385742,128.16855761869454L76.02016795349121,125.25563568416644L76.618751953125,132.53794239562234L77.21733595275879,127.44032994776595L77.81591995239258,124.52740801323785L78.41450395202637,125.98386710536627L79.01308795166015,135.45086433015047L79.61167195129394,128.16855761869454L80.21025595092775,124.52740801323785L80.80883995056153,127.44032994776595L81.40742395019532,125.98386710536627L82.00600794982911,128.8967890398944L82.6045919494629,113.60395169632523L83.20317594909669,123.07094517083816L83.80175994873048,128.8967890398944L84.40034394836425,127.44032994776595L84.99892794799804,102.68049162914136L85.59751194763183,112.14748885392554L86.19609594726562,120.15802323631004L86.79467994689941,132.53794239562234L87.3932639465332,128.8967890398944L87.99184794616698,120.15802323631004L88.59043194580077,113.60395169632523L89.18901594543456,112.87571652485414L89.78759994506835,131.8097109744225L90.38618394470214,142.00493587013528L90.98476794433593,112.87571652485414L91.58335194396973,120.15802323631004L92.18193594360352,116.51687363085333L92.78051994323731,104.86518214246964L93.3791039428711,128.8967890398944L93.97768794250489,96.85464776008513L94.57627194213867,95.39819241822795L95.17485594177246,125.98386710536627L95.77343994140625,99.76757344488449L96.37202394104004,112.87571652485414L96.97060794067383,101.22402878674167L97.56919194030762,106.32164498486931L98.16777593994141,106.32164498486931L98.7663599395752,101.22402878674167L99.36494393920898,96.85464776008513L99.96352793884277,108.50633549819759L100.56211193847656,128.16855761869454L101.16069593811036,88.11588570677205L101.75927993774415,122.3427137496383L102.35786393737794,125.98386710536627L102.95644793701172,133.9944014877508L103.5550319366455,128.8967890398944L104.1536159362793,120.15802323631004L104.75219993591308,116.51687363085333L105.35078393554687,95.39819241822795L105.94936793518066,91.75703906249998L106.54795193481445,97.58288293155621L107.14653593444824,85.93119519344376L107.74511993408203,106.32164498486931L108.34370393371582,94.66995724675685L108.9422879333496,90.30057622010031L109.54087193298339,98.31111060248482L110.13945593261718,90.30057622010031L110.73803993225097,103.40872680061246L111.33662393188476,93.94172957582826L111.93520793151855,91.0288038910289L112.53379193115235,96.12642008915654L113.13237593078614,103.40872680061246L113.73095993041993,99.76757344488449L114.32954393005372,93.94172957582826L114.9281279296875,90.30057622010031L115.5267119293213,77.19242563958817L116.12529592895508,88.11588570677205L116.72387992858887,82.2900418377158L117.32246392822266,80.83357899531613L117.92104792785645,101.95226395821275L118.51963192749024,84.47473235104408L119.11821592712403,77.92066081105925L119.71679992675782,88.11588570677205L120.3153839263916,80.10535132438753L120.91396792602539,85.93119519344376L121.51255192565918,85.20296002197266L122.11113592529296,84.47473235104408L122.70971992492674,85.93119519344376L123.30830392456053,85.20296002197266L123.90688792419434,89.5723485491717L124.50547192382813,74.2795074553313L125.10405592346191,107.04987265579791L125.7026399230957,91.75703906249998L126.30122392272949,75.00773512625989L126.89980792236328,91.0288038910289L127.49839192199707,91.75703906249998L128.09697592163084,99.76757344488449L128.69555992126465,86.65942286437235L129.29414392089845,81.56180666624472L129.89272792053222,96.85464776008513L130.49131192016603,76.46419796865958L131.0898959197998,91.0288038910289L131.6884799194336,96.12642008915654L132.28706391906738,106.32164498486931L132.88564791870118,92.48526673342859L133.48423191833496,96.12642008915654L134.08281591796876,100.49580111581308L134.68139991760253,85.93119519344376L135.27998391723634,101.95226395821275L135.8785679168701,88.84411337770062L136.4771519165039,96.85464776008513L137.0757359161377,83.0182695086444L137.6743199157715,101.95226395821275L138.2729039154053,90.30057622010031L138.87148791503907,90.30057622010031L139.47007191467287,88.84411337770062L140.06865591430665,87.38765053530095L140.66723991394042,85.93119519344376L141.26582391357422,83.0182695086444L141.864407913208,93.21349440435718L142.4629919128418,75.00773512625989L143.06157591247558,89.5723485491717L143.66015991210938,84.47473235104408L144.25874391174315,77.19242563958817L144.85732791137696,81.56180666624472L145.45591191101073,91.0288038910289L146.05449591064453,85.93119519344376L146.6530799102783,81.56180666624472L147.2516639099121,83.0182695086444L147.85024790954589,88.11588570677205L148.4488319091797,90.30057622010031L149.04741590881346,88.11588570677205L149.64599990844727,83.0182695086444L150.24458390808107,95.39819241822795L150.84316790771484,92.48526673342859L151.44175190734865,88.11588570677205L152.04033590698242,99.76757344488449L152.63891990661622,85.93119519344376L153.23750390625,77.92066081105925L153.8360879058838,88.84411337770062L154.43467190551758,84.47473235104408L155.03325590515138,95.39819241822795L155.63183990478515,99.03933827341339L156.23042390441896,104.13695447154103L156.82900790405273,83.74650468011549L157.42759190368653,80.83357899531613L158.0261759033203,80.10535132438753L158.6247599029541,74.2795074553313L159.22334390258789,96.12642008915654L159.8219279022217,91.75703906249998L160.4205119018555,89.5723485491717L161.01909590148927,83.0182695086444L161.61767990112307,78.64888848198784L162.21626390075684,88.84411337770062L162.81484790039065,79.37711615291644L163.41343190002442,89.5723485491717L164.01201589965822,83.0182695086444L164.610599899292,72.09481694200302L165.2091838989258,76.46419796865958L165.80776789855958,73.55127228386021L166.40635189819338,76.46419796865958L167.00493589782715,78.64888848198784L167.60351989746096,89.5723485491717L168.20210389709473,75.73597029773099L168.8006878967285,99.03933827341339L169.39927189636228,93.94172957582826L169.99785589599608,85.93119519344376L170.59643989562986,89.5723485491717L171.19502389526366,83.74650468011549L171.79360789489743,91.0288038910289L172.39219189453124,78.64888848198784L172.99077589416504,73.55127228386021L173.58935989379881,82.2900418377158L174.18794389343262,71.36658177053194L174.7865278930664,76.46419796865958L175.3851118927002,79.37711615291644L175.98369589233397,78.64888848198784L176.58227989196777,75.73597029773099L177.18086389160155,73.55127228386021L177.77944789123535,85.20296002197266L178.37803189086912,81.56180666624472L178.97661589050293,69.91012642867476L179.5751998901367,70.63835409960333L180.1737838897705,79.37711615291644L180.77236788940428,84.47473235104408L181.37095188903808,75.73597029773099L181.96953588867186,81.56180666624472L182.56811988830566,77.92066081105925L183.16670388793946,79.37711615291644L183.76528788757324,75.73597029773099L184.36387188720704,85.93119519344376L184.96245588684081,82.2900418377158L185.56103988647462,80.10535132438753L186.1596238861084,81.56180666624472L186.7582078857422,80.10535132438753L187.35679188537597,66.99720074387538L187.95537588500977,84.47473235104408L188.55395988464355,78.64888848198784L189.15254388427735,75.73597029773099L189.75112788391112,77.92066081105925L190.34971188354493,75.73597029773099L190.9482958831787,78.64888848198784L191.5468798828125,74.2795074553313L192.1454638824463,80.83357899531613L192.74404788208008,71.36658177053194L193.34263188171388,80.10535132438753L193.94121588134766,72.82304461293162L194.53979988098146,69.91012642867476L195.13838388061524,74.2795074553313L195.73696788024904,72.09481694200302L196.33555187988281,66.99720074387538L196.93413587951662,74.2795074553313L197.5327198791504,74.2795074553313L198.1313038787842,79.37711615291644L198.72988787841797,72.82304461293162L199.32847187805177,69.18189125720366L199.92705587768555,89.5723485491717L200.52563987731935,66.2689730729468L201.12422387695312,67.72542841480397L201.72280787658693,75.73597029773099L202.32139187622073,69.18189125720366L202.9199758758545,65.54073790147571L203.5185598754883,74.2795074553313L204.11714387512208,72.82304461293162L204.71572787475588,66.99720074387538L205.31431187438966,69.18189125720366L205.91289587402343,61.89958454574776L206.5114798736572,60.443129203890564L207.110063873291,74.2795074553313L207.7086478729248,72.09481694200302L208.3072318725586,77.92066081105925L208.90581587219236,83.0182695086444L209.50439987182617,72.82304461293162L210.10298387145994,70.63835409960333L210.70156787109374,74.2795074553313L211.30015187072752,67.72542841480397L211.89873587036132,75.73597029773099L212.4973198699951,69.91012642867476L213.0959038696289,72.09481694200302L213.69448786926267,67.72542841480397L214.29307186889648,67.72542841480397L214.89165586853028,66.99720074387538L215.49023986816405,65.54073790147571L216.08882386779786,73.55127228386021L216.68740786743163,65.54073790147571L217.28599186706543,68.45366358627507L217.8845758666992,65.54073790147571L218.483159866333,66.2689730729468L219.08174386596679,80.10535132438753L219.6803278656006,70.63835409960333L220.27891186523436,75.73597029773099L220.87749586486817,76.46419796865958L221.47607986450194,71.36658177053194L222.07466386413574,65.54073790147571L222.67324786376952,66.99720074387538L223.27183186340332,69.18189125720366L223.8704158630371,74.2795074553313L224.4689998626709,74.2795074553313L225.0675838623047,74.2795074553313L225.66616786193848,69.91012642867476L226.26475186157228,70.63835409960333L226.86333586120605,77.92066081105925L227.46191986083986,69.18189125720366L228.06050386047363,69.91012642867476L228.65908786010743,72.09481694200302L229.2576718597412,65.54073790147571L229.856255859375,68.45366358627507L230.45483985900879,75.00773512625989L231.0534238586426,66.99720074387538L231.65200785827636,65.54073790147571L232.25059185791017,72.82304461293162L232.84917585754394,75.73597029773099L233.44775985717774,70.63835409960333L234.04634385681152,68.45366358627507L234.64492785644532,69.91012642867476L235.24351185607912,67.72542841480397L235.8420958557129,66.2689730729468L236.4406798553467,66.2689730729468L237.03926385498048,69.91012642867476L237.63784785461428,69.91012642867476L238.23643185424805,63.356047388147445L238.83501585388186,73.55127228386021L239.43359985351563,65.54073790147571L240.03218385314943,69.91012642867476L240.6307678527832,64.81251023054712L241.229351852417,69.18189125720366L241.82793585205079,64.08428255961852L242.4265198516846,63.356047388147445L243.02510385131836,66.2689730729468L243.62368785095214,69.18189125720366L244.2222718505859,66.2689730729468L244.82085585021971,57.5302035190912L245.4194398498535,60.443129203890564L246.0180238494873,67.72542841480397L246.61660784912107,70.63835409960333L247.21519184875487,66.2689730729468L247.81377584838867,69.91012642867476L248.41235984802245,69.18189125720366L249.01094384765625,64.81251023054712L249.60952784729002,63.356047388147445L250.20811184692383,65.54073790147571L250.8066958465576,59.714894032419494L251.4052798461914,64.08428255961852L252.00386384582518,64.81251023054712L252.60244784545898,68.45366358627507L253.20103184509276,64.08428255961852L253.79961584472656,68.45366358627507L254.39819984436033,70.63835409960333L254.99678384399414,65.54073790147571L255.5953678436279,72.09481694200302L256.1939518432617,65.54073790147571L256.7925358428955,71.36658177053194L257.3911198425293,69.91012642867476L257.98970384216307,72.82304461293162L258.5882878417969,71.36658177053194L259.1868718414307,73.55127228386021L259.78545584106445,70.63835409960333L260.3840398406982,70.63835409960333L260.98262384033205,61.89958454574776L261.5812078399658,61.17135687481915L262.1797918395996,67.72542841480397L262.7783758392334,64.08428255961852L263.3769598388672,62.62781971721884L263.975543838501,69.18189125720366L264.57412783813476,66.2689730729468L265.17271183776853,65.54073790147571L265.77129583740236,71.36658177053194L266.36987983703614,66.2689730729468L266.9684638366699,64.08428255961852L267.56704783630374,66.2689730729468L268.1656318359375,70.63835409960333L268.7642158355713,67.72542841480397" fill="none"></path></g></g></g></g></g></g><g transform="translate(30, 176)" clip-path="url(#clip_1)"><clipPath id="clip_1"><rect width="299" height="23"></rect></clipPath><g><g><line x1="0" y1="0" x2="0" y2="5" style="visibility: inherit;" fill="rgb(0, 0, 0)" stroke="rgb(204, 204, 204)" stroke-width="1px"></line><line x1="29.929199981689454" y1="0" x2="29.929199981689454" y2="5" style="visibility: inherit;" fill="rgb(0, 0, 0)" stroke="rgb(204, 204, 204)" stroke-width="1px"></line><line x1="59.85839996337891" y1="0" x2="59.85839996337891" y2="5" style="visibility: inherit;" fill="rgb(0, 0, 0)" stroke="rgb(204, 204, 204)" stroke-width="1px"></line><line x1="89.78759994506835" y1="0" x2="89.78759994506835" y2="5" style="visibility: inherit;" fill="rgb(0, 0, 0)" stroke="rgb(204, 204, 204)" stroke-width="1px"></line><line x1="119.71679992675782" y1="0" x2="119.71679992675782" y2="5" style="visibility: inherit;" fill="rgb(0, 0, 0)" stroke="rgb(204, 204, 204)" stroke-width="1px"></line><line x1="149.64599990844727" y1="0" x2="149.64599990844727" y2="5" style="visibility: inherit;" fill="rgb(0, 0, 0)" stroke="rgb(204, 204, 204)" stroke-width="1px"></line><line x1="179.5751998901367" y1="0" x2="179.5751998901367" y2="5" style="visibility: inherit;" fill="rgb(0, 0, 0)" stroke="rgb(204, 204, 204)" stroke-width="1px"></line><line x1="209.50439987182617" y1="0" x2="209.50439987182617" y2="5" style="visibility: inherit;" fill="rgb(0, 0, 0)" stroke="rgb(204, 204, 204)" stroke-width="1px"></line><line x1="239.43359985351563" y1="0" x2="239.43359985351563" y2="5" style="visibility: inherit;" fill="rgb(0, 0, 0)" stroke="rgb(204, 204, 204)" stroke-width="1px"></line><line x1="269.36279983520507" y1="0" x2="269.36279983520507" y2="5" style="visibility: inherit;" fill="rgb(0, 0, 0)" stroke="rgb(204, 204, 204)" stroke-width="1px"></line><line x1="299.29199981689453" y1="0" x2="299.29199981689453" y2="5" style="visibility: inherit;" fill="rgb(0, 0, 0)" stroke="rgb(204, 204, 204)" stroke-width="1px"></line></g><g transform="translate(0, 8)"><text style="text-anchor: middle; visibility: hidden; font-family: &quot;Helvetica Neue&quot;, sans-serif; font-size: 12px; font-weight: 200;" x="0" y="0" dx="0em" dy="0.95em" fill="rgb(33, 33, 33)" stroke="none" stroke-width="1px">-50</text><text style="text-anchor: middle; visibility: inherit; font-family: &quot;Helvetica Neue&quot;, sans-serif; font-size: 12px; font-weight: 200;" x="29.929199981689454" y="0" dx="0em" dy="0.95em" fill="rgb(33, 33, 33)" stroke="none" stroke-width="1px">0</text><text style="text-anchor: middle; visibility: inherit; font-family: &quot;Helvetica Neue&quot;, sans-serif; font-size: 12px; font-weight: 200;" x="59.85839996337891" y="0" dx="0em" dy="0.95em" fill="rgb(33, 33, 33)" stroke="none" stroke-width="1px">50</text><text style="text-anchor: middle; visibility: inherit; font-family: &quot;Helvetica Neue&quot;, sans-serif; font-size: 12px; font-weight: 200;" x="89.78759994506835" y="0" dx="0em" dy="0.95em" fill="rgb(33, 33, 33)" stroke="none" stroke-width="1px">100</text><text style="text-anchor: middle; visibility: inherit; font-family: &quot;Helvetica Neue&quot;, sans-serif; font-size: 12px; font-weight: 200;" x="119.71679992675782" y="0" dx="0em" dy="0.95em" fill="rgb(33, 33, 33)" stroke="none" stroke-width="1px">150</text><text style="text-anchor: middle; visibility: inherit; font-family: &quot;Helvetica Neue&quot;, sans-serif; font-size: 12px; font-weight: 200;" x="149.64599990844727" y="0" dx="0em" dy="0.95em" fill="rgb(33, 33, 33)" stroke="none" stroke-width="1px">200</text><text style="text-anchor: middle; visibility: inherit; font-family: &quot;Helvetica Neue&quot;, sans-serif; font-size: 12px; font-weight: 200;" x="179.5751998901367" y="0" dx="0em" dy="0.95em" fill="rgb(33, 33, 33)" stroke="none" stroke-width="1px">250</text><text style="text-anchor: middle; visibility: inherit; font-family: &quot;Helvetica Neue&quot;, sans-serif; font-size: 12px; font-weight: 200;" x="209.50439987182617" y="0" dx="0em" dy="0.95em" fill="rgb(33, 33, 33)" stroke="none" stroke-width="1px">300</text><text style="text-anchor: middle; visibility: inherit; font-family: &quot;Helvetica Neue&quot;, sans-serif; font-size: 12px; font-weight: 200;" x="239.43359985351563" y="0" dx="0em" dy="0.95em" fill="rgb(33, 33, 33)" stroke="none" stroke-width="1px">350</text><text style="text-anchor: middle; visibility: inherit; font-family: &quot;Helvetica Neue&quot;, sans-serif; font-size: 12px; font-weight: 200;" x="269.36279983520507" y="0" dx="0em" dy="0.95em" fill="rgb(33, 33, 33)" stroke="none" stroke-width="1px">400</text><text style="text-anchor: middle; visibility: hidden; font-family: &quot;Helvetica Neue&quot;, sans-serif; font-size: 12px; font-weight: 200;" x="299.29199981689453" y="0" dx="0em" dy="0.95em" fill="rgb(33, 33, 33)" stroke="none" stroke-width="1px">450</text></g><line x1="0" y1="0" x2="299.29199981689453" y2="0" fill="rgb(0, 0, 0)" stroke="rgb(204, 204, 204)" stroke-width="1px"></line></g></g></g></g></svg>