<svg viewBox="0 0 330 200" xmlns="http://www.w3.org/2000/svg"><g><g><g><g><g><line x1="30.70800018310547" y1="176.95999908447266" x2="25.70800018310547" y2="176.95999908447266" style="visibility: inherit;" fill="rgb(0, 0, 0)" stroke="rgb(204, 204, 204)" stroke-width="1px"></line><line x1="30.70800018310547" y1="157.2977769639757" x2="25.70800018310547" y2="157.2977769639757" style="visibility: inherit;" fill="rgb(0, 0, 0)" stroke="rgb(204, 204, 204)" stroke-width="1px"></line><line x1="30.70800018310547" y1="137.63555484347873" x2="25.70800018310547" y2="137.63555484347873" style="visibility: inherit;" fill="rgb(0, 0, 0)" stroke="rgb(204, 204, 204)" stroke-width="1px"></line><line x1="30.70800018310547" y1="117.97333272298178" x2="25.70800018310547" y2="117.97333272298178" style="visibility: inherit;" fill="rgb(0, 0, 0)" stroke="rgb(204, 204, 204)" stroke-width="1px"></line><line x1="30.70800018310547" y1="98.31111060248482" x2="25.70800018310547" y2="98.31111060248482" style="visibility: inherit;" fill="rgb(0, 0, 0)" stroke="rgb(204, 204, 204)" stroke-width="1px"></line><line x1="30.70800018310547" y1="78.64888848198784" x2="25.70800018310547" y2="78.64888848198784" style="visibility: inherit;" fill="rgb(0, 0, 0)" stroke="rgb(204, 204, 204)" stroke-width="1px"></line><line x1="30.70800018310547" y1="58.98666636149089" x2="25.70800018310547" y2="58.98666636149089" style="visibility: inherit;" fill="rgb(0, 0, 0)" stroke="rgb(204, 204, 204)" stroke-width="1px"></line><line x1="30.70800018310547" y1="39.32444424099393" x2="25.70800018310547" y2="39.32444424099393" style="visibility: inherit;" fill="rgb(0, 0, 0)" stroke="rgb(204, 204, 204)" stroke-width="1px"></line><line x1="30.70800018310547" y1="19.662222120496978" x2="25.70800018310547" y2="19.662222120496978" style="visibility: inherit;" fill="rgb(0, 0, 0)" stroke="rgb(204, 204, 204)" stroke-width="1px"></line><line x1="30.70800018310547" y1="0" x2="25.70800018310547" y2="0" style="visibility: inherit;" fill="rgb(0, 0, 0)" stroke="rgb(204, 204, 204)" stroke-width="1px"></line></g><g transform="translate(20.70800018310547, 0)"><text style="text-anchor: end; visibility: hidden; font-family: &quot;Helvetica Neue&quot;, sans-serif; font-size: 12px; font-weight: 200;" x="0" y="176.95999908447266" dx="0em" dy="0.3em" fill="rgb(33, 33, 33)" stroke="none" stroke-width="1px">0</text><text style="text-anchor: end; visibility: inherit; font-family: &quot;Helvetica Neue&quot;, sans-serif; font-size: 12px; font-weight: 200;" x="0" y="157.2977769639757" dx="0em" dy="0.3em" fill="rgb(33, 33, 33)" stroke="none" stroke-width="1px">10</text><text style="text-anchor: end; visibility: hidden; font-family: &quot;Helvetica Neue&quot;, sans-serif; font-size: 12px; font-weight: 200;" x="0" y="137.63555484347873" dx="0em" dy="0.3em" fill="rgb(33, 33, 33)" stroke="none" stroke-width="1px">20</text><text style="text-anchor: end; visibility: inherit; font-family: &quot;Helvetica Neue&quot;, sans-serif; font-size: 12px; font-weight: 200;" x="0" y="117.97333272298178" dx="0em" dy="0.3em" fill="rgb(33, 33, 33)" stroke="none" stroke-width="1px">30</text><text style="text-anchor: end; visibility: hidden; font-family: &quot;Helvetica Neue&quot;, sans-serif; font-size: 12px; font-weight: 200;" x="0" y="98.31111060248482" dx="0em" dy="0.3em" fill="rgb(33, 33, 33)" stroke="none" stroke-width="1px">40</text><text style="text-anchor: end; visibility: inherit; font-family: &quot;Helvetica Neue&quot;, sans-serif; font-size: 12px; font-weight: 200;" x="0" y="78.64888848198784" dx="0em" dy="0.3em" fill="rgb(33, 33, 33)" stroke="none" stroke-width="1px">50</text><text style="text-anchor: end; visibility: hidden; font-family: &quot;Helvetica Neue&quot;, sans-serif; font-size: 12px; font-weight: 200;" x="0" y="58.98666636149089" dx="0em" dy="0.3em" fill="rgb(33, 33, 33)" stroke="none" stroke-width="1px">60</text><text style="text-anchor: end; visibility: inherit; font-family: &quot;Helvetica Neue&quot;, sans-serif; font-size: 12px; font-weight: 200;" x="0" y="39.32444424099393" dx="0em" dy="0.3em" fill="rgb(33, 33, 33)" stroke="none" stroke-width="1px">70</text><text style="text-anchor: end; visibility: hidden; font-family: &quot;Helvetica Neue&quot;, sans-serif; font-size: 12px; font-weight: 200;" x="0" y="19.662222120496978" dx="0em" dy="0.3em" fill="rgb(33, 33, 33)" stroke="none" stroke-width="1px">80</text><text style="text-anchor: end; visibility: hidden; font-family: &quot;Helvetica Neue&quot;, sans-serif; font-size: 12px; font-weight: 200;" x="0" y="0" dx="0em" dy="0.3em" fill="rgb(33, 33, 33)" stroke="none" stroke-width="1px">90</text></g><line x1="30.70800018310547" y1="0" x2="30.70800018310547" y2="176.95999908447266" fill="rgb(0, 0, 0)" stroke="rgb(204, 204, 204)" stroke-width="1px"></line></g></g><g transform="translate(30, 0)" clip-path="url(#clip_0)"><clipPath id="clip_0"><rect width="299" height="176"></rect></clipPath><g><g><g><line x1="0" y1="0" x2="0" y2="176.95999908447266" fill="rgb(0, 0, 0)" stroke="rgb(66, 66, 66)" stroke-width="1px" opacity="0.25"></line><line x1="29.929199981689454" y1="0" x2="29.929199981689454" y2="176.95999908447266" fill="rgb(0, 0, 0)" stroke="rgb(66, 66, 66)" stroke-width="1px" opacity="0.25"></line><line x1="59.85839996337891" y1="0" x2="59.85839996337891" y2="176.95999908447266" fill="rgb(0, 0, 0)" stroke="rgb(66, 66, 66)" stroke-width="1px" opacity="0.25"></line><line x1="89.78759994506835" y1="0" x2="89.78759994506835" y2="176.95999908447266" fill="rgb(0, 0, 0)" stroke="rgb(66, 66, 66)" stroke-width="1px" opacity="0.25"></line><line x1="119.71679992675782" y1="0" x2="119.71679992675782" y2="176.95999908447266" fill="rgb(0, 0, 0)" stroke="rgb(66, 66, 66)" stroke-width="1px" opacity="0.25"></line><line x1="149.64599990844727" y1="0" x2="149.64599990844727" y2="176.95999908447266" fill="rgb(0, 0, 0)" stroke="rgb(66, 66, 66)" stroke-width="1px" opacity="0.25"></line><line x1="179.5751998901367" y1="0" x2="179.5751998901367" y2="176.95999908447266" fill="rgb(0, 0, 0)" stroke="rgb(66, 66, 66)" stroke-width="1px" opacity="0.25"></line><line x1="209.50439987182617" y1="0" x2="209.50439987182617" y2="176.95999908447266" fill="rgb(0, 0, 0)" stroke="rgb(66, 66, 66)" stroke-width="1px" opacity="0.25"></line><line x1="239.43359985351563" y1="0" x2="239.43359985351563" y2="176.95999908447266" fill="rgb(0, 0, 0)" stroke="rgb(66, 66, 66)" stroke-width="1px" opacity="0.25"></line><line x1="269.36279983520507" y1="0" x2="269.36279983520507" y2="176.95999908447266" fill="rgb(0, 0, 0)" stroke="rgb(66, 66, 66)" stroke-width="1px" opacity="0.25"></line><line x1="299.29199981689453" y1="0" x2="299.29199981689453" y2="176.95999908447266" fill="rgb(0, 0, 0)" stroke="rgb(66, 66, 66)" stroke-width="1px" opacity="0.25"></line></g><g><line x1="0" y1="176.95999908447266" x2="299.29199981689453" y2="176.95999908447266" fill="rgb(0, 0, 0)" stroke="rgb(66, 66, 66)" stroke-width="1px" opacity="0.25"></line><line x1="0" y1="157.2977769639757" x2="299.29199981689453" y2="157.2977769639757" fill="rgb(0, 0, 0)" stroke="rgb(66, 66, 66)" stroke-width="1px" opacity="0.25"></line><line x1="0" y1="137.63555484347873" x2="299.29199981689453" y2="137.63555484347873" fill="rgb(0, 0, 0)" stroke="rgb(66, 66, 66)" stroke-width="1px" opacity="0.25"></line><line x1="0" y1="117.97333272298178" x2="299.29199981689453" y2="117.97333272298178" fill="rgb(0, 0, 0)" stroke="rgb(66, 66, 66)" stroke-width="1px" opacity="0.25"></line><line x1="0" y1="98.31111060248482" x2="299.29199981689453" y2="98.31111060248482" fill="rgb(0, 0, 0)" stroke="rgb(66, 66, 66)" stroke-width="1px" opacity="0.25"></line><line x1="0" y1="78.64888848198784" x2="299.29199981689453" y2="78.64888848198784" fill="rgb(0, 0, 0)" stroke="rgb(66, 66, 66)" stroke-width="1px" opacity="0.25"></line><line x1="0" y1="58.98666636149089" x2="299.29199981689453" y2="58.98666636149089" fill="rgb(0, 0, 0)" stroke="rgb(66, 66, 66)" stroke-width="1px" opacity="0.25"></line><line x1="0" y1="39.32444424099393" x2="299.29199981689453" y2="39.32444424099393" fill="rgb(0, 0, 0)" stroke="rgb(66, 66, 66)" stroke-width="1px" opacity="0.25"></line><line x1="0" y1="19.662222120496978" x2="299.29199981689453" y2="19.662222120496978" fill="rgb(0, 0, 0)" stroke="rgb(66, 66, 66)" stroke-width="1px" opacity="0.25"></line><line x1="0" y1="0" x2="299.29199981689453" y2="0" fill="rgb(0, 0, 0)" stroke="rgb(66, 66, 66)" stroke-width="1px" opacity="0.25"></line></g></g></g><g><g><line x1="0" y1="176.95999908447266" x2="299.29199981689453" y2="176.95999908447266" fill="rgb(0, 0, 0)" stroke="rgb(153, 153, 153)" stroke-width="1.5px"></line></g></g><g><g><line x1="29.929199981689454" y1="0" x2="29.929199981689454" y2="176.95999908447266" fill="rgb(0, 0, 0)" stroke="rgb(153, 153, 153)" stroke-width="1.5px"></line></g></g><g><g><g><g><g><path style="fill: none;" stroke="rgb(255, 112, 67)" stroke-width="2px" d="M29.929199981689454,120.2562128381241L30.52778398132324,120.2562128381241L31.12636798095703,120.2562128381241L31.72495198059082,118.90251313605192L32.32353598022461,117.57323827246265L32.9221199798584,111.90136863505597L33.52070397949219,111.39992102508421L34.11928797912598,108.71141272599559L34.71787197875977,113.9714721611179L35.316455978393556,123.02051726115386L35.915039978027345,124.86714555674266L36.51362397766113,120.36187773518142L37.11220797729492,114.42054788359943L37.71079197692871,114.98786811013713L38.3093759765625,113.2650479897957L38.90795997619629,109.58004163446486L39.50654397583008,107.95893161252081L40.10512797546387,104.62968143925646L40.70371197509766,104.39984727976675L41.30229597473145,108.9751704531486L41.90087997436524,100.52653664213909L42.49946397399902,102.82170053156982L43.09804797363281,106.26075195136912L43.6966319732666,95.95236998147199L44.29521597290039,99.19348362484386L44.893799972534175,99.37075106753949L45.492383972167964,91.5238459598705L46.09096797180176,95.35810213121447L46.68955197143555,96.18582625838937L47.28813597106934,93.44224346624517L47.886719970703126,103.28413660490132L48.485303970336915,101.23601377995162L49.083887969970704,101.77452910461705L49.68247196960449,90.60960005209323L50.28105596923828,79.78673048191335L50.87963996887208,83.89735395462652L51.47822396850586,82.53438002003618L52.07680796813965,86.72420387134275L52.675391967773436,91.8891829245601L53.273975967407225,95.87186626587416L53.87255996704101,95.31582421307526L54.4711439666748,91.152854012671L55.06972796630859,86.29855145166293L55.66831196594238,89.86640263094624L56.266895965576175,82.2864642663076L56.865479965209964,80.09502168954289L57.46406396484375,83.78776133161007L58.06264796447754,80.11210401321155L58.66123196411133,82.03062189478199L59.25981596374512,79.35238465629223L59.85839996337891,83.93131072199398L60.456983963012696,75.77975706988289L61.05556796264648,67.9431728268087L61.65415196228027,71.19448252086698L62.25273596191406,67.54852853877783L62.85131996154785,66.83378367554357L63.44990396118164,70.82341333522207L64.04848796081542,73.51175543614526L64.64707196044922,65.9932432363459L65.24565596008301,65.90061249408471L65.8442399597168,74.97655150908056L66.44282395935059,73.05798628864243L67.04140795898438,69.84489102012894L67.63999195861817,77.3431186247069L68.23857595825196,68.29206114948347L68.83715995788575,76.1168563972029L69.43574395751953,66.67260789741414L70.03432795715332,68.0756201216426L70.63291195678711,60.96416721629399L71.2314959564209,57.58099438886879L71.83007995605469,65.86086837344958L72.42866395568848,64.053795745213L73.02724795532227,62.6749878631544L73.62583195495606,71.8629165098385L74.22441595458984,70.30611237374725L74.82299995422363,63.480725788457406L75.42158395385742,61.152885668417426L76.02016795349121,57.10509384969252L76.618751953125,51.4362024015234L77.21733595275879,57.46095229830787L77.81591995239258,60.48667062592823L78.41450395202637,52.87601985703151L79.01308795166015,55.08462641467854L79.61167195129394,56.115226044150106L80.21025595092775,55.555325601149406L80.80883995056153,60.22699052320016L81.40742395019532,53.30934040562795L82.00600794982911,53.87179421803614L82.6045919494629,50.969047148329835L83.20317594909669,53.05674687389056L83.80175994873048,44.29415333330775L84.40034394836425,43.455070786358874L84.99892794799804,44.71901308932348L85.59751194763183,44.00455394530198L86.19609594726562,47.4052264262736L86.79467994689941,44.14345742167177L87.3932639465332,49.2559573430124L87.99184794616698,49.08324093888257L88.59043194580077,49.56873970663797L89.18901594543456,51.92199810375878L89.78759994506835,52.450257226464316L90.38618394470214,54.82916883633821L90.98476794433593,51.54347191931109L91.58335194396973,49.27749246419516L92.18193594360352,48.80160070669257L92.78051994323731,52.63997492447517L93.3791039428711,49.05169835172664L93.97768794250489,47.78242832364447L94.57627194213867,44.07521125476063L95.17485594177246,43.91284014989793L95.77343994140625,43.815417486980294L96.37202394104004,47.291744551280544L96.97060794067383,51.43949692611129L97.56919194030762,52.45532082499247L98.16777593994141,48.35177128136971L98.7663599395752,46.184208860529736L99.36494393920898,47.829320459626274L99.96352793884277,49.40552202975151L100.56211193847656,47.11102661489247L101.16069593811036,46.02889067087668L101.75927993774415,49.50352437718536L102.35786393737794,52.7665648216542L102.95644793701172,52.36786864696825L103.5550319366455,47.41561005942222L104.1536159362793,44.738816211794244L104.75219993591308,43.42730720855113L105.35078393554687,44.1132263324055L105.94936793518066,44.230210501384505L106.54795193481445,46.95148874947279L107.14653593444824,47.11143117252547L107.74511993408203,43.378051659189595L108.34370393371582,44.96736891835556L108.9422879333496,45.920959273855146L109.54087193298339,47.37680940272185L110.13945593261718,44.42097451287438L110.73803993225097,47.65507876681701L111.33662393188476,47.23901787759837L111.93520793151855,44.043732292466615L112.53379193115235,41.537432331154264L113.13237593078614,44.45212593176768L113.73095993041993,44.13898895610214L114.32954393005372,41.594586329335556L114.9281279296875,41.246201973742245L115.5267119293213,42.50999588618657L116.12529592895508,41.5008864029532L116.72387992858887,41.189982017912826L117.32246392822266,41.59256799712193L117.92104792785645,38.593903227713184L118.51963192749024,41.21318394390275L119.11821592712403,42.19562376338317L119.71679992675782,39.544871298137224L120.3153839263916,43.25658931195744L120.91396792602539,44.01079559444929L121.51255192565918,44.463319363944436L122.11113592529296,43.55657040474088L122.70971992492674,44.19078425011938L123.30830392456053,45.16044116757976L123.90688792419434,43.68028218202244L124.50547192382813,42.49761948535436L125.10405592346191,42.37715047758684L125.7026399230957,43.7776995991606L126.30122392272949,39.90498218893637L126.89980792236328,39.348743573935764L127.49839192199707,39.89869632050238L128.09697592163084,36.39932300127484L128.69555992126465,39.01273989247278L129.29414392089845,38.81339819605759L129.89272792053222,38.69379317820852L130.49131192016603,38.3274688625994L131.0898959197998,36.63484374699965L131.6884799194336,38.564923729674376L132.28706391906738,37.661012582811594L132.88564791870118,36.529537284460645L133.48423191833496,37.323476631250344L134.08281591796876,37.505278934424496L134.68139991760253,36.14152979009475L135.27998391723634,38.2689353555314L135.8785679168701,38.95625008456008L136.4771519165039,39.36863892197732L137.0757359161377,39.9106335293273L137.6743199157715,39.057573073270675L138.2729039154053,37.66204088406974L138.87148791503907,40.65406653771669L139.47007191467287,38.914498267636986L140.06865591430665,38.754453221156126L140.66723991394042,42.193209855535486L141.26582391357422,42.19450469969553L141.864407913208,39.83876116482429L142.4629919128418,38.13075373900193L143.06157591247558,38.28420650397513L143.66015991210938,36.01975772159179L144.25874391174315,34.07195984192845L144.85732791137696,35.25980155549772L145.45591191101073,35.97250658363927L146.05449591064453,34.92730507472393L146.6530799102783,33.711055559141414L147.2516639099121,33.864995764924885L147.85024790954589,34.84105580396192L148.4488319091797,38.666908184318316L149.04741590881346,39.19503378183225L149.64599990844727,37.744517309206685L150.24458390808107,37.7579033411983L150.84316790771484,36.293104434159005L151.44175190734865,37.770751531736636L152.04033590698242,35.71168473824869L152.63891990661622,34.77081196748961L153.23750390625,33.911720999700464L153.8360879058838,36.34192147106154L154.43467190551758,36.327211227643886L155.03325590515138,39.264040133627844L155.63183990478515,41.320698782117915L156.23042390441896,38.72534900404443L156.82900790405273,36.57901052696704L157.42759190368653,37.05859927185449L158.0261759033203,35.284393382319394L158.6247599029541,32.15791671256477L159.22334390258789,33.227679762312505L159.8219279022217,33.57497028682755L160.4205119018555,33.48878329663688L161.01909590148927,34.9098956283228L161.61767990112307,33.7006098913007L162.21626390075684,35.03699158512103L162.81484790039065,35.5442532960796L163.41343190002442,35.848610322654764L164.01201589965822,34.85296731813321L164.610599899292,34.25558151542029L165.2091838989258,33.30802142355927L165.80776789855958,32.44491806310896L166.40635189819338,34.28357648820602L167.00493589782715,38.037859289965155L167.60351989746096,37.34477391898608L168.20210389709473,34.57240225503139L168.8006878967285,35.26549969802582L169.39927189636228,35.975925469156124L169.99785589599608,36.40218093183432L170.59643989562986,38.1307587352415L171.19502389526366,36.8113849759186L171.79360789489743,36.019760720324825L172.39219189453124,36.42848208253551L172.99077589416504,37.26284351009528L173.58935989379881,35.99606853549719L174.18794389343262,31.701225888904474L174.7865278930664,31.186273436982418L175.3851118927002,29.699044745362585L175.98369589233397,29.395836140624L176.58227989196777,30.097606893347802L177.18086389160155,29.92954073474877L177.77944789123535,27.766741903121755L178.37803189086912,25.87993399391226L178.97661589050293,26.515241079520507L179.5751998901367,26.89642533088542L180.1737838897705,27.714264491937683L180.77236788940428,27.910400683235395L181.37095188903808,29.795474229147942L181.96953588867186,30.04282244112852L182.56811988830566,29.89667006341719L183.16670388793946,29.2198440261231L183.76528788757324,27.340923877946352L184.36387188720704,25.919010484140642L184.96245588684081,26.53868697365752L185.56103988647462,27.499621477600954L186.1596238861084,29.25444540086764L186.7582078857422,31.78016428062793L187.35679188537597,28.28798742041593L187.95537588500977,29.432897661222967L188.55395988464355,27.763323364339925L189.15254388427735,28.82353192224369L189.75112788391112,28.870528446752644L190.34971188354493,29.782422277025006L190.9482958831787,30.034991269854743L191.5468798828125,29.597404055319288L192.1454638824463,30.807676252398295L192.74404788208008,30.06101504484542L193.34263188171388,30.49671423588066L193.94121588134766,28.990741919367878L194.53979988098146,27.20346261389321L195.13838388061524,28.782182777309316L195.73696788024904,30.3185434855923L196.33555187988281,31.53492721589572L196.93413587951662,33.73758197987809L197.5327198791504,32.9972217022339L198.1313038787842,31.669309620080412L198.72988787841797,33.523644117055255L199.32847187805177,33.45798759477353L199.92705587768555,33.418593681404474" fill="none"></path></g></g></g></g><g opacity="0.2"><g><g><g><path style="fill: none;" stroke="rgb(255, 112, 67)" stroke-width="2px" d="M29.929199981689454,120.2562128381241L30.52778398132324,120.2562128381241L31.12636798095703,120.2562128381241L31.72495198059082,117.31056228641503L32.32353598022461,115.83773701056052L32.9221199798584,104.05513105345308L33.52070397949219,110.68284291966282L34.11928797912598,104.79154181624472L34.71787197875977,121.72903811397862L35.316455978393556,136.45729462279513L35.915039978027345,127.62033921739672L36.51362397766113,113.62849347137185L37.11220797729492,105.52795257903635L37.71079197692871,115.83773701056052L38.3093759765625,110.68284291966282L38.90795997619629,104.05513105345308L39.50654397583008,105.52795257903635L40.10512797546387,99.63665147561825L40.70371197509766,104.05513105345308L41.30229597473145,115.83773701056052L41.90087997436524,87.85404926878206L42.49946397399902,106.26437084237048L43.09804797363281,111.41926118299695L43.6966319732666,80.4899191392382L44.29521597290039,104.05513105345308L44.893799972534175,99.63665147561825L45.492383972167964,79.75350837644655L46.09096797180176,101.10948050174403L46.68955197143555,97.42741168670084L47.28813597106934,89.32687079436535L47.886719970703126,118.04697304920668L48.485303970336915,98.16382995003498L49.083887969970704,102.5823020273273L49.68247196960449,73.86220727302845L50.28105596923828,63.55242659177553L50.87963996887208,90.06328905769946L51.47822396850586,80.4899191392382L52.07680796813965,93.00893960940853L52.675391967773436,99.63665147561825L53.273975967407225,101.84589126453567L53.87255996704101,94.4817611349918L54.4711439666748,84.90839871707301L55.06972796630859,79.01709761365491L55.66831196594238,95.21817939832593L56.266895965576175,70.91655672131941L56.865479965209964,76.80785782473751L57.46406396484375,89.32687079436535L58.06264796447754,74.59861803582008L58.66123196411133,84.90839871707301L59.25981596374512,75.33502879861173L59.85839996337891,90.79969982049111L60.456983963012696,63.55242659177553L61.05556796264648,56.18829646223166L61.65415196228027,76.07144706194588L62.25273596191406,62.07959756564976L62.85131996154785,65.76166638069294L63.44990396118164,76.80785782473751L64.04848796081542,77.54426858752915L64.64707196044922,54.71547493664839L65.24565596008301,65.76166638069294L65.8442399597168,88.5904600315737L66.44282395935059,70.18013845798528L67.04140795898438,65.02524811735881L67.63999195861817,88.5904600315737L68.23857595825196,54.71547493664839L68.83715995788575,87.85404926878206L69.43574395751953,52.50623514773096L70.03432795715332,70.18013845798528L70.63291195678711,50.296987858271066L71.2314959564209,52.50623514773096L71.83007995605469,78.28067935032078L72.42866395568848,61.34318680285813L73.02724795532227,60.60677604006649L73.62583195495606,85.64480947986466L74.22441595458984,67.97090616961036L74.82299995422363,53.242645910522626L75.42158395385742,57.66112548835743L76.02016795349121,51.033406121605196L76.618751953125,42.93286522926971L77.21733595275879,66.49807714348458L77.81591995239258,65.02524811735881L78.41450395202637,41.46004370368641L79.01308795166015,58.39753625114909L79.61167195129394,57.66112548835743L80.21025595092775,54.71547493664839L80.80883995056153,67.23448790627621L81.40742395019532,42.93286522926971L82.00600794982911,54.71547493664839L82.6045919494629,46.614926543770395L83.20317594909669,56.18829646223166L83.80175994873048,31.150263022433506L84.40034394836425,42.196446965935564L84.99892794799804,46.614926543770395L85.59751194763183,42.93286522926971L86.19609594726562,52.50623514773096L86.79467994689941,39.250803914768994L87.3932639465332,56.9247072250233L87.99184794616698,48.82416633268781L88.59043194580077,50.296987858271066L89.18901594543456,55.45188569944003L89.78759994506835,53.242645910522626L90.38618394470214,58.39753625114909L90.98476794433593,46.614926543770395L91.58335194396973,45.87852328152124L92.18193594360352,48.087763070438655L92.78051994323731,58.39753625114909L93.3791039428711,43.669283492603824L93.97768794250489,45.87852328152124L94.57627194213867,38.51438565143488L95.17485594177246,43.669283492603824L95.77343994140625,43.669283492603824L96.37202394104004,52.50623514773096L96.97060794067383,57.66112548835743L97.56919194030762,53.97905667331426L98.16777593994141,42.196446965935564L98.7663599395752,42.93286522926971L99.36494393920898,50.296987858271066L99.96352793884277,51.76982438493934L100.56211193847656,43.669283492603824L101.16069593811036,44.40568675485298L101.75927993774415,54.71547493664839L102.35786393737794,57.66112548835743L102.95644793701172,51.76982438493934L103.5550319366455,39.98722217810314L104.1536159362793,40.723625440352265L104.75219993591308,41.46004370368641L105.35078393554687,45.142105018187095L105.94936793518066,44.40568675485298L106.54795193481445,51.033406121605196L107.14653593444824,47.35134480710454L107.74511993408203,37.77798238918575L108.34370393371582,47.35134480710454L108.9422879333496,47.35134480710454L109.54087193298339,49.560584596021926L110.13945593261718,39.98722217810314L110.73803993225097,52.50623514773096L111.33662393188476,46.614926543770395L111.93520793151855,39.250803914768994L112.53379193115235,37.77798238918575L113.13237593078614,48.82416633268781L113.73095993041993,43.669283492603824L114.32954393005372,37.77798238918575L114.9281279296875,40.723625440352265L115.5267119293213,44.40568675485298L116.12529592895508,39.98722217810314L116.72387992858887,40.723625440352265L117.32246392822266,42.196446965935564L117.92104792785645,34.09590607360005L118.51963192749024,45.142105018187095L119.11821592712403,43.669283492603824L119.71679992675782,35.56874260026831L120.3153839263916,48.82416633268781L120.91396792602539,45.142105018187095L121.51255192565918,45.142105018187095L122.11113592529296,42.196446965935564L122.70971992492674,45.142105018187095L123.30830392456053,46.614926543770395L123.90688792419434,41.46004370368641L124.50547192382813,40.723625440352265L125.10405592346191,42.196446965935564L125.7026399230957,45.87852328152124L126.30122392272949,34.09590607360005L126.89980792236328,38.51438565143488L127.49839192199707,40.723625440352265L128.09697592163084,31.150263022433506L128.69555992126465,42.93286522926971L129.29414392089845,38.51438565143488L129.89272792053222,38.51438565143488L130.49131192016603,37.77798238918575L131.0898959197998,34.09590607360005L131.6884799194336,41.46004370368641L132.28706391906738,36.30514586251746L132.88564791870118,34.83232433693419L133.48423191833496,38.51438565143488L134.08281591796876,37.77798238918575L134.68139991760253,34.09590607360005L135.27998391723634,41.46004370368641L135.8785679168701,39.98722217810314L136.4771519165039,39.98722217810314L137.0757359161377,40.723625440352265L137.6743199157715,37.77798238918575L138.2729039154053,35.56874260026831L138.87148791503907,45.142105018187095L139.47007191467287,36.30514586251746L140.06865591430665,38.51438565143488L140.66723991394042,47.35134480710454L141.26582391357422,42.196446965935564L141.864407913208,36.30514586251746L142.4629919128418,35.56874260026831L143.06157591247558,38.51438565143488L143.66015991210938,32.62308454801678L144.25874391174315,31.150263022433506L144.85732791137696,37.04156412585161L145.45591191101073,37.04156412585161L146.05449591064453,33.35950281135092L146.6530799102783,31.88668128576765L147.2516639099121,34.09590607360005L147.85024790954589,36.30514586251746L148.4488319091797,44.40568675485298L149.04741590881346,39.98722217810314L149.64599990844727,35.56874260026831L150.24458390808107,37.77798238918575L150.84316790771484,34.09590607360005L151.44175190734865,39.98722217810314L152.04033590698242,32.62308454801678L152.63891990661622,33.35950281135092L153.23750390625,32.62308454801678L153.8360879058838,39.98722217810314L154.43467190551758,36.30514586251746L155.03325590515138,43.669283492603824L155.63183990478515,44.40568675485298L156.23042390441896,34.83232433693419L156.82900790405273,33.35950281135092L157.42759190368653,37.77798238918575L158.0261759033203,32.62308454801678L158.6247599029541,27.46820170793282L159.22334390258789,34.83232433693419L159.8219279022217,34.09590607360005L160.4205119018555,33.35950281135092L161.01909590148927,37.04156412585161L161.61767990112307,31.88668128576765L162.21626390075684,37.04156412585161L162.81484790039065,36.30514586251746L163.41343190002442,36.30514586251746L164.01201589965822,33.35950281135092L164.610599899292,33.35950281135092L165.2091838989258,31.88668128576765L165.80776789855958,31.150263022433506L166.40635189819338,37.04156412585161L167.00493589782715,43.669283492603824L167.60351989746096,36.30514586251746L168.20210389709473,30.413844759099362L168.8006878967285,36.30514586251746L169.39927189636228,37.04156412585161L169.99785589599608,37.04156412585161L170.59643989562986,40.723625440352265L171.19502389526366,34.83232433693419L171.79360789489743,34.83232433693419L172.39219189453124,37.04156412585161L172.99077589416504,38.51438565143488L173.58935989379881,34.09590607360005L174.18794389343262,25.258961919015405L174.7865278930664,30.413844759099362L175.3851118927002,27.46820170793282L175.98369589233397,28.94102323351609L176.58227989196777,31.150263022433506L177.18086389160155,29.677441496850207L177.77944789123535,24.52254365568129L178.37803189086912,23.04972213009799L178.97661589050293,27.46820170793282L179.5751998901367,27.46820170793282L180.1737838897705,28.94102323351609L180.77236788940428,28.204604970181947L181.37095188903808,32.62308454801678L181.96953588867186,30.413844759099362L182.56811988830566,29.677441496850207L183.16670388793946,28.204604970181947L183.76528788757324,24.52254365568129L184.36387188720704,23.786140393432134L184.96245588684081,27.46820170793282L185.56103988647462,28.94102323351609L186.1596238861084,31.88668128576765L186.7582078857422,35.56874260026831L187.35679188537597,23.04972213009799L187.95537588500977,31.150263022433506L188.55395988464355,25.258961919015405L189.15254388427735,30.413844759099362L189.75112788391112,28.94102323351609L190.34971188354493,31.150263022433506L190.9482958831787,30.413844759099362L191.5468798828125,28.94102323351609L192.1454638824463,32.62308454801678L192.74404788208008,28.94102323351609L193.34263188171388,31.150263022433506L193.94121588134766,26.731783444598676L194.53979988098146,24.52254365568129L195.13838388061524,31.150263022433506L195.73696788024904,32.62308454801678L196.33555187988281,33.35950281135092L196.93413587951662,37.04156412585161L197.5327198791504,31.88668128576765L198.1313038787842,29.677441496850207L198.72988787841797,36.30514586251746L199.32847187805177,33.35950281135092L199.92705587768555,33.35950281135092" fill="none"></path></g></g></g></g></g></g><g transform="translate(30, 176)" clip-path="url(#clip_1)"><clipPath id="clip_1"><rect width="299" height="23"></rect></clipPath><g><g><line x1="0" y1="0" x2="0" y2="5" style="visibility: inherit;" fill="rgb(0, 0, 0)" stroke="rgb(204, 204, 204)" stroke-width="1px"></line><line x1="29.929199981689454" y1="0" x2="29.929199981689454" y2="5" style="visibility: inherit;" fill="rgb(0, 0, 0)" stroke="rgb(204, 204, 204)" stroke-width="1px"></line><line x1="59.85839996337891" y1="0" x2="59.85839996337891" y2="5" style="visibility: inherit;" fill="rgb(0, 0, 0)" stroke="rgb(204, 204, 204)" stroke-width="1px"></line><line x1="89.78759994506835" y1="0" x2="89.78759994506835" y2="5" style="visibility: inherit;" fill="rgb(0, 0, 0)" stroke="rgb(204, 204, 204)" stroke-width="1px"></line><line x1="119.71679992675782" y1="0" x2="119.71679992675782" y2="5" style="visibility: inherit;" fill="rgb(0, 0, 0)" stroke="rgb(204, 204, 204)" stroke-width="1px"></line><line x1="149.64599990844727" y1="0" x2="149.64599990844727" y2="5" style="visibility: inherit;" fill="rgb(0, 0, 0)" stroke="rgb(204, 204, 204)" stroke-width="1px"></line><line x1="179.5751998901367" y1="0" x2="179.5751998901367" y2="5" style="visibility: inherit;" fill="rgb(0, 0, 0)" stroke="rgb(204, 204, 204)" stroke-width="1px"></line><line x1="209.50439987182617" y1="0" x2="209.50439987182617" y2="5" style="visibility: inherit;" fill="rgb(0, 0, 0)" stroke="rgb(204, 204, 204)" stroke-width="1px"></line><line x1="239.43359985351563" y1="0" x2="239.43359985351563" y2="5" style="visibility: inherit;" fill="rgb(0, 0, 0)" stroke="rgb(204, 204, 204)" stroke-width="1px"></line><line x1="269.36279983520507" y1="0" x2="269.36279983520507" y2="5" style="visibility: inherit;" fill="rgb(0, 0, 0)" stroke="rgb(204, 204, 204)" stroke-width="1px"></line><line x1="299.29199981689453" y1="0" x2="299.29199981689453" y2="5" style="visibility: inherit;" fill="rgb(0, 0, 0)" stroke="rgb(204, 204, 204)" stroke-width="1px"></line></g><g transform="translate(0, 8)"><text style="text-anchor: middle; visibility: hidden; font-family: &quot;Helvetica Neue&quot;, sans-serif; font-size: 12px; font-weight: 200;" x="0" y="0" dx="0em" dy="0.95em" fill="rgb(33, 33, 33)" stroke="none" stroke-width="1px">-50</text><text style="text-anchor: middle; visibility: inherit; font-family: &quot;Helvetica Neue&quot;, sans-serif; font-size: 12px; font-weight: 200;" x="29.929199981689454" y="0" dx="0em" dy="0.95em" fill="rgb(33, 33, 33)" stroke="none" stroke-width="1px">0</text><text style="text-anchor: middle; visibility: inherit; font-family: &quot;Helvetica Neue&quot;, sans-serif; font-size: 12px; font-weight: 200;" x="59.85839996337891" y="0" dx="0em" dy="0.95em" fill="rgb(33, 33, 33)" stroke="none" stroke-width="1px">50</text><text style="text-anchor: middle; visibility: inherit; font-family: &quot;Helvetica Neue&quot;, sans-serif; font-size: 12px; font-weight: 200;" x="89.78759994506835" y="0" dx="0em" dy="0.95em" fill="rgb(33, 33, 33)" stroke="none" stroke-width="1px">100</text><text style="text-anchor: middle; visibility: inherit; font-family: &quot;Helvetica Neue&quot;, sans-serif; font-size: 12px; font-weight: 200;" x="119.71679992675782" y="0" dx="0em" dy="0.95em" fill="rgb(33, 33, 33)" stroke="none" stroke-width="1px">150</text><text style="text-anchor: middle; visibility: inherit; font-family: &quot;Helvetica Neue&quot;, sans-serif; font-size: 12px; font-weight: 200;" x="149.64599990844727" y="0" dx="0em" dy="0.95em" fill="rgb(33, 33, 33)" stroke="none" stroke-width="1px">200</text><text style="text-anchor: middle; visibility: inherit; font-family: &quot;Helvetica Neue&quot;, sans-serif; font-size: 12px; font-weight: 200;" x="179.5751998901367" y="0" dx="0em" dy="0.95em" fill="rgb(33, 33, 33)" stroke="none" stroke-width="1px">250</text><text style="text-anchor: middle; visibility: inherit; font-family: &quot;Helvetica Neue&quot;, sans-serif; font-size: 12px; font-weight: 200;" x="209.50439987182617" y="0" dx="0em" dy="0.95em" fill="rgb(33, 33, 33)" stroke="none" stroke-width="1px">300</text><text style="text-anchor: middle; visibility: inherit; font-family: &quot;Helvetica Neue&quot;, sans-serif; font-size: 12px; font-weight: 200;" x="239.43359985351563" y="0" dx="0em" dy="0.95em" fill="rgb(33, 33, 33)" stroke="none" stroke-width="1px">350</text><text style="text-anchor: middle; visibility: inherit; font-family: &quot;Helvetica Neue&quot;, sans-serif; font-size: 12px; font-weight: 200;" x="269.36279983520507" y="0" dx="0em" dy="0.95em" fill="rgb(33, 33, 33)" stroke="none" stroke-width="1px">400</text><text style="text-anchor: middle; visibility: hidden; font-family: &quot;Helvetica Neue&quot;, sans-serif; font-size: 12px; font-weight: 200;" x="299.29199981689453" y="0" dx="0em" dy="0.95em" fill="rgb(33, 33, 33)" stroke="none" stroke-width="1px">450</text></g><line x1="0" y1="0" x2="299.29199981689453" y2="0" fill="rgb(0, 0, 0)" stroke="rgb(204, 204, 204)" stroke-width="1px"></line></g></g></g></g></svg>