<svg viewBox="0 0 330 200" xmlns="http://www.w3.org/2000/svg"><g><g><g><g><g><line x1="30.70800018310547" y1="176.95999908447266" x2="25.70800018310547" y2="176.95999908447266" style="visibility: inherit;" fill="rgb(0, 0, 0)" stroke="rgb(204, 204, 204)" stroke-width="1px"></line><line x1="30.70800018310547" y1="157.2977769639757" x2="25.70800018310547" y2="157.2977769639757" style="visibility: inherit;" fill="rgb(0, 0, 0)" stroke="rgb(204, 204, 204)" stroke-width="1px"></line><line x1="30.70800018310547" y1="137.63555484347873" x2="25.70800018310547" y2="137.63555484347873" style="visibility: inherit;" fill="rgb(0, 0, 0)" stroke="rgb(204, 204, 204)" stroke-width="1px"></line><line x1="30.70800018310547" y1="117.97333272298178" x2="25.70800018310547" y2="117.97333272298178" style="visibility: inherit;" fill="rgb(0, 0, 0)" stroke="rgb(204, 204, 204)" stroke-width="1px"></line><line x1="30.70800018310547" y1="98.31111060248482" x2="25.70800018310547" y2="98.31111060248482" style="visibility: inherit;" fill="rgb(0, 0, 0)" stroke="rgb(204, 204, 204)" stroke-width="1px"></line><line x1="30.70800018310547" y1="78.64888848198784" x2="25.70800018310547" y2="78.64888848198784" style="visibility: inherit;" fill="rgb(0, 0, 0)" stroke="rgb(204, 204, 204)" stroke-width="1px"></line><line x1="30.70800018310547" y1="58.98666636149089" x2="25.70800018310547" y2="58.98666636149089" style="visibility: inherit;" fill="rgb(0, 0, 0)" stroke="rgb(204, 204, 204)" stroke-width="1px"></line><line x1="30.70800018310547" y1="39.32444424099393" x2="25.70800018310547" y2="39.32444424099393" style="visibility: inherit;" fill="rgb(0, 0, 0)" stroke="rgb(204, 204, 204)" stroke-width="1px"></line><line x1="30.70800018310547" y1="19.662222120496978" x2="25.70800018310547" y2="19.662222120496978" style="visibility: inherit;" fill="rgb(0, 0, 0)" stroke="rgb(204, 204, 204)" stroke-width="1px"></line><line x1="30.70800018310547" y1="0" x2="25.70800018310547" y2="0" style="visibility: inherit;" fill="rgb(0, 0, 0)" stroke="rgb(204, 204, 204)" stroke-width="1px"></line></g><g transform="translate(20.70800018310547, 0)"><text style="text-anchor: end; visibility: hidden; font-family: &quot;Helvetica Neue&quot;, sans-serif; font-size: 12px; font-weight: 200;" x="0" y="176.95999908447266" dx="0em" dy="0.3em" fill="rgb(33, 33, 33)" stroke="none" stroke-width="1px">0</text><text style="text-anchor: end; visibility: inherit; font-family: &quot;Helvetica Neue&quot;, sans-serif; font-size: 12px; font-weight: 200;" x="0" y="157.2977769639757" dx="0em" dy="0.3em" fill="rgb(33, 33, 33)" stroke="none" stroke-width="1px">10</text><text style="text-anchor: end; visibility: hidden; font-family: &quot;Helvetica Neue&quot;, sans-serif; font-size: 12px; font-weight: 200;" x="0" y="137.63555484347873" dx="0em" dy="0.3em" fill="rgb(33, 33, 33)" stroke="none" stroke-width="1px">20</text><text style="text-anchor: end; visibility: inherit; font-family: &quot;Helvetica Neue&quot;, sans-serif; font-size: 12px; font-weight: 200;" x="0" y="117.97333272298178" dx="0em" dy="0.3em" fill="rgb(33, 33, 33)" stroke="none" stroke-width="1px">30</text><text style="text-anchor: end; visibility: hidden; font-family: &quot;Helvetica Neue&quot;, sans-serif; font-size: 12px; font-weight: 200;" x="0" y="98.31111060248482" dx="0em" dy="0.3em" fill="rgb(33, 33, 33)" stroke="none" stroke-width="1px">40</text><text style="text-anchor: end; visibility: inherit; font-family: &quot;Helvetica Neue&quot;, sans-serif; font-size: 12px; font-weight: 200;" x="0" y="78.64888848198784" dx="0em" dy="0.3em" fill="rgb(33, 33, 33)" stroke="none" stroke-width="1px">50</text><text style="text-anchor: end; visibility: hidden; font-family: &quot;Helvetica Neue&quot;, sans-serif; font-size: 12px; font-weight: 200;" x="0" y="58.98666636149089" dx="0em" dy="0.3em" fill="rgb(33, 33, 33)" stroke="none" stroke-width="1px">60</text><text style="text-anchor: end; visibility: inherit; font-family: &quot;Helvetica Neue&quot;, sans-serif; font-size: 12px; font-weight: 200;" x="0" y="39.32444424099393" dx="0em" dy="0.3em" fill="rgb(33, 33, 33)" stroke="none" stroke-width="1px">70</text><text style="text-anchor: end; visibility: hidden; font-family: &quot;Helvetica Neue&quot;, sans-serif; font-size: 12px; font-weight: 200;" x="0" y="19.662222120496978" dx="0em" dy="0.3em" fill="rgb(33, 33, 33)" stroke="none" stroke-width="1px">80</text><text style="text-anchor: end; visibility: hidden; font-family: &quot;Helvetica Neue&quot;, sans-serif; font-size: 12px; font-weight: 200;" x="0" y="0" dx="0em" dy="0.3em" fill="rgb(33, 33, 33)" stroke="none" stroke-width="1px">90</text></g><line x1="30.70800018310547" y1="0" x2="30.70800018310547" y2="176.95999908447266" fill="rgb(0, 0, 0)" stroke="rgb(204, 204, 204)" stroke-width="1px"></line></g></g><g transform="translate(30, 0)" clip-path="url(#clip_0)"><clipPath id="clip_0"><rect width="299" height="176"></rect></clipPath><g><g><g><line x1="0" y1="0" x2="0" y2="176.95999908447266" fill="rgb(0, 0, 0)" stroke="rgb(66, 66, 66)" stroke-width="1px" opacity="0.25"></line><line x1="29.929199981689454" y1="0" x2="29.929199981689454" y2="176.95999908447266" fill="rgb(0, 0, 0)" stroke="rgb(66, 66, 66)" stroke-width="1px" opacity="0.25"></line><line x1="59.85839996337891" y1="0" x2="59.85839996337891" y2="176.95999908447266" fill="rgb(0, 0, 0)" stroke="rgb(66, 66, 66)" stroke-width="1px" opacity="0.25"></line><line x1="89.78759994506835" y1="0" x2="89.78759994506835" y2="176.95999908447266" fill="rgb(0, 0, 0)" stroke="rgb(66, 66, 66)" stroke-width="1px" opacity="0.25"></line><line x1="119.71679992675782" y1="0" x2="119.71679992675782" y2="176.95999908447266" fill="rgb(0, 0, 0)" stroke="rgb(66, 66, 66)" stroke-width="1px" opacity="0.25"></line><line x1="149.64599990844727" y1="0" x2="149.64599990844727" y2="176.95999908447266" fill="rgb(0, 0, 0)" stroke="rgb(66, 66, 66)" stroke-width="1px" opacity="0.25"></line><line x1="179.5751998901367" y1="0" x2="179.5751998901367" y2="176.95999908447266" fill="rgb(0, 0, 0)" stroke="rgb(66, 66, 66)" stroke-width="1px" opacity="0.25"></line><line x1="209.50439987182617" y1="0" x2="209.50439987182617" y2="176.95999908447266" fill="rgb(0, 0, 0)" stroke="rgb(66, 66, 66)" stroke-width="1px" opacity="0.25"></line><line x1="239.43359985351563" y1="0" x2="239.43359985351563" y2="176.95999908447266" fill="rgb(0, 0, 0)" stroke="rgb(66, 66, 66)" stroke-width="1px" opacity="0.25"></line><line x1="269.36279983520507" y1="0" x2="269.36279983520507" y2="176.95999908447266" fill="rgb(0, 0, 0)" stroke="rgb(66, 66, 66)" stroke-width="1px" opacity="0.25"></line><line x1="299.29199981689453" y1="0" x2="299.29199981689453" y2="176.95999908447266" fill="rgb(0, 0, 0)" stroke="rgb(66, 66, 66)" stroke-width="1px" opacity="0.25"></line></g><g><line x1="0" y1="176.95999908447266" x2="299.29199981689453" y2="176.95999908447266" fill="rgb(0, 0, 0)" stroke="rgb(66, 66, 66)" stroke-width="1px" opacity="0.25"></line><line x1="0" y1="157.2977769639757" x2="299.29199981689453" y2="157.2977769639757" fill="rgb(0, 0, 0)" stroke="rgb(66, 66, 66)" stroke-width="1px" opacity="0.25"></line><line x1="0" y1="137.63555484347873" x2="299.29199981689453" y2="137.63555484347873" fill="rgb(0, 0, 0)" stroke="rgb(66, 66, 66)" stroke-width="1px" opacity="0.25"></line><line x1="0" y1="117.97333272298178" x2="299.29199981689453" y2="117.97333272298178" fill="rgb(0, 0, 0)" stroke="rgb(66, 66, 66)" stroke-width="1px" opacity="0.25"></line><line x1="0" y1="98.31111060248482" x2="299.29199981689453" y2="98.31111060248482" fill="rgb(0, 0, 0)" stroke="rgb(66, 66, 66)" stroke-width="1px" opacity="0.25"></line><line x1="0" y1="78.64888848198784" x2="299.29199981689453" y2="78.64888848198784" fill="rgb(0, 0, 0)" stroke="rgb(66, 66, 66)" stroke-width="1px" opacity="0.25"></line><line x1="0" y1="58.98666636149089" x2="299.29199981689453" y2="58.98666636149089" fill="rgb(0, 0, 0)" stroke="rgb(66, 66, 66)" stroke-width="1px" opacity="0.25"></line><line x1="0" y1="39.32444424099393" x2="299.29199981689453" y2="39.32444424099393" fill="rgb(0, 0, 0)" stroke="rgb(66, 66, 66)" stroke-width="1px" opacity="0.25"></line><line x1="0" y1="19.662222120496978" x2="299.29199981689453" y2="19.662222120496978" fill="rgb(0, 0, 0)" stroke="rgb(66, 66, 66)" stroke-width="1px" opacity="0.25"></line><line x1="0" y1="0" x2="299.29199981689453" y2="0" fill="rgb(0, 0, 0)" stroke="rgb(66, 66, 66)" stroke-width="1px" opacity="0.25"></line></g></g></g><g><g><line x1="0" y1="176.95999908447266" x2="299.29199981689453" y2="176.95999908447266" fill="rgb(0, 0, 0)" stroke="rgb(153, 153, 153)" stroke-width="1.5px"></line></g></g><g><g><line x1="29.929199981689454" y1="0" x2="29.929199981689454" y2="176.95999908447266" fill="rgb(0, 0, 0)" stroke="rgb(153, 153, 153)" stroke-width="1.5px"></line></g></g><g><g><g><g><g><path style="fill: none;" stroke="rgb(187, 187, 187)" stroke-width="2px" d="M29.929199981689454,155.11308645064742L30.52778398132324,131.9007403708564L31.12636798095703,124.79492014234893L31.72495198059082,121.32533427811778L32.32353598022461,124.92512877108119L32.9221199798584,117.42510522647052L33.52070397949219,110.75803947886688L34.11928797912598,105.99048234424319L34.71787197875977,111.71519057026043L35.316455978393556,107.78626320407989L35.915039978027345,103.98240186649477L36.51362397766113,106.67170555326871L37.11220797729492,105.94815117671747L37.71079197692871,102.59941967320243L38.3093759765625,104.38043827444419L38.90795997619629,100.78652604981934L39.50654397583008,98.33948432617531L40.10512797546387,98.32813368392837L40.70371197509766,96.57346511825024L41.30229597473145,96.10333884968007L41.90087997436524,94.65607825469525L42.49946397399902,92.6225596069669L43.09804797363281,89.94599270389988L43.6966319732666,82.22290066722609L44.29521597290039,85.74527197095027L44.893799972534175,86.11093295206993L45.492383972167964,84.29128057534317L46.09096797180176,84.36466133068623L46.68955197143555,90.5258284464878L47.28813597106934,91.30960393453643L47.886719970703126,100.80992793626766L48.485303970336915,96.31489582368489L49.083887969970704,90.4136598789132L49.68247196960449,87.455503646051L50.28105596923828,84.51544266684388L50.87963996887208,89.74241882664207L51.47822396850586,91.7134342068859L52.07680796813965,89.40053859292082L52.675391967773436,80.73049450235796L53.273975967407225,75.23717699162175L53.87255996704101,75.14540024540338L54.4711439666748,71.30353530598349L55.06972796630859,70.74617175489907L55.66831196594238,76.52888706273033L56.266895965576175,80.28981031540664L56.865479965209964,73.51630514408053L57.46406396484375,73.82158606859225L58.06264796447754,70.80054087026623L58.66123196411133,69.2792048196894L59.25981596374512,71.27932587396232L59.85839996337891,71.02293716421748L60.456983963012696,76.69494630733605L61.05556796264648,76.89393804023724L61.65415196228027,71.47878177939565L62.25273596191406,71.14261070747853L62.85131996154785,67.44540024278483L63.44990396118164,69.88774905921554L64.04848796081542,69.89670000699923L64.64707196044922,67.57173302804675L65.24565596008301,66.1767528406754L65.8442399597168,65.92234686499549L66.44282395935059,61.6916133213024L67.04140795898438,63.23126315337174L67.63999195861817,64.73763818957322L68.23857595825196,63.89371080063145L68.83715995788575,62.51347816193511L69.43574395751953,64.01567612633978L70.03432795715332,61.712781152028796L70.63291195678711,61.2049203727735L71.2314959564209,61.482786041963166L71.83007995605469,63.68855192272807L72.42866395568848,66.7597638618496L73.02724795532227,64.52440106703743L73.62583195495606,66.67869121169237L74.22441595458984,65.05834261390297L74.82299995422363,64.96000966056063L75.42158395385742,58.201288314059184L76.02016795349121,62.01094435435711L76.618751953125,60.80123315721062L77.21733595275879,62.11445291817378L77.81591995239258,60.28075315854075L78.41450395202637,60.34570357668068L79.01308795166015,59.51079762223331L79.61167195129394,59.30114511793636L80.21025595092775,56.55372499936422L80.80883995056153,55.77914913355227L81.40742395019532,54.149233340145344L82.00600794982911,58.99712923326592L82.6045919494629,59.866820289887215L83.20317594909669,65.049310019105L83.80175994873048,61.4590852823566L84.40034394836425,59.01365637171914L84.99892794799804,61.624488983621774L85.59751194763183,61.15194507172929L86.19609594726562,66.69426109354153L86.79467994689941,64.48509940605257L87.3932639465332,62.57701725659933L87.99184794616698,62.01475310388726L88.59043194580077,62.25997974921991L89.18901594543456,61.241945462499714L89.78759994506835,63.83533864342142L90.38618394470214,64.2262072782717L90.98476794433593,63.87814332222199L91.58335194396973,65.41705735925478L92.18193594360352,66.6316998500629L92.78051994323731,65.03014779692529L93.3791039428711,63.777922496454266L93.97768794250489,63.31788138476011L94.57627194213867,65.95477940232597L95.17485594177246,64.62399552828312L95.77343994140625,64.40811034081727L96.37202394104004,64.56987029670921L96.97060794067383,62.04529765425043L97.56919194030762,61.40443027410649L98.16777593994141,57.524402024477894L98.7663599395752,56.36155534862047L99.36494393920898,55.955138411477435L99.96352793884277,57.16774959148283L100.56211193847656,56.43885495719486L101.16069593811036,57.45797951891328L101.75927993774415,55.15653157136195L102.35786393737794,56.3972944190421L102.95644793701172,55.10270564839912L103.5550319366455,56.36499886526438L104.1536159362793,56.539789658423686L104.75219993591308,55.77078792898794L105.35078393554687,55.891972028286375L105.94936793518066,57.129849761568195L106.54795193481445,56.41611505924608L107.14653593444824,61.23113447005767L107.74511993408203,58.29430074737991L108.34370393371582,57.11478565073311L108.9422879333496,58.73741414036752L109.54087193298339,56.7980685495658L110.13945593261718,55.63446119508477L110.73803993225097,56.68405219327579L111.33662393188476,59.93543540818432L111.93520793151855,58.3907605158042L112.53379193115235,58.046537717118994L113.13237593078614,56.966127832576575L113.73095993041993,59.5220956548049L114.32954393005372,59.3079239374793L114.9281279296875,58.01425363338119L115.5267119293213,56.36417224537401L116.12529592895508,55.37412341256973L116.72387992858887,52.74104763363607L117.32246392822266,52.90895757715552L117.92104792785645,51.55324520119299L118.51963192749024,52.48756718606107L119.11821592712403,52.46557824023907L119.71679992675782,53.908846215037045L120.3153839263916,54.4835129313274L120.91396792602539,54.24572782414174L121.51255192565918,53.520474623087466L122.11113592529296,51.04627622320383L122.70971992492674,51.89209473089616L123.30830392456053,52.98217097247144L123.90688792419434,53.344922648828174L124.50547192382813,52.106115312568036L125.10405592346191,51.07153984244049L125.7026399230957,53.0724231763579L126.30122392272949,51.36002749190898L126.89980792236328,50.62388715004508L127.49839192199707,50.47349401329815L128.09697592163084,50.965840267992874L128.69555992126465,51.84383315776958L129.29414392089845,51.205461617932855L129.89272792053222,49.657268420111095L130.49131192016603,48.145770364675144L131.0898959197998,48.98662394207621L131.6884799194336,49.19984502014542L132.28706391906738,52.53198841972373L132.88564791870118,51.90964584347678L133.48423191833496,51.24494922935719L134.08281591796876,50.84613126088543L134.68139991760253,52.354592890464986L135.27998391723634,53.8422550051726L135.8785679168701,54.73485227399716L136.4771519165039,57.89203925128584L137.0757359161377,60.077642506030486L137.6743199157715,59.3499609798432L138.2729039154053,58.039475858799534L138.87148791503907,56.96189071758488L139.47007191467287,54.567587222193495L140.06865591430665,59.24814156249481L140.66723991394042,58.26967527676193L141.26582391357422,58.265180642282075L141.864407913208,58.26248386159416L142.4629919128418,57.386989587850096L143.06157591247558,60.06590677655747L143.66015991210938,59.34291954215941L144.25874391174315,60.07429447522331L144.85732791137696,57.01761461373641L145.45591191101073,58.67911151816952L146.05449591064453,58.51084238712663L146.6530799102783,58.11858683991245L147.2516639099121,57.30065137484107L147.85024790954589,56.51859602720981L148.4488319091797,56.92323902396237L149.04741590881346,55.7095634797227L149.64599990844727,53.81619087947618L150.24458390808107,53.845334593031L150.84316790771484,54.736700026712214L151.44175190734865,56.145395492252234L152.04033590698242,54.66027522395376L152.63891990661622,54.64307926830601L153.23750390625,53.17630035262614L153.8360879058838,52.587524071589684L154.43467190551758,52.81684343992768L155.03325590515138,51.789267787227715L155.63183990478515,53.2117658746418L156.23042390441896,53.482679590130374L156.82900790405273,54.51910702497183L157.42759190368653,54.55837834891683L158.0261759033203,54.2906470746954L158.6247599029541,53.25613210483124L159.22334390258789,52.92671719150118L159.8219279022217,54.18552958579431L160.4205119018555,54.35823188541032L161.01909590148927,53.87926812822003L161.61767990112307,54.75706014782564L162.21626390075684,53.24468888033792L162.81484790039065,53.50243339354806L163.41343190002442,55.1135414437653L164.01201589965822,52.293407383982L164.610599899292,50.601326948112L165.2091838989258,50.168666823766884L165.80776789855958,50.200361817531245L166.40635189819338,51.38454608749261L167.00493589782715,50.92988937576666L167.60351989746096,50.657095348731104L168.20210389709473,49.91083079533291L168.8006878967285,52.375997748093354L169.39927189636228,52.981218714201304L169.99785589599608,53.34435129386608L170.59643989562986,53.270939773293506L171.19502389526366,53.518183929321424L171.79360789489743,54.83170069685788L172.39219189453124,52.70689107301443L172.99077589416504,52.59717257241108L173.58935989379881,51.074877129540894L174.18794389343262,49.870208795447326L174.7865278930664,51.18645427424228L175.3851118927002,50.8110342878165L175.98369589233397,49.420612022041254L176.58227989196777,50.33411107323873L177.18086389160155,51.75608670928855L177.77944789123535,51.15281374884424L178.37803189086912,48.75180049310961L178.97661589050293,49.93282415587977L179.5751998901367,50.35014728517042L180.1737838897705,51.47441736807612L180.77236788940428,50.9838121441168L181.37095188903808,49.52427873582144L181.96953588867186,48.065976554101354L182.56811988830566,46.89969817626388L183.16670388793946,46.491228218366814L183.76528788757324,47.702607585919765L184.36387188720704,48.720726274822965L184.96245588684081,48.16642721424515L185.56103988647462,47.251265641155555L186.1596238861084,52.819302134621L186.7582078857422,52.08203407241514L187.35679188537597,54.55259591967399L187.95537588500977,54.57847168573814L188.55395988464355,52.554953666342556L189.15254388427735,51.340842854705215L189.75112788391112,49.44720609380305L190.34971188354493,49.18489724237608L190.9482958831787,49.61010006869678L191.5468798828125,50.73909796982048L192.1454638824463,51.999078847237584L192.74404788208008,51.589900099985115L193.34263188171388,52.509560125336364L193.94121588134766,51.89618886684438L194.53979988098146,49.1978255639097L195.13838388061524,49.32656599324551L195.73696788024904,52.899315072172215L196.33555187988281,55.33425558789969L196.93413587951662,53.882297212753784L197.5327198791504,55.050168666917315L198.1313038787842,54.00313912875282L198.72988787841797,54.248797611185424L199.32847187805177,54.10489863205656L199.92705587768555,56.05760572383029L200.52563987731935,56.35535377356322L201.12422387695312,54.786250192740354L201.72280787658693,54.42737018098953L202.32139187622073,53.04687490023626L202.9199758758545,52.21857773178431L203.5185598754883,50.265138088421935L204.11714387512208,49.96695350795285L204.71572787475588,48.914163554123064L205.31431187438966,48.28248958182522L205.91289587402343,47.61219413007507L206.5114798736572,46.91872579065355L207.110063873291,47.085226923743505L207.7086478729248,49.51546515121997L208.3072318725586,48.643270540083336L208.90581587219236,51.03287645798372L209.50439987182617,50.13629946088449L210.10298387145994,49.30706219425349L210.70156787109374,53.761488998108305L211.30015187072752,51.482175916587806L211.89873587036132,51.862343478555104L212.4973198699951,52.9643202210668L213.0959038696289,54.49938247190512L213.69448786926267,54.83783468544824L214.29307186889648,53.58444467128294L214.89165586853028,58.07567089498862L215.49023986816405,59.60523635529229L216.08882386779786,57.02747081014921L216.68740786743163,57.22856389372602L217.28599186706543,56.18405247016935L217.8845758666992,55.55734561603535L218.483159866333,55.18132150355494L219.08174386596679,54.08183083073541L219.6803278656006,53.42213642704368L220.27891186523436,53.90019599015993L220.87749586486817,54.187031728029694L221.47607986450194,55.23300937608285L222.07466386413574,53.53025841729227L222.67324786376952,55.42153052660028L223.27183186340332,53.64337110760272L223.8704158630371,53.15906059316406L224.4689998626709,53.1597653528723L225.0675838623047,52.868897140325814L225.66616786193848,53.27695834954076L226.26475186157228,51.19145752744727L226.86333586120605,52.270494581813665L227.46191986083986,51.75274954073073L228.06050386047363,50.56822331053267L228.65908786010743,51.31397191492205L229.2576718597412,50.59625380385292L229.856255859375,50.456914005582874L230.45483985900879,49.208139852701095L231.0534238586426,49.33275456652032L231.65200785827636,49.407523394811875L232.25059185791017,50.90884303386099L232.84917585754394,50.64446754358771L233.44775985717774,50.77713331779516L234.04634385681152,51.14802385069109L234.64492785644532,51.079267102057216L235.24351185607912,50.16413384732857L235.8420958557129,50.4889331000397L236.4406798553467,48.3534721038269L237.03926385498048,48.23736578001896L237.63784785461428,49.0415811912825L238.23643185424805,48.06764909574943L238.83501585388186,47.19199877005818L239.43359985351563,47.831772848129134L240.03218385314943,48.215637294971714L240.6307678527832,47.57208275796296L241.229351852417,47.47724110412915L241.82793585205079,46.25516583790912L242.4265198516846,47.56097015764513L243.02510385131836,47.17928247556702L243.62368785095214,47.53285200306303L244.2222718505859,50.07533126718312L244.82085585021971,53.057280167946345L245.4194398498535,53.97257330307299L246.0180238494873,53.06528784185778L246.61660784912107,51.64704336001435L247.21519184875487,53.1264312183138L247.81377584838867,53.72277286492202L248.41235984802245,53.20670164755563L249.01094384765625,50.85801243788477L249.60952784729002,52.653012665036016L250.20811184692383,55.18647414361797L250.8066958465576,54.66750455151609L251.4052798461914,52.899664454180765L252.00386384582518,53.004127669482315L252.60244784545898,51.901638324960516L253.20103184509276,50.07497444432768L253.79961584472656,50.14414638986773L254.39819984436033,51.64210789926592L254.99678384399414,51.66700859957355L255.5953678436279,50.22548767746693L256.1939518432617,50.525745398122694L256.7925358428955,50.41460896214474L257.3911198425293,51.22180330588927L257.98970384216307,49.37578236451348L258.5882878417969,49.14204300480232L259.1868718414307,49.87567859452395L259.78545584106445,49.733277811614045L260.3840398406982,50.23041947861097L260.98262384033205,50.81999554718058L261.5812078399658,51.46503525691077L262.1797918395996,51.56076501416045L262.7783758392334,50.45303259459054L263.3769598388672,50.95356341676833L263.975543838501,51.836467047034844L264.57412783813476,53.82267056748594L265.17271183776853,54.43180754279673L265.77129583740236,54.50599865961178L266.36987983703614,53.09405198740963L266.9684638366699,54.577221531710805L267.56704783630374,53.42807677904048L268.1656318359375,52.44729885906685L268.7642158355713,50.984952901534356" fill="none"></path></g></g></g></g><g opacity="0.2"><g><g><g><path style="fill: none;" stroke="rgb(187, 187, 187)" stroke-width="2px" d="M29.929199981689454,155.11308645064742L30.52778398132324,117.97333272298178L31.12636798095703,117.97333272298178L31.72495198059082,117.24510130178193L32.32353598022461,129.62502046109424L32.9221199798584,107.04987265579791L33.52070397949219,101.22402878674167L34.11928797912598,99.03933827341339L34.71787197875977,120.15802323631004L35.316455978393556,101.95226395821275L35.915039978027345,98.31111060248482L36.51362397766113,110.69102601152586L37.11220797729492,104.86518214246964L37.71079197692871,97.58288293155621L38.3093759765625,107.04987265579791L38.90795997619629,95.39819241822795L39.50654397583008,94.66995724675685L40.10512797546387,98.31111060248482L40.70371197509766,93.94172957582826L41.30229597473145,95.39819241822795L41.90087997436524,92.48526673342859L42.49946397399902,89.5723485491717L43.09804797363281,85.93119519344376L43.6966319732666,70.63835409960333L44.29521597290039,91.0288038910289L44.893799972534175,86.65942286437235L45.492383972167964,81.56180666624472L46.09096797180176,84.47473235104408L46.68955197143555,99.76757344488449L47.28813597106934,92.48526673342859L47.886719970703126,115.06041078845365L48.485303970336915,89.5723485491717L49.083887969970704,81.56180666624472L49.68247196960449,83.0182695086444L50.28105596923828,80.10535132438753L50.87963996887208,97.58288293155621L51.47822396850586,94.66995724675685L52.07680796813965,85.93119519344376L52.675391967773436,67.72542841480397L53.273975967407225,66.99720074387538L53.87255996704101,75.00773512625989L54.4711439666748,65.54073790147571L55.06972796630859,69.91012642867476L55.66831196594238,85.20296002197266L56.266895965576175,85.93119519344376L56.865479965209964,63.356047388147445L57.46406396484375,74.2795074553313L58.06264796447754,66.2689730729468L58.66123196411133,66.99720074387538L59.25981596374512,74.2795074553313L59.85839996337891,70.63835409960333L60.456983963012696,85.20296002197266L61.05556796264648,77.19242563958817L61.65415196228027,63.356047388147445L62.25273596191406,70.63835409960333L62.85131996154785,61.89958454574776L63.44990396118164,73.55127228386021L64.04848796081542,69.91012642867476L64.64707196044922,64.08428255961852L65.24565596008301,64.08428255961852L65.8442399597168,65.54073790147571L66.44282395935059,55.34551300576294L67.04140795898438,65.54073790147571L67.63999195861817,66.99720074387538L68.23857595825196,62.62781971721884L68.83715995788575,60.443129203890564L69.43574395751953,66.2689730729468L70.03432795715332,58.2584386905623L70.63291195678711,60.443129203890564L71.2314959564209,61.89958454574776L71.83007995605469,66.99720074387538L72.42866395568848,71.36658177053194L73.02724795532227,61.17135687481915L73.62583195495606,69.91012642867476L74.22441595458984,62.62781971721884L74.82299995422363,64.81251023054712L75.42158395385742,48.06320629430704L76.02016795349121,67.72542841480397L76.618751953125,58.98666636149089L77.21733595275879,64.08428255961852L77.81591995239258,57.5302035190912L78.41450395202637,60.443129203890564L79.01308795166015,58.2584386905623L79.61167195129394,58.98666636149089L80.21025595092775,52.43259482150606L80.80883995056153,54.617285334834335L81.40742395019532,51.704359650034974L82.00600794982911,66.2689730729468L82.6045919494629,61.17135687481915L83.20317594909669,72.82304461293162L83.80175994873048,56.07374817723401L84.40034394836425,55.34551300576294L84.99892794799804,65.54073790147571L85.59751194763183,60.443129203890564L86.19609594726562,75.00773512625989L86.79467994689941,61.17135687481915L87.3932639465332,59.714894032419494L87.99184794616698,61.17135687481915L88.59043194580077,62.62781971721884L89.18901594543456,59.714894032419494L89.78759994506835,67.72542841480397L90.38618394470214,64.81251023054712L90.98476794433593,63.356047388147445L91.58335194396973,67.72542841480397L92.18193594360352,68.45366358627507L92.78051994323731,62.62781971721884L93.3791039428711,61.89958454574776L93.97768794250489,62.62781971721884L94.57627194213867,69.91012642867476L95.17485594177246,62.62781971721884L95.77343994140625,64.08428255961852L96.37202394104004,64.81251023054712L96.97060794067383,58.2584386905623L97.56919194030762,60.443129203890564L98.16777593994141,51.704359650034974L98.7663599395752,54.617285334834335L99.36494393920898,55.34551300576294L99.96352793884277,58.98666636149089L100.56211193847656,55.34551300576294L101.16069593811036,58.98666636149089L101.75927993774415,51.704359650034974L102.35786393737794,58.2584386905623L102.95644793701172,53.16082249243465L103.5550319366455,58.2584386905623L104.1536159362793,56.80197584816261L104.75219993591308,54.617285334834335L105.35078393554687,56.07374817723401L105.94936793518066,58.98666636149089L106.54795193481445,55.34551300576294L107.14653593444824,68.45366358627507L107.74511993408203,53.88905016336325L108.34370393371582,55.34551300576294L108.9422879333496,61.17135687481915L109.54087193298339,53.88905016336325L110.13945593261718,53.88905016336325L110.73803993225097,58.2584386905623L111.33662393188476,64.81251023054712L111.93520793151855,56.07374817723401L112.53379193115235,57.5302035190912L113.13237593078614,55.34551300576294L113.73095993041993,63.356047388147445L114.32954393005372,58.98666636149089L114.9281279296875,56.07374817723401L115.5267119293213,53.88905016336325L116.12529592895508,53.88905016336325L116.72387992858887,48.791433965235626L117.32246392822266,53.16082249243465L117.92104792785645,49.51967663724919L118.51963192749024,53.88905016336325L119.11821592712403,52.43259482150606L119.71679992675782,56.07374817723401L120.3153839263916,55.34551300576294L120.91396792602539,53.88905016336325L121.51255192565918,52.43259482150606L122.11113592529296,47.33497862337842L122.70971992492674,53.16082249243465L123.30830392456053,54.617285334834335L123.90688792419434,53.88905016336325L124.50547192382813,50.247904308177795L125.10405592346191,49.51967663724919L125.7026399230957,56.07374817723401L126.30122392272949,48.791433965235626L126.89980792236328,49.51967663724919L127.49839192199707,50.247904308177795L128.09697592163084,51.704359650034974L128.69555992126465,53.16082249243465L129.29414392089845,50.247904308177795L129.89272792053222,47.33497862337842L130.49131192016603,45.87852328152124L131.0898959197998,50.247904308177795L131.6884799194336,49.51967663724919L132.28706391906738,57.5302035190912L132.88564791870118,50.976131979106384L133.48423191833496,50.247904308177795L134.08281591796876,50.247904308177795L134.68139991760253,54.617285334834335L135.27998391723634,56.07374817723401L135.8785679168701,56.07374817723401L136.4771519165039,62.62781971721884L137.0757359161377,63.356047388147445L137.6743199157715,58.2584386905623L138.2729039154053,56.07374817723401L138.87148791503907,55.34551300576294L139.47007191467287,50.976131979106384L140.06865591430665,66.2689730729468L140.66723991394042,56.80197584816261L141.26582391357422,58.2584386905623L141.864407913208,58.2584386905623L142.4629919128418,56.07374817723401L143.06157591247558,64.08428255961852L143.66015991210938,58.2584386905623L144.25874391174315,61.17135687481915L144.85732791137696,52.43259482150606L145.45591191101073,61.17135687481915L146.05449591064453,58.2584386905623L146.6530799102783,57.5302035190912L147.2516639099121,56.07374817723401L147.85024790954589,55.34551300576294L148.4488319091797,57.5302035190912L149.04741590881346,53.88905016336325L149.64599990844727,50.976131979106384L150.24458390808107,53.88905016336325L150.84316790771484,56.07374817723401L151.44175190734865,58.2584386905623L152.04033590698242,52.43259482150606L152.63891990661622,54.617285334834335L153.23750390625,50.976131979106384L153.8360879058838,51.704359650034974L154.43467190551758,53.16082249243465L155.03325590515138,50.247904308177795L155.63183990478515,55.34551300576294L156.23042390441896,53.88905016336325L156.82900790405273,56.07374817723401L157.42759190368653,54.617285334834335L158.0261759033203,53.88905016336325L158.6247599029541,51.704359650034974L159.22334390258789,52.43259482150606L159.8219279022217,56.07374817723401L160.4205119018555,54.617285334834335L161.01909590148927,53.16082249243465L161.61767990112307,56.07374817723401L162.21626390075684,50.976131979106384L162.81484790039065,53.88905016336325L163.41343190002442,57.5302035190912L164.01201589965822,48.06320629430704L164.610599899292,48.06320629430704L165.2091838989258,49.51967663724919L165.80776789855958,50.247904308177795L166.40635189819338,53.16082249243465L167.00493589782715,50.247904308177795L167.60351989746096,50.247904308177795L168.20210389709473,48.791433965235626L168.8006878967285,56.07374817723401L169.39927189636228,53.88905016336325L169.99785589599608,53.88905016336325L170.59643989562986,53.16082249243465L171.19502389526366,53.88905016336325L171.79360789489743,56.80197584816261L172.39219189453124,49.51967663724919L172.99077589416504,52.43259482150606L173.58935989379881,48.791433965235626L174.18794389343262,48.06320629430704L174.7865278930664,53.16082249243465L175.3851118927002,50.247904308177795L175.98369589233397,47.33497862337842L176.58227989196777,51.704359650034974L177.18086389160155,53.88905016336325L177.77944789123535,50.247904308177795L178.37803189086912,45.15028060950766L178.97661589050293,51.704359650034974L179.5751998901367,50.976131979106384L180.1737838897705,53.16082249243465L180.77236788940428,50.247904308177795L181.37095188903808,47.33497862337842L181.96953588867186,45.87852328152124L182.56811988830566,45.15028060950766L183.16670388793946,45.87852328152124L183.76528788757324,49.51967663724919L184.36387188720704,50.247904308177795L184.96245588684081,47.33497862337842L185.56103988647462,45.87852328152124L186.1596238861084,61.17135687481915L186.7582078857422,50.976131979106384L187.35679188537597,58.2584386905623L187.95537588500977,54.617285334834335L188.55395988464355,49.51967663724919L189.15254388427735,49.51967663724919L189.75112788391112,46.60675095244983L190.34971188354493,48.791433965235626L190.9482958831787,50.247904308177795L191.5468798828125,52.43259482150606L192.1454638824463,53.88905016336325L192.74404788208008,50.976131979106384L193.34263188171388,53.88905016336325L193.94121588134766,50.976131979106384L194.53979988098146,45.15028060950766L195.13838388061524,49.51967663724919L195.73696788024904,58.2584386905623L196.33555187988281,58.98666636149089L196.93413587951662,51.704359650034974L197.5327198791504,56.80197584816261L198.1313038787842,52.43259482150606L198.72988787841797,54.617285334834335L199.32847187805177,53.88905016336325L199.92705587768555,58.98666636149089L200.52563987731935,56.80197584816261L201.12422387695312,52.43259482150606L201.72280787658693,53.88905016336325L202.32139187622073,50.976131979106384L202.9199758758545,50.976131979106384L203.5185598754883,47.33497862337842L204.11714387512208,49.51967663724919L204.71572787475588,47.33497862337842L205.31431187438966,47.33497862337842L205.91289587402343,46.60675095244983L206.5114798736572,45.87852328152124L207.110063873291,47.33497862337842L207.7086478729248,53.16082249243465L208.3072318725586,47.33497862337842L208.90581587219236,54.617285334834335L209.50439987182617,48.791433965235626L210.10298387145994,48.06320629430704L210.70156787109374,60.443129203890564L211.30015187072752,48.06320629430704L211.89873587036132,52.43259482150606L212.4973198699951,54.617285334834335L213.0959038696289,56.80197584816261L213.69448786926267,55.34551300576294L214.29307186889648,51.704359650034974L214.89165586853028,64.81251023054712L215.49023986816405,61.89958454574776L216.08882386779786,53.16082249243465L216.68740786743163,57.5302035190912L217.28599186706543,54.617285334834335L217.8845758666992,54.617285334834335L218.483159866333,54.617285334834335L219.08174386596679,52.43259482150606L219.6803278656006,52.43259482150606L220.27891186523436,54.617285334834335L220.87749586486817,54.617285334834335L221.47607986450194,56.80197584816261L222.07466386413574,50.976131979106384L222.67324786376952,58.2584386905623L223.27183186340332,50.976131979106384L223.8704158630371,52.43259482150606L224.4689998626709,53.16082249243465L225.0675838623047,52.43259482150606L225.66616786193848,53.88905016336325L226.26475186157228,48.06320629430704L226.86333586120605,53.88905016336325L227.46191986083986,50.976131979106384L228.06050386047363,48.791433965235626L228.65908786010743,52.43259482150606L229.2576718597412,49.51967663724919L229.856255859375,50.247904308177795L230.45483985900879,47.33497862337842L231.0534238586426,49.51967663724919L231.65200785827636,49.51967663724919L232.25059185791017,53.16082249243465L232.84917585754394,50.247904308177795L233.44775985717774,50.976131979106384L234.04634385681152,51.704359650034974L234.64492785644532,50.976131979106384L235.24351185607912,48.791433965235626L235.8420958557129,50.976131979106384L236.4406798553467,45.15028060950766L237.03926385498048,48.06320629430704L237.63784785461428,50.247904308177795L238.23643185424805,46.60675095244983L238.83501585388186,45.87852328152124L239.43359985351563,48.791433965235626L240.03218385314943,48.791433965235626L240.6307678527832,46.60675095244983L241.229351852417,47.33497862337842L241.82793585205079,44.42205293857907L242.4265198516846,49.51967663724919L243.02510385131836,46.60675095244983L243.62368785095214,48.06320629430704L244.2222718505859,53.88905016336325L244.82085585021971,57.5302035190912L245.4194398498535,55.34551300576294L246.0180238494873,51.704359650034974L246.61660784912107,49.51967663724919L247.21519184875487,55.34551300576294L247.81377584838867,54.617285334834335L248.41235984802245,52.43259482150606L249.01094384765625,47.33497862337842L249.60952784729002,55.34551300576294L250.20811184692383,58.98666636149089L250.8066958465576,53.88905016336325L251.4052798461914,50.247904308177795L252.00386384582518,53.16082249243465L252.60244784545898,50.247904308177795L253.20103184509276,47.33497862337842L253.79961584472656,50.247904308177795L254.39819984436033,53.88905016336325L254.99678384399414,51.704359650034974L255.5953678436279,48.06320629430704L256.1939518432617,50.976131979106384L256.7925358428955,50.247904308177795L257.3911198425293,52.43259482150606L257.98970384216307,46.60675095244983L258.5882878417969,48.791433965235626L259.1868718414307,50.976131979106384L259.78545584106445,49.51967663724919L260.3840398406982,50.976131979106384L260.98262384033205,51.704359650034974L261.5812078399658,52.43259482150606L262.1797918395996,51.704359650034974L262.7783758392334,48.791433965235626L263.3769598388672,51.704359650034974L263.975543838501,53.16082249243465L264.57412783813476,56.80197584816261L265.17271183776853,55.34551300576294L265.77129583740236,54.617285334834335L266.36987983703614,50.976131979106384L266.9684638366699,56.80197584816261L267.56704783630374,51.704359650034974L268.1656318359375,50.976131979106384L268.7642158355713,48.791433965235626" fill="none"></path></g></g></g></g></g></g><g transform="translate(30, 176)" clip-path="url(#clip_1)"><clipPath id="clip_1"><rect width="299" height="23"></rect></clipPath><g><g><line x1="0" y1="0" x2="0" y2="5" style="visibility: inherit;" fill="rgb(0, 0, 0)" stroke="rgb(204, 204, 204)" stroke-width="1px"></line><line x1="29.929199981689454" y1="0" x2="29.929199981689454" y2="5" style="visibility: inherit;" fill="rgb(0, 0, 0)" stroke="rgb(204, 204, 204)" stroke-width="1px"></line><line x1="59.85839996337891" y1="0" x2="59.85839996337891" y2="5" style="visibility: inherit;" fill="rgb(0, 0, 0)" stroke="rgb(204, 204, 204)" stroke-width="1px"></line><line x1="89.78759994506835" y1="0" x2="89.78759994506835" y2="5" style="visibility: inherit;" fill="rgb(0, 0, 0)" stroke="rgb(204, 204, 204)" stroke-width="1px"></line><line x1="119.71679992675782" y1="0" x2="119.71679992675782" y2="5" style="visibility: inherit;" fill="rgb(0, 0, 0)" stroke="rgb(204, 204, 204)" stroke-width="1px"></line><line x1="149.64599990844727" y1="0" x2="149.64599990844727" y2="5" style="visibility: inherit;" fill="rgb(0, 0, 0)" stroke="rgb(204, 204, 204)" stroke-width="1px"></line><line x1="179.5751998901367" y1="0" x2="179.5751998901367" y2="5" style="visibility: inherit;" fill="rgb(0, 0, 0)" stroke="rgb(204, 204, 204)" stroke-width="1px"></line><line x1="209.50439987182617" y1="0" x2="209.50439987182617" y2="5" style="visibility: inherit;" fill="rgb(0, 0, 0)" stroke="rgb(204, 204, 204)" stroke-width="1px"></line><line x1="239.43359985351563" y1="0" x2="239.43359985351563" y2="5" style="visibility: inherit;" fill="rgb(0, 0, 0)" stroke="rgb(204, 204, 204)" stroke-width="1px"></line><line x1="269.36279983520507" y1="0" x2="269.36279983520507" y2="5" style="visibility: inherit;" fill="rgb(0, 0, 0)" stroke="rgb(204, 204, 204)" stroke-width="1px"></line><line x1="299.29199981689453" y1="0" x2="299.29199981689453" y2="5" style="visibility: inherit;" fill="rgb(0, 0, 0)" stroke="rgb(204, 204, 204)" stroke-width="1px"></line></g><g transform="translate(0, 8)"><text style="text-anchor: middle; visibility: hidden; font-family: &quot;Helvetica Neue&quot;, sans-serif; font-size: 12px; font-weight: 200;" x="0" y="0" dx="0em" dy="0.95em" fill="rgb(33, 33, 33)" stroke="none" stroke-width="1px">-50</text><text style="text-anchor: middle; visibility: inherit; font-family: &quot;Helvetica Neue&quot;, sans-serif; font-size: 12px; font-weight: 200;" x="29.929199981689454" y="0" dx="0em" dy="0.95em" fill="rgb(33, 33, 33)" stroke="none" stroke-width="1px">0</text><text style="text-anchor: middle; visibility: inherit; font-family: &quot;Helvetica Neue&quot;, sans-serif; font-size: 12px; font-weight: 200;" x="59.85839996337891" y="0" dx="0em" dy="0.95em" fill="rgb(33, 33, 33)" stroke="none" stroke-width="1px">50</text><text style="text-anchor: middle; visibility: inherit; font-family: &quot;Helvetica Neue&quot;, sans-serif; font-size: 12px; font-weight: 200;" x="89.78759994506835" y="0" dx="0em" dy="0.95em" fill="rgb(33, 33, 33)" stroke="none" stroke-width="1px">100</text><text style="text-anchor: middle; visibility: inherit; font-family: &quot;Helvetica Neue&quot;, sans-serif; font-size: 12px; font-weight: 200;" x="119.71679992675782" y="0" dx="0em" dy="0.95em" fill="rgb(33, 33, 33)" stroke="none" stroke-width="1px">150</text><text style="text-anchor: middle; visibility: inherit; font-family: &quot;Helvetica Neue&quot;, sans-serif; font-size: 12px; font-weight: 200;" x="149.64599990844727" y="0" dx="0em" dy="0.95em" fill="rgb(33, 33, 33)" stroke="none" stroke-width="1px">200</text><text style="text-anchor: middle; visibility: inherit; font-family: &quot;Helvetica Neue&quot;, sans-serif; font-size: 12px; font-weight: 200;" x="179.5751998901367" y="0" dx="0em" dy="0.95em" fill="rgb(33, 33, 33)" stroke="none" stroke-width="1px">250</text><text style="text-anchor: middle; visibility: inherit; font-family: &quot;Helvetica Neue&quot;, sans-serif; font-size: 12px; font-weight: 200;" x="209.50439987182617" y="0" dx="0em" dy="0.95em" fill="rgb(33, 33, 33)" stroke="none" stroke-width="1px">300</text><text style="text-anchor: middle; visibility: inherit; font-family: &quot;Helvetica Neue&quot;, sans-serif; font-size: 12px; font-weight: 200;" x="239.43359985351563" y="0" dx="0em" dy="0.95em" fill="rgb(33, 33, 33)" stroke="none" stroke-width="1px">350</text><text style="text-anchor: middle; visibility: inherit; font-family: &quot;Helvetica Neue&quot;, sans-serif; font-size: 12px; font-weight: 200;" x="269.36279983520507" y="0" dx="0em" dy="0.95em" fill="rgb(33, 33, 33)" stroke="none" stroke-width="1px">400</text><text style="text-anchor: middle; visibility: hidden; font-family: &quot;Helvetica Neue&quot;, sans-serif; font-size: 12px; font-weight: 200;" x="299.29199981689453" y="0" dx="0em" dy="0.95em" fill="rgb(33, 33, 33)" stroke="none" stroke-width="1px">450</text></g><line x1="0" y1="0" x2="299.29199981689453" y2="0" fill="rgb(0, 0, 0)" stroke="rgb(204, 204, 204)" stroke-width="1px"></line></g></g></g></g></svg>