<svg viewBox="0 0 330 200" xmlns="http://www.w3.org/2000/svg"><g><g><g><g><g><line x1="30.70800018310547" y1="176.95999908447266" x2="25.70800018310547" y2="176.95999908447266" style="visibility: inherit;" fill="rgb(0, 0, 0)" stroke="rgb(204, 204, 204)" stroke-width="1px"></line><line x1="30.70800018310547" y1="157.2977769639757" x2="25.70800018310547" y2="157.2977769639757" style="visibility: inherit;" fill="rgb(0, 0, 0)" stroke="rgb(204, 204, 204)" stroke-width="1px"></line><line x1="30.70800018310547" y1="137.63555484347873" x2="25.70800018310547" y2="137.63555484347873" style="visibility: inherit;" fill="rgb(0, 0, 0)" stroke="rgb(204, 204, 204)" stroke-width="1px"></line><line x1="30.70800018310547" y1="117.97333272298178" x2="25.70800018310547" y2="117.97333272298178" style="visibility: inherit;" fill="rgb(0, 0, 0)" stroke="rgb(204, 204, 204)" stroke-width="1px"></line><line x1="30.70800018310547" y1="98.31111060248482" x2="25.70800018310547" y2="98.31111060248482" style="visibility: inherit;" fill="rgb(0, 0, 0)" stroke="rgb(204, 204, 204)" stroke-width="1px"></line><line x1="30.70800018310547" y1="78.64888848198784" x2="25.70800018310547" y2="78.64888848198784" style="visibility: inherit;" fill="rgb(0, 0, 0)" stroke="rgb(204, 204, 204)" stroke-width="1px"></line><line x1="30.70800018310547" y1="58.98666636149089" x2="25.70800018310547" y2="58.98666636149089" style="visibility: inherit;" fill="rgb(0, 0, 0)" stroke="rgb(204, 204, 204)" stroke-width="1px"></line><line x1="30.70800018310547" y1="39.32444424099393" x2="25.70800018310547" y2="39.32444424099393" style="visibility: inherit;" fill="rgb(0, 0, 0)" stroke="rgb(204, 204, 204)" stroke-width="1px"></line><line x1="30.70800018310547" y1="19.662222120496978" x2="25.70800018310547" y2="19.662222120496978" style="visibility: inherit;" fill="rgb(0, 0, 0)" stroke="rgb(204, 204, 204)" stroke-width="1px"></line><line x1="30.70800018310547" y1="0" x2="25.70800018310547" y2="0" style="visibility: inherit;" fill="rgb(0, 0, 0)" stroke="rgb(204, 204, 204)" stroke-width="1px"></line></g><g transform="translate(20.70800018310547, 0)"><text style="text-anchor: end; visibility: hidden; font-family: &quot;Helvetica Neue&quot;, sans-serif; font-size: 12px; font-weight: 200;" x="0" y="176.95999908447266" dx="0em" dy="0.3em" fill="rgb(33, 33, 33)" stroke="none" stroke-width="1px">0</text><text style="text-anchor: end; visibility: inherit; font-family: &quot;Helvetica Neue&quot;, sans-serif; font-size: 12px; font-weight: 200;" x="0" y="157.2977769639757" dx="0em" dy="0.3em" fill="rgb(33, 33, 33)" stroke="none" stroke-width="1px">10</text><text style="text-anchor: end; visibility: hidden; font-family: &quot;Helvetica Neue&quot;, sans-serif; font-size: 12px; font-weight: 200;" x="0" y="137.63555484347873" dx="0em" dy="0.3em" fill="rgb(33, 33, 33)" stroke="none" stroke-width="1px">20</text><text style="text-anchor: end; visibility: inherit; font-family: &quot;Helvetica Neue&quot;, sans-serif; font-size: 12px; font-weight: 200;" x="0" y="117.97333272298178" dx="0em" dy="0.3em" fill="rgb(33, 33, 33)" stroke="none" stroke-width="1px">30</text><text style="text-anchor: end; visibility: hidden; font-family: &quot;Helvetica Neue&quot;, sans-serif; font-size: 12px; font-weight: 200;" x="0" y="98.31111060248482" dx="0em" dy="0.3em" fill="rgb(33, 33, 33)" stroke="none" stroke-width="1px">40</text><text style="text-anchor: end; visibility: inherit; font-family: &quot;Helvetica Neue&quot;, sans-serif; font-size: 12px; font-weight: 200;" x="0" y="78.64888848198784" dx="0em" dy="0.3em" fill="rgb(33, 33, 33)" stroke="none" stroke-width="1px">50</text><text style="text-anchor: end; visibility: hidden; font-family: &quot;Helvetica Neue&quot;, sans-serif; font-size: 12px; font-weight: 200;" x="0" y="58.98666636149089" dx="0em" dy="0.3em" fill="rgb(33, 33, 33)" stroke="none" stroke-width="1px">60</text><text style="text-anchor: end; visibility: inherit; font-family: &quot;Helvetica Neue&quot;, sans-serif; font-size: 12px; font-weight: 200;" x="0" y="39.32444424099393" dx="0em" dy="0.3em" fill="rgb(33, 33, 33)" stroke="none" stroke-width="1px">70</text><text style="text-anchor: end; visibility: hidden; font-family: &quot;Helvetica Neue&quot;, sans-serif; font-size: 12px; font-weight: 200;" x="0" y="19.662222120496978" dx="0em" dy="0.3em" fill="rgb(33, 33, 33)" stroke="none" stroke-width="1px">80</text><text style="text-anchor: end; visibility: hidden; font-family: &quot;Helvetica Neue&quot;, sans-serif; font-size: 12px; font-weight: 200;" x="0" y="0" dx="0em" dy="0.3em" fill="rgb(33, 33, 33)" stroke="none" stroke-width="1px">90</text></g><line x1="30.70800018310547" y1="0" x2="30.70800018310547" y2="176.95999908447266" fill="rgb(0, 0, 0)" stroke="rgb(204, 204, 204)" stroke-width="1px"></line></g></g><g transform="translate(30, 0)" clip-path="url(#clip_0)"><clipPath id="clip_0"><rect width="299" height="176"></rect></clipPath><g><g><g><line x1="0" y1="0" x2="0" y2="176.95999908447266" fill="rgb(0, 0, 0)" stroke="rgb(66, 66, 66)" stroke-width="1px" opacity="0.25"></line><line x1="29.929199981689454" y1="0" x2="29.929199981689454" y2="176.95999908447266" fill="rgb(0, 0, 0)" stroke="rgb(66, 66, 66)" stroke-width="1px" opacity="0.25"></line><line x1="59.85839996337891" y1="0" x2="59.85839996337891" y2="176.95999908447266" fill="rgb(0, 0, 0)" stroke="rgb(66, 66, 66)" stroke-width="1px" opacity="0.25"></line><line x1="89.78759994506835" y1="0" x2="89.78759994506835" y2="176.95999908447266" fill="rgb(0, 0, 0)" stroke="rgb(66, 66, 66)" stroke-width="1px" opacity="0.25"></line><line x1="119.71679992675782" y1="0" x2="119.71679992675782" y2="176.95999908447266" fill="rgb(0, 0, 0)" stroke="rgb(66, 66, 66)" stroke-width="1px" opacity="0.25"></line><line x1="149.64599990844727" y1="0" x2="149.64599990844727" y2="176.95999908447266" fill="rgb(0, 0, 0)" stroke="rgb(66, 66, 66)" stroke-width="1px" opacity="0.25"></line><line x1="179.5751998901367" y1="0" x2="179.5751998901367" y2="176.95999908447266" fill="rgb(0, 0, 0)" stroke="rgb(66, 66, 66)" stroke-width="1px" opacity="0.25"></line><line x1="209.50439987182617" y1="0" x2="209.50439987182617" y2="176.95999908447266" fill="rgb(0, 0, 0)" stroke="rgb(66, 66, 66)" stroke-width="1px" opacity="0.25"></line><line x1="239.43359985351563" y1="0" x2="239.43359985351563" y2="176.95999908447266" fill="rgb(0, 0, 0)" stroke="rgb(66, 66, 66)" stroke-width="1px" opacity="0.25"></line><line x1="269.36279983520507" y1="0" x2="269.36279983520507" y2="176.95999908447266" fill="rgb(0, 0, 0)" stroke="rgb(66, 66, 66)" stroke-width="1px" opacity="0.25"></line><line x1="299.29199981689453" y1="0" x2="299.29199981689453" y2="176.95999908447266" fill="rgb(0, 0, 0)" stroke="rgb(66, 66, 66)" stroke-width="1px" opacity="0.25"></line></g><g><line x1="0" y1="176.95999908447266" x2="299.29199981689453" y2="176.95999908447266" fill="rgb(0, 0, 0)" stroke="rgb(66, 66, 66)" stroke-width="1px" opacity="0.25"></line><line x1="0" y1="157.2977769639757" x2="299.29199981689453" y2="157.2977769639757" fill="rgb(0, 0, 0)" stroke="rgb(66, 66, 66)" stroke-width="1px" opacity="0.25"></line><line x1="0" y1="137.63555484347873" x2="299.29199981689453" y2="137.63555484347873" fill="rgb(0, 0, 0)" stroke="rgb(66, 66, 66)" stroke-width="1px" opacity="0.25"></line><line x1="0" y1="117.97333272298178" x2="299.29199981689453" y2="117.97333272298178" fill="rgb(0, 0, 0)" stroke="rgb(66, 66, 66)" stroke-width="1px" opacity="0.25"></line><line x1="0" y1="98.31111060248482" x2="299.29199981689453" y2="98.31111060248482" fill="rgb(0, 0, 0)" stroke="rgb(66, 66, 66)" stroke-width="1px" opacity="0.25"></line><line x1="0" y1="78.64888848198784" x2="299.29199981689453" y2="78.64888848198784" fill="rgb(0, 0, 0)" stroke="rgb(66, 66, 66)" stroke-width="1px" opacity="0.25"></line><line x1="0" y1="58.98666636149089" x2="299.29199981689453" y2="58.98666636149089" fill="rgb(0, 0, 0)" stroke="rgb(66, 66, 66)" stroke-width="1px" opacity="0.25"></line><line x1="0" y1="39.32444424099393" x2="299.29199981689453" y2="39.32444424099393" fill="rgb(0, 0, 0)" stroke="rgb(66, 66, 66)" stroke-width="1px" opacity="0.25"></line><line x1="0" y1="19.662222120496978" x2="299.29199981689453" y2="19.662222120496978" fill="rgb(0, 0, 0)" stroke="rgb(66, 66, 66)" stroke-width="1px" opacity="0.25"></line><line x1="0" y1="0" x2="299.29199981689453" y2="0" fill="rgb(0, 0, 0)" stroke="rgb(66, 66, 66)" stroke-width="1px" opacity="0.25"></line></g></g></g><g><g><line x1="0" y1="176.95999908447266" x2="299.29199981689453" y2="176.95999908447266" fill="rgb(0, 0, 0)" stroke="rgb(153, 153, 153)" stroke-width="1.5px"></line></g></g><g><g><line x1="29.929199981689454" y1="0" x2="29.929199981689454" y2="176.95999908447266" fill="rgb(0, 0, 0)" stroke="rgb(153, 153, 153)" stroke-width="1.5px"></line></g></g><g><g><g><g><g><path style="fill: none;" stroke="rgb(204, 51, 17)" stroke-width="2px" d="M29.929199981689454,120.2562128381241L30.52778398132324,120.2562128381241L31.12636798095703,120.2562128381241L31.72495198059082,120.2562128381241L32.32353598022461,120.2562128381241L32.9221199798584,120.2562128381241L33.52070397949219,120.2562128381241L34.11928797912598,120.2562128381241L34.71787197875977,120.2562128381241L35.316455978393556,120.2562128381241L35.915039978027345,120.2562128381241L36.51362397766113,120.2562128381241L37.11220797729492,120.2562128381241L37.71079197692871,120.2562128381241L38.3093759765625,120.2562128381241L38.90795997619629,120.2562128381241L39.50654397583008,120.2562128381241L40.10512797546387,120.2562128381241L40.70371197509766,120.2562128381241L41.30229597473145,120.2562128381241L41.90087997436524,120.2562128381241L42.49946397399902,120.2562128381241L43.09804797363281,120.2562128381241L43.6966319732666,120.2562128381241L44.29521597290039,120.2562128381241L44.893799972534175,120.2562128381241L45.492383972167964,120.2562128381241L46.09096797180176,120.2562128381241L46.68955197143555,120.2562128381241L47.28813597106934,120.2562128381241L47.886719970703126,120.2562128381241L48.485303970336915,120.2562128381241L49.083887969970704,120.2562128381241L49.68247196960449,120.2562128381241L50.28105596923828,119.96164702783514L50.87963996887208,119.78490754490261L51.47822396850586,117.91147351434658L52.07680796813965,113.84176104067782L52.675391967773436,112.87276109544662L53.273975967407225,113.76418565745864L53.87255996704101,111.64795564529301L54.4711439666748,110.08365033360452L55.06972796630859,109.73419875769362L55.66831196594238,109.22996350704398L56.266895965576175,100.38503350570316L56.865479965209964,98.90742047289342L57.46406396484375,102.14476492592206L58.06264796447754,93.7773909161773L58.66123196411133,91.11348995206667L59.25981596374512,94.81732186685089L59.85839996337891,91.4428812171567L60.456983963012696,100.6116934242031L61.05556796264648,101.10537256033697L61.65415196228027,100.51788412644888L62.25273596191406,96.04147879361265L62.85131996154785,92.17737537322864L63.44990396118164,89.56434901588247L64.04848796081542,89.17479342215891L64.64707196044922,91.5921478126259L65.24565596008301,83.61647568121958L65.8442399597168,77.35824787657572L66.44282395935059,75.66526432982312L67.04140795898438,73.76578128642161L67.63999195861817,72.33152415504708L68.23857595825196,80.30792603167502L68.83715995788575,85.09376715765178L69.43574395751953,85.31418408653694L70.03432795715332,78.3768729197663L70.63291195678711,75.98187505062084L71.2314959564209,74.83944063425024L71.83007995605469,76.21593612067844L72.42866395568848,75.5690088867351L73.02724795532227,70.76237596875126L73.62583195495606,73.76969732137907L74.22441595458984,72.92300538647187L74.82299995422363,82.72476790656346L75.42158395385742,85.95474067213452L76.02016795349121,82.2959875331757L76.618751953125,82.16269178605101L77.21733595275879,75.60228162390779L77.81591995239258,75.2008161886727L78.41450395202637,82.02950125185038L79.01308795166015,76.11149591362071L79.61167195129394,80.80851725568525L80.21025595092775,77.73542595728888L80.80883995056153,73.24048643176715L81.40742395019532,72.31091454758806L82.00600794982911,71.7531714170806L82.6045919494629,85.26308388186291L83.20317594909669,73.92773321912706L83.80175994873048,74.19608714580427L84.40034394836425,74.3570995018106L84.99892794799804,77.98848757746526L85.59751194763183,78.10536428660748L86.19609594726562,76.99723009140918L86.79467994689941,74.27039343803962L87.3932639465332,80.58755168590356L87.99184794616698,80.54849866723741L88.59043194580077,74.63376575261964L89.18901594543456,70.49579439339864L89.78759994506835,65.06735952604852L90.38618394470214,70.05812315064077L90.98476794433593,68.33954044266164L91.58335194396973,62.595346934922674L92.18193594360352,59.73796244072962L92.78051994323731,56.84527152353016L93.3791039428711,55.698785583443794L93.97768794250489,62.669586953944005L94.57627194213867,61.54989828327635L95.17485594177246,60.288953470425454L95.77343994140625,57.175866141347655L96.37202394104004,66.50148734050386L96.97060794067383,59.13599763247778L97.56919194030762,65.61561009893136L98.16777593994141,66.55772852720295L98.7663599395752,63.88278322723171L99.36494393920898,64.92890079373286L99.96352793884277,67.32396316476748L100.56211193847656,60.51317304216893L101.16069593811036,59.37235402064431L101.75927993774415,58.39329530239593L102.35786393737794,58.10042737678053L102.95644793701172,57.630139316077646L103.5550319366455,59.40992261590648L104.1536159362793,62.834316037388035L104.75219993591308,56.34656023994097L105.35078393554687,57.166950644424205L105.94936793518066,62.077661464731975L106.54795193481445,60.90017568441546L107.14653593444824,59.3099883006586L107.74511993408203,58.061311565287824L108.34370393371582,55.83928099826508L108.9422879333496,54.2114983529348L109.54087193298339,56.76960942778747L110.13945593261718,55.35882402088154L110.73803993225097,52.744960945604035L111.33662393188476,54.711426762705386L111.93520793151855,59.720651220133746L112.53379193115235,58.89684092742321L113.13237593078614,61.6427711087311L113.73095993041993,64.76315374331612L114.32954393005372,59.56582199996541L114.9281279296875,56.741987259071635L115.5267119293213,57.10964255078595L116.12529592895508,54.97371528444731L116.72387992858887,55.45954775556105L117.32246392822266,49.27061752457789L117.92104792785645,48.79747574292219L118.51963192749024,48.21902336859512L119.11821592712403,51.40673260604976L119.71679992675782,49.195448876238345L120.3153839263916,62.00780128655492L120.91396792602539,61.44739118795955L121.51255192565918,54.92527672005059L122.11113592529296,57.49244075317361L122.70971992492674,56.97078303679682L123.30830392456053,54.89039957605384L123.90688792419434,53.34760219427437L124.50547192382813,50.359970629173134L125.10405592346191,44.738040722510874L125.7026399230957,45.783362356348334L126.30122392272949,46.99968394688409L126.89980792236328,45.07838915450469L127.49839192199707,48.34409185691189L128.09697592163084,45.29590529028803L128.69555992126465,46.11808109701465L129.29414392089845,46.90595388638425L129.89272792053222,45.02215111820479L130.49131192016603,43.891869457297105L131.0898959197998,47.63218003858728L131.6884799194336,50.760062302928375L132.28706391906738,49.39657530459884L132.88564791870118,50.935003546968346L133.48423191833496,50.09066866125612L134.08281591796876,48.40581050936214L134.68139991760253,50.635108974942995L135.27998391723634,47.848778782007315L135.8785679168701,45.58784605557861L136.4771519165039,42.16933328368785L137.0757359161377,41.00192153612031L137.6743199157715,42.65799492894703L138.2729039154053,42.76794304907611L138.87148791503907,42.833911921153515L139.47007191467287,43.16806054973364L140.06865591430665,43.6631110317814L140.66723991394042,44.54927593167733L141.26582391357422,44.19727895604794L141.864407913208,46.34260121203752L142.4629919128418,43.21131498779647L143.06157591247558,43.98363099995274L143.66015991210938,43.857891997013155L144.25874391174315,43.48788128991575L144.85732791137696,41.49848303452339L145.45591191101073,40.01028277638832L146.05449591064453,35.8771462645731L146.6530799102783,36.932042019317834L147.2516639099121,37.56497947216465L147.85024790954589,36.76648472340614L148.4488319091797,39.527604231085206L149.04741590881346,40.59514132502534L149.64599990844727,41.235663581389446L150.24458390808107,41.030848324974585L150.84316790771484,37.667742814191485L151.44175190734865,39.18466316998945L152.04033590698242,39.211119467901256L152.63891990661622,40.405250467114996L153.23750390625,40.53260045640994L153.8360879058838,41.49270636555383L154.43467190551758,41.774202605706535L155.03325590515138,39.586579908430906L155.63183990478515,38.27400629006553L156.23042390441896,39.25385395018023L156.82900790405273,38.36893802044881L157.42759190368653,45.20211709204531L158.0261759033203,46.356375483402644L158.6247599029541,44.10327546618251L159.22334390258789,43.04598276118409L159.8219279022217,40.938782612384756L160.4205119018555,43.209240184939006L161.01909590148927,43.39325750800492L161.61767990112307,42.91453329117718L162.21626390075684,42.62729876108054L162.81484790039065,41.57126812788957L163.41343190002442,39.464819221740726L164.01201589965822,40.26290901451898L164.610599899292,38.974371059052004L165.2091838989258,37.90668098043821L165.80776789855958,41.97911381643837L166.40635189819338,45.600830738505095L167.00493589782715,44.828211840144604L167.60351989746096,49.372245688979405L168.20210389709473,45.912797589528566L168.8006878967285,44.13169603519171L169.39927189636228,48.36520759577439L169.99785589599608,49.43248700610671L170.59643989562986,45.94894237980495L171.19502389526366,43.56425429912423L171.79360789489743,42.428002755615466L172.39219189453124,40.862555913943226L172.99077589416504,41.985246945407454L173.58935989379881,41.77516564871905L174.18794389343262,42.8273740911726L174.7865278930664,41.10217871527752L175.3851118927002,40.06706148974047L175.98369589233397,39.44599115441824L176.58227989196777,39.957044868791826L177.18086389160155,39.96911579251636L177.77944789123535,39.09266243118415L178.37803189086912,38.27222310905111L178.97661589050293,37.48539221043768L179.5751998901367,38.780685502403514L180.1737838897705,40.146990087816334L180.77236788940428,40.67221153416435L181.37095188903808,41.281905706872834L181.96953588867186,42.23685682116525L182.56811988830566,40.1587397430398L183.16670388793946,39.2064368014982L183.76528788757324,38.340487731239506L184.36387188720704,36.64265506818376L184.96245588684081,35.9185227756839L185.56103988647462,37.840563841551244L186.1596238861084,38.993788481071675L186.7582078857422,38.212898738983625L187.35679188537597,37.74436489373082L187.95537588500977,35.40129145054556L188.55395988464355,36.05740052066798L189.15254388427735,35.86193735250811L189.75112788391112,37.217483977412485L190.34971188354493,37.147116036788134L190.9482958831787,36.81032796707984L191.5468798828125,37.491951040821874L192.1454638824463,36.13353305393312L192.74404788208008,35.318482261799886L193.34263188171388,33.94576187138702L193.94121588134766,34.00581955227224L194.53979988098146,35.51468468703763L195.13838388061524,34.358044631429294L195.73696788024904,33.36949929316464L196.33555187988281,32.48180478487217L196.93413587951662,34.01114121593028L197.5327198791504,34.6341817696655L198.1313038787842,35.59713471213993L198.72988787841797,37.35316969852522L199.32847187805177,38.40679069035639L199.92705587768555,36.977004148987504L200.52563987731935,37.2973954450668L201.12422387695312,36.31136700181375L201.72280787658693,38.07627037722918L202.32139187622073,36.18956335087785L202.9199758758545,37.41405957643431L203.5185598754883,36.38136548063426L204.11714387512208,36.35087763338754L204.71572787475588,37.21628084060649L205.31431187438966,39.208347290738146L205.91289587402343,37.7525054145502L206.5114798736572,33.93334523680289L207.110063873291,34.58750418218909L207.7086478729248,34.39086493875345L208.3072318725586,35.156577308259074L208.90581587219236,33.25948428859519L209.50439987182617,35.066883528831426L210.10298387145994,32.02741080047198L210.70156787109374,34.32763943595748L211.30015187072752,33.64581748078123L211.89873587036132,33.23672430767547L212.4973198699951,33.5803970140453L213.0959038696289,35.553992469001145L213.69448786926267,36.44358843707499L214.29307186889648,35.504515491685L214.89165586853028,33.76281450398437L215.49023986816405,31.834097995797066L216.08882386779786,30.676868090884653L216.68740786743163,30.277097453270898L217.28599186706543,32.393755512069845L217.8845758666992,36.02027078871649L218.483159866333,35.250524902669895L219.08174386596679,36.2615078972762L219.6803278656006,37.45722630427335L220.27891186523436,36.996394127570994L220.87749586486817,34.95250899084965L221.47607986450194,34.31530651905018L222.07466386413574,32.75472181506984L222.67324786376952,31.81837099268168L223.27183186340332,31.55112780458242L223.8704158630371,33.74730233309009L224.4689998626709,34.47587843996138L225.0675838623047,34.029328188517184L225.66616786193848,33.76139803765068L226.26475186157228,35.66259308316435L226.86333586120605,35.33048558467229L227.46191986083986,36.309484306477685L228.06050386047363,37.191444844460534L228.65908786010743,38.30975577791759L229.2576718597412,36.035087285957275L229.856255859375,34.67028619078107L230.45483985900879,35.029668754575965L231.0534238586426,36.42355551331954L231.65200785827636,36.3761916529987L232.25059185791017,35.758644726572896L232.84917585754394,35.97724518095072L233.44775985717774,36.69754006424472L234.04634385681152,35.06775785775355L234.64492785644532,36.44640897522606L235.24351185607912,35.800775119909304L235.8420958557129,35.41339480671928L236.4406798553467,33.708142093004966L237.03926385498048,34.4523822959103L237.63784785461428,34.3097918069862L238.23643185424805,35.40250073453234L238.83501585388186,33.40703834435914L239.43359985351563,33.093456825822216L240.03218385314943,34.083571135600664L240.6307678527832,34.97220102636737L241.229351852417,34.91625035059408L241.82793585205079,37.53376769183103L242.4265198516846,38.22058218100619L243.02510385131836,38.92723817984498L243.62368785095214,38.467535863581304L244.2222718505859,37.308018558256094L244.82085585021971,34.550349038593424L245.4194398498535,34.36857185259606L246.0180238494873,33.964944236098006L246.61660784912107,33.72276766619919L247.21519184875487,31.515502587792298L247.81377584838867,31.958535371882107L248.41235984802245,31.340659126768998L249.01094384765625,31.85362929526812L249.60952784729002,32.750540006600886L250.20811184692383,31.226733297366962L250.8066958465576,32.96353701852752L251.4052798461914,32.53279472542354L252.00386384582518,31.39065343399423L252.60244784545898,30.999929964036284L253.20103184509276,31.943759102962133L253.79961584472656,32.21548928098403L254.39819984436033,33.8513519135974L254.99678384399414,35.422004103832734L255.5953678436279,35.186132197073306L256.1939518432617,35.63373766325097L256.7925358428955,36.196868248291224L257.3911198425293,34.47279346328179L257.98970384216307,34.02747720250943L258.5882878417969,32.87659153047906L259.1868718414307,33.65888465306111L259.78545584106445,32.655436000810084L260.3840398406982,32.64249541969278L260.98262384033205,34.107555596822664L261.5812078399658,34.69203039820093L262.1797918395996,34.748147973694245L262.7783758392334,34.781818518990235L263.3769598388672,33.62376362570117L263.975543838501,32.634363384394106L264.57412783813476,32.33529054494352L265.17271183776853,33.334104061739794L265.77129583740236,31.871439035783965L266.36987983703614,33.64492176647738L266.9684638366699,33.82531548932644L267.56704783630374,34.81724763860285L268.1656318359375,34.23414970770207L268.7642158355713,34.767986864728556" fill="none"></path></g></g></g></g><g opacity="0.2"><g><g><g><path style="fill: none;" stroke="rgb(204, 51, 17)" stroke-width="2px" d="M29.929199981689454,120.2562128381241L30.52778398132324,120.2562128381241L31.12636798095703,120.2562128381241L31.72495198059082,120.2562128381241L32.32353598022461,120.2562128381241L32.9221199798584,120.2562128381241L33.52070397949219,120.2562128381241L34.11928797912598,120.2562128381241L34.71787197875977,120.2562128381241L35.316455978393556,120.2562128381241L35.915039978027345,120.2562128381241L36.51362397766113,120.2562128381241L37.11220797729492,120.2562128381241L37.71079197692871,120.2562128381241L38.3093759765625,120.2562128381241L38.90795997619629,120.2562128381241L39.50654397583008,120.2562128381241L40.10512797546387,120.2562128381241L40.70371197509766,120.2562128381241L41.30229597473145,120.2562128381241L41.90087997436524,120.2562128381241L42.49946397399902,120.2562128381241L43.09804797363281,120.2562128381241L43.6966319732666,120.2562128381241L44.29521597290039,120.2562128381241L44.893799972534175,120.2562128381241L45.492383972167964,120.2562128381241L46.09096797180176,120.2562128381241L46.68955197143555,120.2562128381241L47.28813597106934,120.2562128381241L47.886719970703126,120.2562128381241L48.485303970336915,120.2562128381241L49.083887969970704,120.2562128381241L49.68247196960449,120.2562128381241L50.28105596923828,119.5197983250612L50.87963996887208,119.5197983250612L51.47822396850586,115.10132249749765L52.07680796813965,107.73719236795377L52.675391967773436,111.41926118299695L53.273975967407225,115.10132249749765L53.87255996704101,108.4736106312879L54.4711439666748,107.73719236795377L55.06972796630859,109.21002139407953L55.66831196594238,108.4736106312879L56.266895965576175,87.11763850599043L56.865479965209964,96.6910009239092L57.46406396484375,107.00078160516213L58.06264796447754,81.22632990202983L58.66123196411133,87.11763850599043L59.25981596374512,100.3730697389524L59.85839996337891,86.3812202426563L60.456983963012696,114.364911734706L61.05556796264648,101.84589126453567L61.65415196228027,99.63665147561825L62.25273596191406,89.32687079436535L62.85131996154785,86.3812202426563L63.44990396118164,85.64480947986466L64.04848796081542,88.5904600315737L64.64707196044922,95.21817939832593L65.24565596008301,71.65296748411104L65.8442399597168,67.97090616961036L66.44282395935059,73.12578900969432L67.04140795898438,70.91655672131941L67.63999195861817,70.18013845798528L68.23857595825196,92.27252884661688L68.83715995788575,92.27252884661688L69.43574395751953,85.64480947986466L70.03432795715332,67.97090616961036L70.63291195678711,72.38937824690268L71.2314959564209,73.12578900969432L71.83007995605469,78.28067935032078L72.42866395568848,74.59861803582008L73.02724795532227,63.55242659177553L73.62583195495606,78.28067935032078L74.22441595458984,71.65296748411104L74.82299995422363,97.42741168670084L75.42158395385742,90.79969982049111L76.02016795349121,76.80785782473751L76.618751953125,81.96274816536396L77.21733595275879,65.76166638069294L77.81591995239258,74.59861803582008L78.41450395202637,92.27252884661688L79.01308795166015,67.23448790627621L79.61167195129394,87.85404926878206L80.21025595092775,73.12578900969432L80.80883995056153,66.49807714348458L81.40742395019532,70.91655672131941L82.00600794982911,70.91655672131941L82.6045919494629,105.52795257903635L83.20317594909669,56.9247072250233L83.80175994873048,74.59861803582008L84.40034394836425,74.59861803582008L84.99892794799804,83.43556969094723L85.59751194763183,78.28067935032078L86.19609594726562,75.33502879861173L86.79467994689941,70.18013845798528L87.3932639465332,90.06328905769946L87.99184794616698,80.4899191392382L88.59043194580077,65.76166638069294L89.18901594543456,64.28883735456718L89.78759994506835,56.9247072250233L90.38618394470214,77.54426858752915L90.98476794433593,65.76166638069294L91.58335194396973,53.97905667331426L92.18193594360352,55.45188569944003L92.78051994323731,52.50623514773096L93.3791039428711,53.97905667331426L93.97768794250489,73.12578900969432L94.57627194213867,59.87036527727486L95.17485594177246,58.39753625114909L95.77343994140625,52.50623514773096L96.37202394104004,80.4899191392382L96.97060794067383,48.087763070438655L97.56919194030762,75.33502879861173L98.16777593994141,67.97090616961036L98.7663599395752,59.87036527727486L99.36494393920898,66.49807714348458L99.96352793884277,70.91655672131941L100.56211193847656,50.296987858271066L101.16069593811036,57.66112548835743L101.75927993774415,56.9247072250233L102.35786393737794,57.66112548835743L102.95644793701172,56.9247072250233L103.5550319366455,62.07959756564976L104.1536159362793,67.97090616961036L104.75219993591308,46.614926543770395L105.35078393554687,58.39753625114909L105.94936793518066,69.44372769519364L106.54795193481445,59.13394701394071L107.14653593444824,56.9247072250233L107.74511993408203,56.18829646223166L108.34370393371582,52.50623514773096L108.9422879333496,51.76982438493934L109.54087193298339,60.60677604006649L110.13945593261718,53.242645910522626L110.73803993225097,48.82416633268781L111.33662393188476,57.66112548835743L111.93520793151855,67.23448790627621L112.53379193115235,57.66112548835743L113.13237593078614,65.76166638069294L113.73095993041993,69.44372769519364L114.32954393005372,51.76982438493934L114.9281279296875,52.50623514773096L115.5267119293213,57.66112548835743L116.12529592895508,51.76982438493934L116.72387992858887,56.18829646223166L117.32246392822266,39.98722217810314L117.92104792785645,48.087763070438655L118.51963192749024,47.35134480710454L119.11821592712403,56.18829646223166L119.71679992675782,45.87852328152124L120.3153839263916,81.22632990202983L120.91396792602539,60.60677604006649L121.51255192565918,45.142105018187095L122.11113592529296,61.34318680285813L122.70971992492674,56.18829646223166L123.30830392456053,51.76982438493934L123.90688792419434,51.033406121605196L124.50547192382813,45.87852328152124L125.10405592346191,36.30514586251746L125.7026399230957,47.35134480710454L126.30122392272949,48.82416633268781L126.89980792236328,42.196446965935564L127.49839192199707,53.242645910522626L128.09697592163084,40.723625440352265L128.69555992126465,47.35134480710454L129.29414392089845,48.087763070438655L129.89272792053222,42.196446965935564L130.49131192016603,42.196446965935564L131.0898959197998,53.242645910522626L131.6884799194336,55.45188569944003L132.28706391906738,47.35134480710454L132.88564791870118,53.242645910522626L133.48423191833496,48.82416633268781L134.08281591796876,45.87852328152124L134.68139991760253,53.97905667331426L135.27998391723634,43.669283492603824L135.8785679168701,42.196446965935564L136.4771519165039,37.04156412585161L137.0757359161377,39.250803914768994L137.6743199157715,45.142105018187095L138.2729039154053,42.93286522926971L138.87148791503907,42.93286522926971L139.47007191467287,43.669283492603824L140.06865591430665,44.40568675485298L140.66723991394042,45.87852328152124L141.26582391357422,43.669283492603824L141.864407913208,49.560584596021926L142.4629919128418,38.51438565143488L143.06157591247558,45.142105018187095L143.66015991210938,43.669283492603824L144.25874391174315,42.93286522926971L144.85732791137696,38.51438565143488L145.45591191101073,37.77798238918575L146.05449591064453,29.677441496850207L146.6530799102783,38.51438565143488L147.2516639099121,38.51438565143488L147.85024790954589,35.56874260026831L148.4488319091797,43.669283492603824L149.04741590881346,42.196446965935564L149.64599990844727,42.196446965935564L150.24458390808107,40.723625440352265L150.84316790771484,32.62308454801678L151.44175190734865,41.46004370368641L152.04033590698242,39.250803914768994L152.63891990661622,42.196446965935564L153.23750390625,40.723625440352265L153.8360879058838,42.93286522926971L154.43467190551758,42.196446965935564L155.03325590515138,36.30514586251746L155.63183990478515,36.30514586251746L156.23042390441896,40.723625440352265L156.82900790405273,37.04156412585161L157.42759190368653,55.45188569944003L158.0261759033203,48.087763070438655L158.6247599029541,40.723625440352265L159.22334390258789,41.46004370368641L159.8219279022217,37.77798238918575L160.4205119018555,46.614926543770395L161.01909590148927,43.669283492603824L161.61767990112307,42.196446965935564L162.21626390075684,42.196446965935564L162.81484790039065,39.98722217810314L163.41343190002442,36.30514586251746L164.01201589965822,41.46004370368641L164.610599899292,37.04156412585161L165.2091838989258,36.30514586251746L165.80776789855958,48.087763070438655L166.40635189819338,51.033406121605196L167.00493589782715,43.669283492603824L167.60351989746096,56.18829646223166L168.20210389709473,40.723625440352265L168.8006878967285,41.46004370368641L169.39927189636228,54.71547493664839L169.99785589599608,51.033406121605196L170.59643989562986,40.723625440352265L171.19502389526366,39.98722217810314L171.79360789489743,40.723625440352265L172.39219189453124,38.51438565143488L172.99077589416504,43.669283492603824L173.58935989379881,41.46004370368641L174.18794389343262,44.40568675485298L174.7865278930664,38.51438565143488L175.3851118927002,38.51438565143488L175.98369589233397,38.51438565143488L176.58227989196777,40.723625440352265L177.18086389160155,39.98722217810314L177.77944789123535,37.77798238918575L178.37803189086912,37.04156412585161L178.97661589050293,36.30514586251746L179.5751998901367,40.723625440352265L180.1737838897705,42.196446965935564L180.77236788940428,41.46004370368641L181.37095188903808,42.196446965935564L181.96953588867186,43.669283492603824L182.56811988830566,37.04156412585161L183.16670388793946,37.77798238918575L183.76528788757324,37.04156412585161L184.36387188720704,34.09590607360005L184.96245588684081,34.83232433693419L185.56103988647462,40.723625440352265L186.1596238861084,40.723625440352265L186.7582078857422,37.04156412585161L187.35679188537597,37.04156412585161L187.95537588500977,31.88668128576765L188.55395988464355,37.04156412585161L189.15254388427735,35.56874260026831L189.75112788391112,39.250803914768994L190.34971188354493,37.04156412585161L190.9482958831787,36.30514586251746L191.5468798828125,38.51438565143488L192.1454638824463,34.09590607360005L192.74404788208008,34.09590607360005L193.34263188171388,31.88668128576765L193.94121588134766,34.09590607360005L194.53979988098146,37.77798238918575L195.13838388061524,32.62308454801678L195.73696788024904,31.88668128576765L196.33555187988281,31.150263022433506L196.93413587951662,36.30514586251746L197.5327198791504,35.56874260026831L198.1313038787842,37.04156412585161L198.72988787841797,39.98722217810314L199.32847187805177,39.98722217810314L199.92705587768555,34.83232433693419L200.52563987731935,37.77798238918575L201.12422387695312,34.83232433693419L201.72280787658693,40.723625440352265L202.32139187622073,33.35950281135092L202.9199758758545,39.250803914768994L203.5185598754883,34.83232433693419L204.11714387512208,36.30514586251746L204.71572787475588,38.51438565143488L205.31431187438966,42.196446965935564L205.91289587402343,35.56874260026831L206.5114798736572,28.204604970181947L207.110063873291,35.56874260026831L207.7086478729248,34.09590607360005L208.3072318725586,36.30514586251746L208.90581587219236,30.413844759099362L209.50439987182617,37.77798238918575L210.10298387145994,27.46820170793282L210.70156787109374,37.77798238918575L211.30015187072752,32.62308454801678L211.89873587036132,32.62308454801678L212.4973198699951,34.09590607360005L213.0959038696289,38.51438565143488L213.69448786926267,37.77798238918575L214.29307186889648,34.09590607360005L214.89165586853028,31.150263022433506L215.49023986816405,28.94102323351609L216.08882386779786,28.94102323351609L216.68740786743163,29.677441496850207L217.28599186706543,35.56874260026831L217.8845758666992,41.46004370368641L218.483159866333,34.09590607360005L219.08174386596679,37.77798238918575L219.6803278656006,39.250803914768994L220.27891186523436,36.30514586251746L220.87749586486817,31.88668128576765L221.47607986450194,33.35950281135092L222.07466386413574,30.413844759099362L222.67324786376952,30.413844759099362L223.27183186340332,31.150263022433506L223.8704158630371,37.04156412585161L224.4689998626709,35.56874260026831L225.0675838623047,33.35950281135092L225.66616786193848,33.35950281135092L226.26475186157228,38.51438565143488L226.86333586120605,34.83232433693419L227.46191986083986,37.77798238918575L228.06050386047363,38.51438565143488L228.65908786010743,39.98722217810314L229.2576718597412,32.62308454801678L229.856255859375,32.62308454801678L230.45483985900879,35.56874260026831L231.0534238586426,38.51438565143488L231.65200785827636,36.30514586251746L232.25059185791017,34.83232433693419L232.84917585754394,36.30514586251746L233.44775985717774,37.77798238918575L234.04634385681152,32.62308454801678L234.64492785644532,38.51438565143488L235.24351185607912,34.83232433693419L235.8420958557129,34.83232433693419L236.4406798553467,31.150263022433506L237.03926385498048,35.56874260026831L237.63784785461428,34.09590607360005L238.23643185424805,37.04156412585161L238.83501585388186,30.413844759099362L239.43359985351563,32.62308454801678L240.03218385314943,35.56874260026831L240.6307678527832,36.30514586251746L241.229351852417,34.83232433693419L241.82793585205079,41.46004370368641L242.4265198516846,39.250803914768994L243.02510385131836,39.98722217810314L243.62368785095214,37.77798238918575L244.2222718505859,35.56874260026831L244.82085585021971,30.413844759099362L245.4194398498535,34.09590607360005L246.0180238494873,33.35950281135092L246.61660784912107,33.35950281135092L247.21519184875487,28.204604970181947L247.81377584838867,32.62308454801678L248.41235984802245,30.413844759099362L249.01094384765625,32.62308454801678L249.60952784729002,34.09590607360005L250.20811184692383,28.94102323351609L250.8066958465576,35.56874260026831L251.4052798461914,31.88668128576765L252.00386384582518,29.677441496850207L252.60244784545898,30.413844759099362L253.20103184509276,33.35950281135092L253.79961584472656,32.62308454801678L254.39819984436033,36.30514586251746L254.99678384399414,37.77798238918575L255.5953678436279,34.83232433693419L256.1939518432617,36.30514586251746L256.7925358428955,37.04156412585161L257.3911198425293,31.88668128576765L257.98970384216307,33.35950281135092L258.5882878417969,31.150263022433506L259.1868718414307,34.83232433693419L259.78545584106445,31.150263022433506L260.3840398406982,32.62308454801678L260.98262384033205,36.30514586251746L261.5812078399658,35.56874260026831L262.1797918395996,34.83232433693419L262.7783758392334,34.83232433693419L263.3769598388672,31.88668128576765L263.975543838501,31.150263022433506L264.57412783813476,31.88668128576765L265.17271183776853,34.83232433693419L265.77129583740236,29.677441496850207L266.36987983703614,36.30514586251746L266.9684638366699,34.09590607360005L267.56704783630374,36.30514586251746L268.1656318359375,33.35950281135092L268.7642158355713,35.56874260026831" fill="none"></path></g></g></g></g></g></g><g transform="translate(30, 176)" clip-path="url(#clip_1)"><clipPath id="clip_1"><rect width="299" height="23"></rect></clipPath><g><g><line x1="0" y1="0" x2="0" y2="5" style="visibility: inherit;" fill="rgb(0, 0, 0)" stroke="rgb(204, 204, 204)" stroke-width="1px"></line><line x1="29.929199981689454" y1="0" x2="29.929199981689454" y2="5" style="visibility: inherit;" fill="rgb(0, 0, 0)" stroke="rgb(204, 204, 204)" stroke-width="1px"></line><line x1="59.85839996337891" y1="0" x2="59.85839996337891" y2="5" style="visibility: inherit;" fill="rgb(0, 0, 0)" stroke="rgb(204, 204, 204)" stroke-width="1px"></line><line x1="89.78759994506835" y1="0" x2="89.78759994506835" y2="5" style="visibility: inherit;" fill="rgb(0, 0, 0)" stroke="rgb(204, 204, 204)" stroke-width="1px"></line><line x1="119.71679992675782" y1="0" x2="119.71679992675782" y2="5" style="visibility: inherit;" fill="rgb(0, 0, 0)" stroke="rgb(204, 204, 204)" stroke-width="1px"></line><line x1="149.64599990844727" y1="0" x2="149.64599990844727" y2="5" style="visibility: inherit;" fill="rgb(0, 0, 0)" stroke="rgb(204, 204, 204)" stroke-width="1px"></line><line x1="179.5751998901367" y1="0" x2="179.5751998901367" y2="5" style="visibility: inherit;" fill="rgb(0, 0, 0)" stroke="rgb(204, 204, 204)" stroke-width="1px"></line><line x1="209.50439987182617" y1="0" x2="209.50439987182617" y2="5" style="visibility: inherit;" fill="rgb(0, 0, 0)" stroke="rgb(204, 204, 204)" stroke-width="1px"></line><line x1="239.43359985351563" y1="0" x2="239.43359985351563" y2="5" style="visibility: inherit;" fill="rgb(0, 0, 0)" stroke="rgb(204, 204, 204)" stroke-width="1px"></line><line x1="269.36279983520507" y1="0" x2="269.36279983520507" y2="5" style="visibility: inherit;" fill="rgb(0, 0, 0)" stroke="rgb(204, 204, 204)" stroke-width="1px"></line><line x1="299.29199981689453" y1="0" x2="299.29199981689453" y2="5" style="visibility: inherit;" fill="rgb(0, 0, 0)" stroke="rgb(204, 204, 204)" stroke-width="1px"></line></g><g transform="translate(0, 8)"><text style="text-anchor: middle; visibility: hidden; font-family: &quot;Helvetica Neue&quot;, sans-serif; font-size: 12px; font-weight: 200;" x="0" y="0" dx="0em" dy="0.95em" fill="rgb(33, 33, 33)" stroke="none" stroke-width="1px">-50</text><text style="text-anchor: middle; visibility: inherit; font-family: &quot;Helvetica Neue&quot;, sans-serif; font-size: 12px; font-weight: 200;" x="29.929199981689454" y="0" dx="0em" dy="0.95em" fill="rgb(33, 33, 33)" stroke="none" stroke-width="1px">0</text><text style="text-anchor: middle; visibility: inherit; font-family: &quot;Helvetica Neue&quot;, sans-serif; font-size: 12px; font-weight: 200;" x="59.85839996337891" y="0" dx="0em" dy="0.95em" fill="rgb(33, 33, 33)" stroke="none" stroke-width="1px">50</text><text style="text-anchor: middle; visibility: inherit; font-family: &quot;Helvetica Neue&quot;, sans-serif; font-size: 12px; font-weight: 200;" x="89.78759994506835" y="0" dx="0em" dy="0.95em" fill="rgb(33, 33, 33)" stroke="none" stroke-width="1px">100</text><text style="text-anchor: middle; visibility: inherit; font-family: &quot;Helvetica Neue&quot;, sans-serif; font-size: 12px; font-weight: 200;" x="119.71679992675782" y="0" dx="0em" dy="0.95em" fill="rgb(33, 33, 33)" stroke="none" stroke-width="1px">150</text><text style="text-anchor: middle; visibility: inherit; font-family: &quot;Helvetica Neue&quot;, sans-serif; font-size: 12px; font-weight: 200;" x="149.64599990844727" y="0" dx="0em" dy="0.95em" fill="rgb(33, 33, 33)" stroke="none" stroke-width="1px">200</text><text style="text-anchor: middle; visibility: inherit; font-family: &quot;Helvetica Neue&quot;, sans-serif; font-size: 12px; font-weight: 200;" x="179.5751998901367" y="0" dx="0em" dy="0.95em" fill="rgb(33, 33, 33)" stroke="none" stroke-width="1px">250</text><text style="text-anchor: middle; visibility: inherit; font-family: &quot;Helvetica Neue&quot;, sans-serif; font-size: 12px; font-weight: 200;" x="209.50439987182617" y="0" dx="0em" dy="0.95em" fill="rgb(33, 33, 33)" stroke="none" stroke-width="1px">300</text><text style="text-anchor: middle; visibility: inherit; font-family: &quot;Helvetica Neue&quot;, sans-serif; font-size: 12px; font-weight: 200;" x="239.43359985351563" y="0" dx="0em" dy="0.95em" fill="rgb(33, 33, 33)" stroke="none" stroke-width="1px">350</text><text style="text-anchor: middle; visibility: inherit; font-family: &quot;Helvetica Neue&quot;, sans-serif; font-size: 12px; font-weight: 200;" x="269.36279983520507" y="0" dx="0em" dy="0.95em" fill="rgb(33, 33, 33)" stroke="none" stroke-width="1px">400</text><text style="text-anchor: middle; visibility: hidden; font-family: &quot;Helvetica Neue&quot;, sans-serif; font-size: 12px; font-weight: 200;" x="299.29199981689453" y="0" dx="0em" dy="0.95em" fill="rgb(33, 33, 33)" stroke="none" stroke-width="1px">450</text></g><line x1="0" y1="0" x2="299.29199981689453" y2="0" fill="rgb(0, 0, 0)" stroke="rgb(204, 204, 204)" stroke-width="1px"></line></g></g></g></g></svg>