<svg viewBox="0 0 330 200" xmlns="http://www.w3.org/2000/svg"><g><g><g><g><g><line x1="30.70800018310547" y1="176.95999908447266" x2="25.70800018310547" y2="176.95999908447266" style="visibility: inherit;" fill="rgb(0, 0, 0)" stroke="rgb(204, 204, 204)" stroke-width="1px"></line><line x1="30.70800018310547" y1="157.2977769639757" x2="25.70800018310547" y2="157.2977769639757" style="visibility: inherit;" fill="rgb(0, 0, 0)" stroke="rgb(204, 204, 204)" stroke-width="1px"></line><line x1="30.70800018310547" y1="137.63555484347873" x2="25.70800018310547" y2="137.63555484347873" style="visibility: inherit;" fill="rgb(0, 0, 0)" stroke="rgb(204, 204, 204)" stroke-width="1px"></line><line x1="30.70800018310547" y1="117.97333272298178" x2="25.70800018310547" y2="117.97333272298178" style="visibility: inherit;" fill="rgb(0, 0, 0)" stroke="rgb(204, 204, 204)" stroke-width="1px"></line><line x1="30.70800018310547" y1="98.31111060248482" x2="25.70800018310547" y2="98.31111060248482" style="visibility: inherit;" fill="rgb(0, 0, 0)" stroke="rgb(204, 204, 204)" stroke-width="1px"></line><line x1="30.70800018310547" y1="78.64888848198784" x2="25.70800018310547" y2="78.64888848198784" style="visibility: inherit;" fill="rgb(0, 0, 0)" stroke="rgb(204, 204, 204)" stroke-width="1px"></line><line x1="30.70800018310547" y1="58.98666636149089" x2="25.70800018310547" y2="58.98666636149089" style="visibility: inherit;" fill="rgb(0, 0, 0)" stroke="rgb(204, 204, 204)" stroke-width="1px"></line><line x1="30.70800018310547" y1="39.32444424099393" x2="25.70800018310547" y2="39.32444424099393" style="visibility: inherit;" fill="rgb(0, 0, 0)" stroke="rgb(204, 204, 204)" stroke-width="1px"></line><line x1="30.70800018310547" y1="19.662222120496978" x2="25.70800018310547" y2="19.662222120496978" style="visibility: inherit;" fill="rgb(0, 0, 0)" stroke="rgb(204, 204, 204)" stroke-width="1px"></line><line x1="30.70800018310547" y1="0" x2="25.70800018310547" y2="0" style="visibility: inherit;" fill="rgb(0, 0, 0)" stroke="rgb(204, 204, 204)" stroke-width="1px"></line></g><g transform="translate(20.70800018310547, 0)"><text style="text-anchor: end; visibility: hidden; font-family: &quot;Helvetica Neue&quot;, sans-serif; font-size: 12px; font-weight: 200;" x="0" y="176.95999908447266" dx="0em" dy="0.3em" fill="rgb(33, 33, 33)" stroke="none" stroke-width="1px">0</text><text style="text-anchor: end; visibility: inherit; font-family: &quot;Helvetica Neue&quot;, sans-serif; font-size: 12px; font-weight: 200;" x="0" y="157.2977769639757" dx="0em" dy="0.3em" fill="rgb(33, 33, 33)" stroke="none" stroke-width="1px">10</text><text style="text-anchor: end; visibility: hidden; font-family: &quot;Helvetica Neue&quot;, sans-serif; font-size: 12px; font-weight: 200;" x="0" y="137.63555484347873" dx="0em" dy="0.3em" fill="rgb(33, 33, 33)" stroke="none" stroke-width="1px">20</text><text style="text-anchor: end; visibility: inherit; font-family: &quot;Helvetica Neue&quot;, sans-serif; font-size: 12px; font-weight: 200;" x="0" y="117.97333272298178" dx="0em" dy="0.3em" fill="rgb(33, 33, 33)" stroke="none" stroke-width="1px">30</text><text style="text-anchor: end; visibility: hidden; font-family: &quot;Helvetica Neue&quot;, sans-serif; font-size: 12px; font-weight: 200;" x="0" y="98.31111060248482" dx="0em" dy="0.3em" fill="rgb(33, 33, 33)" stroke="none" stroke-width="1px">40</text><text style="text-anchor: end; visibility: inherit; font-family: &quot;Helvetica Neue&quot;, sans-serif; font-size: 12px; font-weight: 200;" x="0" y="78.64888848198784" dx="0em" dy="0.3em" fill="rgb(33, 33, 33)" stroke="none" stroke-width="1px">50</text><text style="text-anchor: end; visibility: hidden; font-family: &quot;Helvetica Neue&quot;, sans-serif; font-size: 12px; font-weight: 200;" x="0" y="58.98666636149089" dx="0em" dy="0.3em" fill="rgb(33, 33, 33)" stroke="none" stroke-width="1px">60</text><text style="text-anchor: end; visibility: inherit; font-family: &quot;Helvetica Neue&quot;, sans-serif; font-size: 12px; font-weight: 200;" x="0" y="39.32444424099393" dx="0em" dy="0.3em" fill="rgb(33, 33, 33)" stroke="none" stroke-width="1px">70</text><text style="text-anchor: end; visibility: hidden; font-family: &quot;Helvetica Neue&quot;, sans-serif; font-size: 12px; font-weight: 200;" x="0" y="19.662222120496978" dx="0em" dy="0.3em" fill="rgb(33, 33, 33)" stroke="none" stroke-width="1px">80</text><text style="text-anchor: end; visibility: hidden; font-family: &quot;Helvetica Neue&quot;, sans-serif; font-size: 12px; font-weight: 200;" x="0" y="0" dx="0em" dy="0.3em" fill="rgb(33, 33, 33)" stroke="none" stroke-width="1px">90</text></g><line x1="30.70800018310547" y1="0" x2="30.70800018310547" y2="176.95999908447266" fill="rgb(0, 0, 0)" stroke="rgb(204, 204, 204)" stroke-width="1px"></line></g></g><g transform="translate(30, 0)" clip-path="url(#clip_0)"><clipPath id="clip_0"><rect width="299" height="176"></rect></clipPath><g><g><g><line x1="0" y1="0" x2="0" y2="176.95999908447266" fill="rgb(0, 0, 0)" stroke="rgb(66, 66, 66)" stroke-width="1px" opacity="0.25"></line><line x1="29.929199981689454" y1="0" x2="29.929199981689454" y2="176.95999908447266" fill="rgb(0, 0, 0)" stroke="rgb(66, 66, 66)" stroke-width="1px" opacity="0.25"></line><line x1="59.85839996337891" y1="0" x2="59.85839996337891" y2="176.95999908447266" fill="rgb(0, 0, 0)" stroke="rgb(66, 66, 66)" stroke-width="1px" opacity="0.25"></line><line x1="89.78759994506835" y1="0" x2="89.78759994506835" y2="176.95999908447266" fill="rgb(0, 0, 0)" stroke="rgb(66, 66, 66)" stroke-width="1px" opacity="0.25"></line><line x1="119.71679992675782" y1="0" x2="119.71679992675782" y2="176.95999908447266" fill="rgb(0, 0, 0)" stroke="rgb(66, 66, 66)" stroke-width="1px" opacity="0.25"></line><line x1="149.64599990844727" y1="0" x2="149.64599990844727" y2="176.95999908447266" fill="rgb(0, 0, 0)" stroke="rgb(66, 66, 66)" stroke-width="1px" opacity="0.25"></line><line x1="179.5751998901367" y1="0" x2="179.5751998901367" y2="176.95999908447266" fill="rgb(0, 0, 0)" stroke="rgb(66, 66, 66)" stroke-width="1px" opacity="0.25"></line><line x1="209.50439987182617" y1="0" x2="209.50439987182617" y2="176.95999908447266" fill="rgb(0, 0, 0)" stroke="rgb(66, 66, 66)" stroke-width="1px" opacity="0.25"></line><line x1="239.43359985351563" y1="0" x2="239.43359985351563" y2="176.95999908447266" fill="rgb(0, 0, 0)" stroke="rgb(66, 66, 66)" stroke-width="1px" opacity="0.25"></line><line x1="269.36279983520507" y1="0" x2="269.36279983520507" y2="176.95999908447266" fill="rgb(0, 0, 0)" stroke="rgb(66, 66, 66)" stroke-width="1px" opacity="0.25"></line><line x1="299.29199981689453" y1="0" x2="299.29199981689453" y2="176.95999908447266" fill="rgb(0, 0, 0)" stroke="rgb(66, 66, 66)" stroke-width="1px" opacity="0.25"></line></g><g><line x1="0" y1="176.95999908447266" x2="299.29199981689453" y2="176.95999908447266" fill="rgb(0, 0, 0)" stroke="rgb(66, 66, 66)" stroke-width="1px" opacity="0.25"></line><line x1="0" y1="157.2977769639757" x2="299.29199981689453" y2="157.2977769639757" fill="rgb(0, 0, 0)" stroke="rgb(66, 66, 66)" stroke-width="1px" opacity="0.25"></line><line x1="0" y1="137.63555484347873" x2="299.29199981689453" y2="137.63555484347873" fill="rgb(0, 0, 0)" stroke="rgb(66, 66, 66)" stroke-width="1px" opacity="0.25"></line><line x1="0" y1="117.97333272298178" x2="299.29199981689453" y2="117.97333272298178" fill="rgb(0, 0, 0)" stroke="rgb(66, 66, 66)" stroke-width="1px" opacity="0.25"></line><line x1="0" y1="98.31111060248482" x2="299.29199981689453" y2="98.31111060248482" fill="rgb(0, 0, 0)" stroke="rgb(66, 66, 66)" stroke-width="1px" opacity="0.25"></line><line x1="0" y1="78.64888848198784" x2="299.29199981689453" y2="78.64888848198784" fill="rgb(0, 0, 0)" stroke="rgb(66, 66, 66)" stroke-width="1px" opacity="0.25"></line><line x1="0" y1="58.98666636149089" x2="299.29199981689453" y2="58.98666636149089" fill="rgb(0, 0, 0)" stroke="rgb(66, 66, 66)" stroke-width="1px" opacity="0.25"></line><line x1="0" y1="39.32444424099393" x2="299.29199981689453" y2="39.32444424099393" fill="rgb(0, 0, 0)" stroke="rgb(66, 66, 66)" stroke-width="1px" opacity="0.25"></line><line x1="0" y1="19.662222120496978" x2="299.29199981689453" y2="19.662222120496978" fill="rgb(0, 0, 0)" stroke="rgb(66, 66, 66)" stroke-width="1px" opacity="0.25"></line><line x1="0" y1="0" x2="299.29199981689453" y2="0" fill="rgb(0, 0, 0)" stroke="rgb(66, 66, 66)" stroke-width="1px" opacity="0.25"></line></g></g></g><g><g><line x1="0" y1="176.95999908447266" x2="299.29199981689453" y2="176.95999908447266" fill="rgb(0, 0, 0)" stroke="rgb(153, 153, 153)" stroke-width="1.5px"></line></g></g><g><g><line x1="29.929199981689454" y1="0" x2="29.929199981689454" y2="176.95999908447266" fill="rgb(0, 0, 0)" stroke="rgb(153, 153, 153)" stroke-width="1.5px"></line></g></g><g><g><g><g><g><path style="fill: none;" stroke="rgb(0, 153, 136)" stroke-width="2px" d="M29.929199981689454,117.97333272298178L30.52778398132324,117.97333272298178L31.12636798095703,117.97333272298178L31.72495198059082,116.96933892090075L32.32353598022461,113.93041604602935L32.9221199798584,120.51549107248984L33.52070397949219,123.06551850197025L34.11928797912598,117.73489645664831L34.71787197875977,117.24272739615809L35.316455978393556,113.43384873585882L35.915039978027345,114.67154903410075L36.51362397766113,119.79020359640214L37.11220797729492,119.06250482193107L37.71079197692871,125.62298969434974L38.3093759765625,129.26455919148793L38.90795997619629,121.25030287297012L39.50654397583008,113.23843709724372L40.10512797546387,110.47143923611108L40.70371197509766,118.71595775072157L41.30229597473145,114.3406578134426L41.90087997436524,109.96778948091378L42.49946397399902,110.54838580365475L43.09804797363281,104.48826059084368L43.6966319732666,104.63902992589666L44.29521597290039,103.85561237991588L44.893799972534175,105.71590480054753L45.492383972167964,119.35765498525126L46.09096797180176,115.0171245249351L46.68955197143555,119.98640852503262L47.28813597106934,112.19016383779842L47.886719970703126,111.59050862774853L48.485303970336915,99.87032097896542L49.083887969970704,98.3727605515304L49.68247196960449,95.43517780316459L50.28105596923828,95.12908957533963L50.87963996887208,99.02352664236051L51.47822396850586,99.32114536521195L52.07680796813965,100.08229873665016L52.675391967773436,96.1696097213131L53.273975967407225,102.56076138290143L53.87255996704101,110.18225126733756L54.4711439666748,101.93829017610398L55.06972796630859,98.73966593507012L55.66831196594238,98.8595348704282L56.266895965576175,98.64016516322803L56.865479965209964,90.35236342184363L57.46406396484375,99.07041359500265L58.06264796447754,95.56247864496294L58.66123196411133,95.2054700856757L59.25981596374512,94.40867981314184L59.85839996337891,90.14380975991062L60.456983963012696,84.96325611176657L61.05556796264648,83.31138526518349L61.65415196228027,90.18515160544254L62.25273596191406,91.68778279359779L62.85131996154785,88.21997747961511L63.44990396118164,82.35249540131183L64.04848796081542,93.687907645399L64.64707196044922,94.08072748594218L65.24565596008301,96.06417180093077L65.8442399597168,92.01098115793583L66.44282395935059,89.87035784051041L67.04140795898438,88.00339871309531L67.63999195861817,84.55288568902371L68.23857595825196,91.8039280650708L68.83715995788575,85.66803602650629L69.43574395751953,80.23874839270499L70.03432795715332,82.5157271130005L70.63291195678711,79.80382438689269L71.2314959564209,79.9244351618906L71.83007995605469,75.91871166860425L72.42866395568848,85.45825637911636L73.02724795532227,80.98675680960231L73.62583195495606,90.82942101133769L74.22441595458984,83.0442853150154L74.82299995422363,78.08191282885056L75.42158395385742,71.90027558419789L76.02016795349121,71.68679805873153L76.618751953125,69.51966806441763L77.21733595275879,69.38455734153203L77.81591995239258,66.09927715484687L78.41450395202637,65.0019852481671L79.01308795166015,70.46074654169543L79.61167195129394,71.98825090714978L80.21025595092775,73.19604459479382L80.80883995056153,71.88167732834617L81.40742395019532,67.0149640099755L82.00600794982911,64.38623008754152L82.6045919494629,65.7219094184465L83.20317594909669,68.56236349624056L83.80175994873048,69.97534487454554L84.40034394836425,78.10543741276746L84.99892794799804,69.29276171855409L85.59751194763183,68.08324626031117L86.19609594726562,75.51371690193565L86.79467994689941,72.68969557567141L87.3932639465332,68.37365116370195L87.99184794616698,66.94919479044002L88.59043194580077,68.42485851410534L89.18901594543456,66.68862813231063L89.78759994506835,61.27750587636025L90.38618394470214,63.856674891737725L90.98476794433593,67.15193171184386L91.58335194396973,62.72065829799993L92.18193594360352,63.55739907101881L92.78051994323731,67.8462424247438L93.3791039428711,64.8849971364025L93.97768794250489,60.195327278815384L94.57627194213867,61.4596153225482L95.17485594177246,63.965940559450516L95.77343994140625,64.88715356484903L96.37202394104004,68.93538618941336L96.97060794067383,64.95589825824437L97.56919194030762,65.77241925249679L98.16777593994141,64.5145794383856L98.7663599395752,63.17729041295901L99.36494393920898,60.627164587040454L99.96352793884277,58.80579802311787L100.56211193847656,60.33460670075827L101.16069593811036,61.54318297571393L101.75927993774415,59.35540905632196L102.35786393737794,56.00369822543574L102.95644793701172,60.98368436977148L103.5550319366455,62.2239236457103L104.1536159362793,62.09418800572527L104.75219993591308,64.05539310098531L105.35078393554687,63.484363747478724L105.94936793518066,61.68528479308358L106.54795193481445,58.275499872824014L107.14653593444824,61.47288915287314L107.74511993408203,61.934861378611416L108.34370393371582,63.37721198775715L108.9422879333496,63.66004021650167L109.54087193298339,61.499399606125934L110.13945593261718,56.707510418575225L110.73803993225097,56.74529659041018L111.33662393188476,54.72892181426009L111.93520793151855,50.31488319561625L112.53379193115235,51.74454998271506L113.13237593078614,52.60235005497432L113.73095993041993,56.02995278291225L114.32954393005372,55.75617687205251L114.9281279296875,54.13544998324548L115.5267119293213,56.075936534543644L116.12529592895508,56.366352259991245L116.72387992858887,56.83189276363122L117.32246392822266,59.4415546134377L117.92104792785645,56.34667662807661L118.51963192749024,54.781043905448385L119.11821592712403,54.42424640861432L119.71679992675782,54.79275304747378L120.3153839263916,55.01385703078944L120.91396792602539,57.1855659000299L121.51255192565918,55.5756685369918L122.11113592529296,53.73585391383763L122.70971992492674,53.7971324136479L123.30830392456053,51.79485303428298L123.90688792419434,52.6325318859151L124.50547192382813,52.552557060151486L125.10405592346191,53.669739438396064L125.7026399230957,53.46617266001152L126.30122392272949,55.09178500364338L126.89980792236328,56.06715240982251L127.49839192199707,56.36108178515856L128.09697592163084,55.37226913644042L128.69555992126465,54.19639941046667L129.29414392089845,56.112506190876374L129.89272792053222,55.22312377987113L130.49131192016603,57.019831880890465L131.0898959197998,56.93268946779932L131.6884799194336,53.67618726677384L132.28706391906738,54.92650269932936L132.88564791870118,56.84185923256541L133.48423191833496,56.534614810432856L134.08281591796876,55.47638895160503L134.68139991760253,57.75437612089067L135.27998391723634,58.53858328550221L135.8785679168701,59.0091075842691L136.4771519165039,55.21333520546115L137.0757359161377,54.10103905187911L137.6743199157715,56.637875112683716L138.2729039154053,54.66446892762423L138.87148791503907,57.26722410650221L139.47007191467287,58.828877213828974L140.06865591430665,57.435531530602546L140.66723991394042,56.89081818925513L141.26582391357422,54.52494370519564L141.864407913208,53.39671008313137L142.4629919128418,49.80684722531046L143.06157591247558,49.10939085290907L143.66015991210938,48.69091702946827L144.25874391174315,49.89629407769495L144.85732791137696,52.07598164892214L145.45591191101073,52.80120905469856L146.05449591064453,50.323425813799076L146.6530799102783,48.54546480088791L147.2516639099121,50.68289894587804L147.85024790954589,54.8782821174545L148.4488319091797,54.48258933581798L149.04741590881346,55.41034394075584L149.64599990844727,56.549581840678414L150.24458390808107,54.611492964421046L150.84316790771484,53.44863963866662L151.44175190734865,53.0422217118024L152.04033590698242,52.50707688709542L152.63891990661622,52.477284060859674L153.23750390625,49.83777974912428L153.8360879058838,49.41924143556882L154.43467190551758,48.87682737906411L155.03325590515138,47.38620867124152L155.63183990478515,47.94829878883917L156.23042390441896,47.994261791026304L156.82900790405273,49.7695950032182L157.42759190368653,50.252209793573456L158.0261759033203,51.415654873117944L158.6247599029541,52.11372192084464L159.22334390258789,51.949977012520776L159.8219279022217,51.269147930783575L160.4205119018555,53.19098802936375L161.01909590148927,53.76150695155198L161.61767990112307,54.395109373236366L162.21626390075684,55.94044110016674L162.81484790039065,57.45022227306784L163.41343190002442,56.608338566145875L164.01201589965822,56.394502410581126L164.610599899292,52.77069289570004L165.2091838989258,53.218035802765314L165.80776789855958,52.90385941026163L166.40635189819338,52.42405950617098L167.00493589782715,53.88393497459619L167.60351989746096,54.46856618706289L168.20210389709473,55.401930051502774L168.8006878967285,54.79677809624698L169.39927189636228,57.34660960767586L169.99785589599608,57.12875610387056L170.59643989562986,55.54158265929618L171.19502389526366,54.00669345559169L171.79360789489743,52.2118867282547L172.39219189453124,52.88275210229811L172.99077589416504,49.49847243681049L173.58935989379881,50.08953625372884L174.18794389343262,50.73546561225129L174.7865278930664,50.83173215899332L175.3851118927002,50.30690995029565L175.98369589233397,51.73976603552269L176.58227989196777,53.473358892207216L177.18086389160155,53.34834433229818L177.77944789123535,52.69075045939289L178.37803189086912,50.83973279335855L178.97661589050293,50.31171033091482L179.5751998901367,51.45135519552275L180.1737838897705,51.84385104591607L180.77236788940428,54.70097717214598L181.37095188903808,55.832667710924085L181.96953588867186,53.01617421264868L182.56811988830566,52.20015731923175L183.16670388793946,54.040884730804095L183.76528788757324,53.10627469849645L184.36387188720704,51.96292654236899L184.96245588684081,50.40303844314421L185.56103988647462,52.08873719982026L186.1596238861084,50.478524837614984L186.7582078857422,50.3862766258401L187.35679188537597,51.78738604084937L187.95537588500977,49.42384093711813L188.55395988464355,49.46217521717057L189.15254388427735,48.90258764802513L189.75112788391112,50.02329644882906L190.34971188354493,50.695721729311416L190.9482958831787,52.555638239892005L191.5468798828125,51.34125359883487L192.1454638824463,52.651666293234655L192.74404788208008,53.146619841286096L193.34263188171388,52.86100983337407L193.94121588134766,52.10705869166699L194.53979988098146,49.615644527608694L195.13838388061524,46.955625755253976L195.73696788024904,46.816075834132334L196.33555187988281,46.73234588145934L196.93413587951662,49.595027594220895L197.5327198791504,49.85617827980366L198.1313038787842,50.01286869115333L198.72988787841797,49.81559186959166L199.32847187805177,49.988516845026126L199.92705587768555,48.34451941962416L200.52563987731935,48.52328523786875L201.12422387695312,49.21313286599238L201.72280787658693,49.33575037449509L202.32139187622073,49.40932087959672L202.9199758758545,50.0360453194006L203.5185598754883,50.70337105165437L204.11714387512208,51.103766491006596L204.71572787475588,51.05271268624652L205.31431187438966,50.73078933501904L205.91289587402343,51.120217461025405L206.5114798736572,51.06258326825781L207.110063873291,53.35834030021972L207.7086478729248,54.444503451025454L208.3072318725586,53.639739999217696L208.90581587219236,51.99171465443031L209.50439987182617,52.45935778963204L210.10298387145994,52.44865260238163L210.70156787109374,53.8986908323226L211.30015187072752,53.894834564738844L211.89873587036132,55.348982146479784L212.4973198699951,54.47371828486175L213.0959038696289,54.23985103626234L213.69448786926267,54.39082475569113L214.29307186889648,55.06399412430828L214.89165586853028,53.72014033459895L215.49023986816405,52.33124592403048L216.08882386779786,51.497909277689416L216.68740786743163,52.45436563195895L217.28599186706543,53.31953351310912L217.8845758666992,50.34312942047397L218.483159866333,50.01374830718406L219.08174386596679,51.56386904965572L219.6803278656006,51.32877422143599L220.27891186523436,49.43996491384151L220.87749586486817,49.76314067157601L221.47607986450194,49.957046126216724L222.07466386413574,48.908219125081416L222.67324786376952,49.44409319831996L223.27183186340332,50.639493847594395L223.8704158630371,49.60897882627944L224.4689998626709,52.4861776350327L225.0675838623047,52.75603557799347L225.66616786193848,51.46149200169576L226.26475186157228,52.432515266362756L226.86333586120605,50.976082745911896L227.46191986083986,48.93705896015561L228.06050386047363,50.626564373067254L228.65908786010743,51.348976552442764L229.2576718597412,51.49112979147965L229.856255859375,52.15900687186166L230.45483985900879,51.68585691475954L231.0534238586426,49.0716263926588L231.65200785827636,48.08567621657522L232.25059185791017,47.785397179296496L232.84917585754394,48.770400030849004L233.44775985717774,49.65269281015196L234.04634385681152,50.47335954610516L234.64492785644532,50.67446851930565L235.24351185607912,50.212551766483074L235.8420958557129,48.770231440869765L236.4406798553467,49.36130058779297L237.03926385498048,51.463694486609526L237.63784785461428,50.686087346865364L238.23643185424805,49.34564385747059L238.83501585388186,49.70654803775348L239.43359985351563,51.3795488879974L240.03218385314943,51.50947319281241L240.6307678527832,50.4222575017817L241.229351852417,50.93509836108299L241.82793585205079,49.786341534372625L242.4265198516846,49.67967557552325L243.02510385131836,51.946010547619125L243.62368785095214,50.392888846294284L244.2222718505859,52.37393851008173L244.82085585021971,51.8148158976916L245.4194398498535,50.31417205633777L246.0180238494873,49.99637388870232L246.61660784912107,49.51439791931563L247.21519184875487,48.642630200940744L247.81377584838867,47.82827850154439L248.41235984802245,48.79612882419772L249.01094384765625,48.50295981224144L249.60952784729002,50.074813815947294L250.20811184692383,52.183093491873535L250.8066958465576,51.117726750023806L251.4052798461914,51.35237991002826L252.00386384582518,50.91058966928807L252.60244784545898,52.101973866918144L253.20103184509276,54.273265727787376L253.79961584472656,53.53699736527484L254.39819984436033,53.095236347767326L254.99678384399414,55.74309942162819L255.5953678436279,55.584064855282094L256.1939518432617,54.03218277318325L256.7925358428955,55.43139107154644L257.3911198425293,55.10574877686159L257.98970384216307,53.162610989388085L258.5882878417969,53.45318665897814L259.1868718414307,51.2971945131097L259.78545584106445,51.16876949950837L260.3840398406982,50.21783528579927L260.98262384033205,50.52115396312212L261.5812078399658,52.450897580178435L262.1797918395996,54.482619955743544L262.7783758392334,53.3713158334601L263.3769598388672,53.28711849704992L263.975543838501,53.527891163575234L264.57412783813476,52.21589642141626L265.17271183776853,51.71999064449231L265.77129583740236,51.42244717833792L266.36987983703614,51.243921098645316L266.9684638366699,50.26292624528142L267.56704783630374,50.839499607182844L268.1656318359375,52.059319829654996L268.7642158355713,52.20862982639542" fill="none"></path></g></g></g></g><g opacity="0.2"><g><g><g><path style="fill: none;" stroke="rgb(0, 153, 136)" stroke-width="2px" d="M29.929199981689454,117.97333272298178L30.52778398132324,117.97333272298178L31.12636798095703,117.97333272298178L31.72495198059082,115.78864220965349L32.32353598022461,109.96279834059726L32.9221199798584,129.62502046109424L33.52070397949219,126.71209852656611L34.11928797912598,109.96279834059726L34.71787197875977,116.51687363085333L35.316455978393556,107.778107827269L35.915039978027345,116.51687363085333L36.51362397766113,127.44032994776595L37.11220797729492,117.97333272298178L37.71079197692871,135.45086433015047L38.3093759765625,134.72263290895063L38.90795997619629,109.23457066966867L39.50654397583008,101.22402878674167L40.10512797546387,106.32164498486931L40.70371197509766,131.08147955322266L41.30229597473145,107.778107827269L41.90087997436524,103.40872680061246L42.49946397399902,111.41926118299695L43.09804797363281,95.39819241822795L43.6966319732666,104.86518214246964L44.29521597290039,102.68049162914136L44.893799972534175,108.50633549819759L45.492383972167964,139.820245356807L46.09096797180176,108.50633549819759L46.68955197143555,127.44032994776595L47.28813597106934,100.49580111581308L47.886719970703126,110.69102601152586L48.485303970336915,82.2900418377158L49.083887969970704,96.12642008915654L49.68247196960449,91.0288038910289L50.28105596923828,94.66995724675685L50.87963996887208,104.86518214246964L51.47822396850586,99.76757344488449L52.07680796813965,101.22402878674167L52.675391967773436,90.30057622010031L53.273975967407225,112.14748885392554L53.87255996704101,121.61448607870973L54.4711439666748,89.5723485491717L55.06972796630859,93.94172957582826L55.66831196594238,99.03933827341339L56.266895965576175,98.31111060248482L56.865479965209964,77.92066081105925L57.46406396484375,112.14748885392554L58.06264796447754,90.30057622010031L58.66123196411133,94.66995724675685L59.25981596374512,93.21349440435718L59.85839996337891,83.74650468011549L60.456983963012696,77.19242563958817L61.05556796264648,80.83357899531613L61.65415196228027,100.49580111581308L62.25273596191406,93.94172957582826L62.85131996154785,83.0182695086444L63.44990396118164,73.55127228386021L64.04848796081542,110.69102601152586L64.64707196044922,94.66995724675685L65.24565596008301,99.03933827341339L65.8442399597168,85.93119519344376L66.44282395935059,86.65942286437235L67.04140795898438,85.20296002197266L67.63999195861817,79.37711615291644L68.23857595825196,102.68049162914136L68.83715995788575,76.46419796865958L69.43574395751953,72.09481694200302L70.03432795715332,85.93119519344376L70.63291195678711,75.73597029773099L71.2314959564209,80.10535132438753L71.83007995605469,69.91012642867476L72.42866395568848,99.76757344488449L73.02724795532227,74.2795074553313L73.62583195495606,105.59341731394072L74.22441595458984,71.36658177053194L74.82299995422363,70.63835409960333L75.42158395385742,62.62781971721884L76.02016795349121,71.36658177053194L76.618751953125,66.2689730729468L77.21733595275879,69.18189125720366L77.81591995239258,61.17135687481915L78.41450395202637,63.356047388147445L79.01308795166015,78.64888848198784L79.61167195129394,74.2795074553313L80.21025595092775,75.00773512625989L80.80883995056153,69.91012642867476L81.40742395019532,59.714894032419494L82.00600794982911,60.443129203890564L82.6045919494629,67.72542841480397L83.20317594909669,72.82304461293162L83.80175994873048,72.09481694200302L84.40034394836425,90.30057622010031L84.99892794799804,56.07374817723401L85.59751194763183,66.2689730729468L86.19609594726562,86.65942286437235L86.79467994689941,68.45366358627507L87.3932639465332,61.89958454574776L87.99184794616698,64.81251023054712L88.59043194580077,70.63835409960333L89.18901594543456,64.08428255961852L89.78759994506835,53.16082249243465L90.38618394470214,67.72542841480397L90.98476794433593,72.09481694200302L91.58335194396973,56.07374817723401L92.18193594360352,64.81251023054712L92.78051994323731,74.2795074553313L93.3791039428711,60.443129203890564L93.97768794250489,53.16082249243465L94.57627194213867,63.356047388147445L95.17485594177246,67.72542841480397L95.77343994140625,66.2689730729468L96.37202394104004,75.00773512625989L96.97060794067383,58.98666636149089L97.56919194030762,66.99720074387538L98.16777593994141,62.62781971721884L98.7663599395752,61.17135687481915L99.36494393920898,56.80197584816261L99.96352793884277,56.07374817723401L100.56211193847656,62.62781971721884L101.16069593811036,63.356047388147445L101.75927993774415,56.07374817723401L102.35786393737794,50.976131979106384L102.95644793701172,68.45366358627507L103.5550319366455,64.08428255961852L104.1536159362793,61.89958454574776L104.75219993591308,66.99720074387538L105.35078393554687,62.62781971721884L105.94936793518066,58.98666636149089L106.54795193481445,53.16082249243465L107.14653593444824,66.2689730729468L107.74511993408203,62.62781971721884L108.34370393371582,65.54073790147571L108.9422879333496,64.08428255961852L109.54087193298339,58.2584386905623L110.13945593261718,49.51967663724919L110.73803993225097,56.80197584816261L111.33662393188476,51.704359650034974L111.93520793151855,43.69382526765048L112.53379193115235,53.88905016336325L113.13237593078614,53.88905016336325L113.73095993041993,61.17135687481915L114.32954393005372,55.34551300576294L114.9281279296875,51.704359650034974L115.5267119293213,58.98666636149089L116.12529592895508,56.80197584816261L116.72387992858887,57.5302035190912L117.32246392822266,63.356047388147445L117.92104792785645,51.704359650034974L118.51963192749024,52.43259482150606L119.11821592712403,53.88905016336325L119.71679992675782,55.34551300576294L120.3153839263916,55.34551300576294L120.91396792602539,60.443129203890564L121.51255192565918,53.16082249243465L122.11113592529296,50.976131979106384L122.70971992492674,53.88905016336325L123.30830392456053,48.791433965235626L123.90688792419434,53.88905016336325L124.50547192382813,52.43259482150606L125.10405592346191,55.34551300576294L125.7026399230957,53.16082249243465L126.30122392272949,57.5302035190912L126.89980792236328,57.5302035190912L127.49839192199707,56.80197584816261L128.09697592163084,53.88905016336325L128.69555992126465,52.43259482150606L129.29414392089845,58.98666636149089L129.89272792053222,53.88905016336325L130.49131192016603,59.714894032419494L131.0898959197998,56.80197584816261L131.6884799194336,48.791433965235626L132.28706391906738,56.80197584816261L132.88564791870118,59.714894032419494L133.48423191833496,56.07374817723401L134.08281591796876,53.88905016336325L134.68139991760253,61.17135687481915L135.27998391723634,59.714894032419494L135.8785679168701,59.714894032419494L136.4771519165039,49.51967663724919L137.0757359161377,52.43259482150606L137.6743199157715,60.443129203890564L138.2729039154053,51.704359650034974L138.87148791503907,61.17135687481915L139.47007191467287,61.17135687481915L140.06865591430665,55.34551300576294L140.66723991394042,56.07374817723401L141.26582391357422,50.976131979106384L141.864407913208,51.704359650034974L142.4629919128418,44.42205293857907L143.06157591247558,48.06320629430704L143.66015991210938,48.06320629430704L144.25874391174315,51.704359650034974L144.85732791137696,55.34551300576294L145.45591191101073,53.88905016336325L146.05449591064453,46.60675095244983L146.6530799102783,45.87852328152124L147.2516639099121,53.88905016336325L147.85024790954589,61.17135687481915L148.4488319091797,53.88905016336325L149.04741590881346,56.80197584816261L149.64599990844727,58.2584386905623L150.24458390808107,51.704359650034974L150.84316790771484,51.704359650034974L151.44175190734865,52.43259482150606L152.04033590698242,51.704359650034974L152.63891990661622,52.43259482150606L153.23750390625,45.87852328152124L153.8360879058838,48.791433965235626L154.43467190551758,48.06320629430704L155.03325590515138,45.15028060950766L155.63183990478515,48.791433965235626L156.23042390441896,48.06320629430704L156.82900790405273,52.43259482150606L157.42759190368653,50.976131979106384L158.0261759033203,53.16082249243465L158.6247599029541,53.16082249243465L159.22334390258789,51.704359650034974L159.8219279022217,50.247904308177795L160.4205119018555,56.07374817723401L161.01909590148927,54.617285334834335L161.61767990112307,55.34551300576294L162.21626390075684,58.2584386905623L162.81484790039065,59.714894032419494L163.41343190002442,55.34551300576294L164.01201589965822,56.07374817723401L164.610599899292,47.33497862337842L165.2091838989258,53.88905016336325L165.80776789855958,52.43259482150606L166.40635189819338,51.704359650034974L167.00493589782715,56.07374817723401L167.60351989746096,55.34551300576294L168.20210389709473,56.80197584816261L168.8006878967285,53.88905016336325L169.39927189636228,61.17135687481915L169.99785589599608,56.80197584816261L170.59643989562986,53.16082249243465L171.19502389526366,51.704359650034974L171.79360789489743,49.51967663724919L172.39219189453124,53.88905016336325L172.99077589416504,44.42205293857907L173.58935989379881,50.976131979106384L174.18794389343262,51.704359650034974L174.7865278930664,50.976131979106384L175.3851118927002,49.51967663724919L175.98369589233397,53.88905016336325L176.58227989196777,56.07374817723401L177.18086389160155,53.16082249243465L177.77944789123535,51.704359650034974L178.37803189086912,48.06320629430704L178.97661589050293,49.51967663724919L179.5751998901367,53.16082249243465L180.1737838897705,52.43259482150606L180.77236788940428,58.98666636149089L181.37095188903808,57.5302035190912L181.96953588867186,48.791433965235626L182.56811988830566,50.976131979106384L183.16670388793946,56.80197584816261L183.76528788757324,51.704359650034974L184.36387188720704,50.247904308177795L184.96245588684081,48.06320629430704L185.56103988647462,54.617285334834335L186.1596238861084,48.06320629430704L186.7582078857422,50.247904308177795L187.35679188537597,53.88905016336325L187.95537588500977,45.87852328152124L188.55395988464355,49.51967663724919L189.15254388427735,48.06320629430704L189.75112788391112,51.704359650034974L190.34971188354493,51.704359650034974L190.9482958831787,55.34551300576294L191.5468798828125,49.51967663724919L192.1454638824463,54.617285334834335L192.74404788208008,53.88905016336325L193.34263188171388,52.43259482150606L193.94121588134766,50.976131979106384L194.53979988098146,45.87852328152124L195.13838388061524,42.965597596721864L195.73696788024904,46.60675095244983L196.33555187988281,46.60675095244983L196.93413587951662,53.88905016336325L197.5327198791504,50.247904308177795L198.1313038787842,50.247904308177795L198.72988787841797,49.51967663724919L199.32847187805177,50.247904308177795L199.92705587768555,45.87852328152124L200.52563987731935,48.791433965235626L201.12422387695312,50.247904308177795L201.72280787658693,49.51967663724919L202.32139187622073,49.51967663724919L202.9199758758545,50.976131979106384L203.5185598754883,51.704359650034974L204.11714387512208,51.704359650034974L204.71572787475588,50.976131979106384L205.31431187438966,50.247904308177795L205.91289587402343,51.704359650034974L206.5114798736572,50.976131979106384L207.110063873291,56.80197584816261L207.7086478729248,56.07374817723401L208.3072318725586,52.43259482150606L208.90581587219236,49.51967663724919L209.50439987182617,53.16082249243465L210.10298387145994,52.43259482150606L210.70156787109374,56.07374817723401L211.30015187072752,53.88905016336325L211.89873587036132,57.5302035190912L212.4973198699951,53.16082249243465L213.0959038696289,53.88905016336325L213.69448786926267,54.617285334834335L214.29307186889648,56.07374817723401L214.89165586853028,51.704359650034974L215.49023986816405,50.247904308177795L216.08882386779786,50.247904308177795L216.68740786743163,53.88905016336325L217.28599186706543,54.617285334834335L217.8845758666992,45.87852328152124L218.483159866333,49.51967663724919L219.08174386596679,53.88905016336325L219.6803278656006,50.976131979106384L220.27891186523436,46.60675095244983L220.87749586486817,50.247904308177795L221.47607986450194,50.247904308177795L222.07466386413574,47.33497862337842L222.67324786376952,50.247904308177795L223.27183186340332,52.43259482150606L223.8704158630371,48.06320629430704L224.4689998626709,56.80197584816261L225.0675838623047,53.16082249243465L225.66616786193848,49.51967663724919L226.26475186157228,53.88905016336325L226.86333586120605,48.791433965235626L227.46191986083986,45.87852328152124L228.06050386047363,53.16082249243465L228.65908786010743,52.43259482150606L229.2576718597412,51.704359650034974L229.856255859375,53.16082249243465L230.45483985900879,50.976131979106384L231.0534238586426,45.15028060950766L231.65200785827636,46.60675095244983L232.25059185791017,47.33497862337842L232.84917585754394,50.247904308177795L233.44775985717774,50.976131979106384L234.04634385681152,51.704359650034974L234.64492785644532,50.976131979106384L235.24351185607912,49.51967663724919L235.8420958557129,46.60675095244983L236.4406798553467,50.247904308177795L237.03926385498048,54.617285334834335L237.63784785461428,49.51967663724919L238.23643185424805,47.33497862337842L238.83501585388186,50.247904308177795L239.43359985351563,53.88905016336325L240.03218385314943,51.704359650034974L240.6307678527832,48.791433965235626L241.229351852417,51.704359650034974L241.82793585205079,48.06320629430704L242.4265198516846,49.51967663724919L243.02510385131836,55.34551300576294L243.62368785095214,48.06320629430704L244.2222718505859,55.34551300576294L244.82085585021971,50.976131979106384L245.4194398498535,48.06320629430704L246.0180238494873,49.51967663724919L246.61660784912107,48.791433965235626L247.21519184875487,47.33497862337842L247.81377584838867,46.60675095244983L248.41235984802245,50.247904308177795L249.01094384765625,48.06320629430704L249.60952784729002,52.43259482150606L250.20811184692383,55.34551300576294L250.8066958465576,49.51967663724919L251.4052798461914,51.704359650034974L252.00386384582518,50.247904308177795L252.60244784545898,53.88905016336325L253.20103184509276,57.5302035190912L253.79961584472656,52.43259482150606L254.39819984436033,52.43259482150606L254.99678384399414,59.714894032419494L255.5953678436279,55.34551300576294L256.1939518432617,51.704359650034974L256.7925358428955,57.5302035190912L257.3911198425293,54.617285334834335L257.98970384216307,50.247904308177795L258.5882878417969,53.88905016336325L259.1868718414307,48.06320629430704L259.78545584106445,50.976131979106384L260.3840398406982,48.791433965235626L260.98262384033205,50.976131979106384L261.5812078399658,55.34551300576294L262.1797918395996,57.5302035190912L262.7783758392334,51.704359650034974L263.3769598388672,53.16082249243465L263.975543838501,53.88905016336325L264.57412783813476,50.247904308177795L265.17271183776853,50.976131979106384L265.77129583740236,50.976131979106384L266.36987983703614,50.976131979106384L266.9684638366699,48.791433965235626L267.56704783630374,51.704359650034974L268.1656318359375,53.88905016336325L268.7642158355713,52.43259482150606" fill="none"></path></g></g></g></g></g></g><g transform="translate(30, 176)" clip-path="url(#clip_1)"><clipPath id="clip_1"><rect width="299" height="23"></rect></clipPath><g><g><line x1="0" y1="0" x2="0" y2="5" style="visibility: inherit;" fill="rgb(0, 0, 0)" stroke="rgb(204, 204, 204)" stroke-width="1px"></line><line x1="29.929199981689454" y1="0" x2="29.929199981689454" y2="5" style="visibility: inherit;" fill="rgb(0, 0, 0)" stroke="rgb(204, 204, 204)" stroke-width="1px"></line><line x1="59.85839996337891" y1="0" x2="59.85839996337891" y2="5" style="visibility: inherit;" fill="rgb(0, 0, 0)" stroke="rgb(204, 204, 204)" stroke-width="1px"></line><line x1="89.78759994506835" y1="0" x2="89.78759994506835" y2="5" style="visibility: inherit;" fill="rgb(0, 0, 0)" stroke="rgb(204, 204, 204)" stroke-width="1px"></line><line x1="119.71679992675782" y1="0" x2="119.71679992675782" y2="5" style="visibility: inherit;" fill="rgb(0, 0, 0)" stroke="rgb(204, 204, 204)" stroke-width="1px"></line><line x1="149.64599990844727" y1="0" x2="149.64599990844727" y2="5" style="visibility: inherit;" fill="rgb(0, 0, 0)" stroke="rgb(204, 204, 204)" stroke-width="1px"></line><line x1="179.5751998901367" y1="0" x2="179.5751998901367" y2="5" style="visibility: inherit;" fill="rgb(0, 0, 0)" stroke="rgb(204, 204, 204)" stroke-width="1px"></line><line x1="209.50439987182617" y1="0" x2="209.50439987182617" y2="5" style="visibility: inherit;" fill="rgb(0, 0, 0)" stroke="rgb(204, 204, 204)" stroke-width="1px"></line><line x1="239.43359985351563" y1="0" x2="239.43359985351563" y2="5" style="visibility: inherit;" fill="rgb(0, 0, 0)" stroke="rgb(204, 204, 204)" stroke-width="1px"></line><line x1="269.36279983520507" y1="0" x2="269.36279983520507" y2="5" style="visibility: inherit;" fill="rgb(0, 0, 0)" stroke="rgb(204, 204, 204)" stroke-width="1px"></line><line x1="299.29199981689453" y1="0" x2="299.29199981689453" y2="5" style="visibility: inherit;" fill="rgb(0, 0, 0)" stroke="rgb(204, 204, 204)" stroke-width="1px"></line></g><g transform="translate(0, 8)"><text style="text-anchor: middle; visibility: hidden; font-family: &quot;Helvetica Neue&quot;, sans-serif; font-size: 12px; font-weight: 200;" x="0" y="0" dx="0em" dy="0.95em" fill="rgb(33, 33, 33)" stroke="none" stroke-width="1px">-50</text><text style="text-anchor: middle; visibility: inherit; font-family: &quot;Helvetica Neue&quot;, sans-serif; font-size: 12px; font-weight: 200;" x="29.929199981689454" y="0" dx="0em" dy="0.95em" fill="rgb(33, 33, 33)" stroke="none" stroke-width="1px">0</text><text style="text-anchor: middle; visibility: inherit; font-family: &quot;Helvetica Neue&quot;, sans-serif; font-size: 12px; font-weight: 200;" x="59.85839996337891" y="0" dx="0em" dy="0.95em" fill="rgb(33, 33, 33)" stroke="none" stroke-width="1px">50</text><text style="text-anchor: middle; visibility: inherit; font-family: &quot;Helvetica Neue&quot;, sans-serif; font-size: 12px; font-weight: 200;" x="89.78759994506835" y="0" dx="0em" dy="0.95em" fill="rgb(33, 33, 33)" stroke="none" stroke-width="1px">100</text><text style="text-anchor: middle; visibility: inherit; font-family: &quot;Helvetica Neue&quot;, sans-serif; font-size: 12px; font-weight: 200;" x="119.71679992675782" y="0" dx="0em" dy="0.95em" fill="rgb(33, 33, 33)" stroke="none" stroke-width="1px">150</text><text style="text-anchor: middle; visibility: inherit; font-family: &quot;Helvetica Neue&quot;, sans-serif; font-size: 12px; font-weight: 200;" x="149.64599990844727" y="0" dx="0em" dy="0.95em" fill="rgb(33, 33, 33)" stroke="none" stroke-width="1px">200</text><text style="text-anchor: middle; visibility: inherit; font-family: &quot;Helvetica Neue&quot;, sans-serif; font-size: 12px; font-weight: 200;" x="179.5751998901367" y="0" dx="0em" dy="0.95em" fill="rgb(33, 33, 33)" stroke="none" stroke-width="1px">250</text><text style="text-anchor: middle; visibility: inherit; font-family: &quot;Helvetica Neue&quot;, sans-serif; font-size: 12px; font-weight: 200;" x="209.50439987182617" y="0" dx="0em" dy="0.95em" fill="rgb(33, 33, 33)" stroke="none" stroke-width="1px">300</text><text style="text-anchor: middle; visibility: inherit; font-family: &quot;Helvetica Neue&quot;, sans-serif; font-size: 12px; font-weight: 200;" x="239.43359985351563" y="0" dx="0em" dy="0.95em" fill="rgb(33, 33, 33)" stroke="none" stroke-width="1px">350</text><text style="text-anchor: middle; visibility: inherit; font-family: &quot;Helvetica Neue&quot;, sans-serif; font-size: 12px; font-weight: 200;" x="269.36279983520507" y="0" dx="0em" dy="0.95em" fill="rgb(33, 33, 33)" stroke="none" stroke-width="1px">400</text><text style="text-anchor: middle; visibility: hidden; font-family: &quot;Helvetica Neue&quot;, sans-serif; font-size: 12px; font-weight: 200;" x="299.29199981689453" y="0" dx="0em" dy="0.95em" fill="rgb(33, 33, 33)" stroke="none" stroke-width="1px">450</text></g><line x1="0" y1="0" x2="299.29199981689453" y2="0" fill="rgb(0, 0, 0)" stroke="rgb(204, 204, 204)" stroke-width="1px"></line></g></g></g></g></svg>