<svg viewBox="0 0 330 200" xmlns="http://www.w3.org/2000/svg"><g><g><g><g><g><line x1="30.70800018310547" y1="176.95999908447266" x2="25.70800018310547" y2="176.95999908447266" style="visibility: inherit;" fill="rgb(0, 0, 0)" stroke="rgb(204, 204, 204)" stroke-width="1px"></line><line x1="30.70800018310547" y1="157.2977769639757" x2="25.70800018310547" y2="157.2977769639757" style="visibility: inherit;" fill="rgb(0, 0, 0)" stroke="rgb(204, 204, 204)" stroke-width="1px"></line><line x1="30.70800018310547" y1="137.63555484347873" x2="25.70800018310547" y2="137.63555484347873" style="visibility: inherit;" fill="rgb(0, 0, 0)" stroke="rgb(204, 204, 204)" stroke-width="1px"></line><line x1="30.70800018310547" y1="117.97333272298178" x2="25.70800018310547" y2="117.97333272298178" style="visibility: inherit;" fill="rgb(0, 0, 0)" stroke="rgb(204, 204, 204)" stroke-width="1px"></line><line x1="30.70800018310547" y1="98.31111060248482" x2="25.70800018310547" y2="98.31111060248482" style="visibility: inherit;" fill="rgb(0, 0, 0)" stroke="rgb(204, 204, 204)" stroke-width="1px"></line><line x1="30.70800018310547" y1="78.64888848198784" x2="25.70800018310547" y2="78.64888848198784" style="visibility: inherit;" fill="rgb(0, 0, 0)" stroke="rgb(204, 204, 204)" stroke-width="1px"></line><line x1="30.70800018310547" y1="58.98666636149089" x2="25.70800018310547" y2="58.98666636149089" style="visibility: inherit;" fill="rgb(0, 0, 0)" stroke="rgb(204, 204, 204)" stroke-width="1px"></line><line x1="30.70800018310547" y1="39.32444424099393" x2="25.70800018310547" y2="39.32444424099393" style="visibility: inherit;" fill="rgb(0, 0, 0)" stroke="rgb(204, 204, 204)" stroke-width="1px"></line><line x1="30.70800018310547" y1="19.662222120496978" x2="25.70800018310547" y2="19.662222120496978" style="visibility: inherit;" fill="rgb(0, 0, 0)" stroke="rgb(204, 204, 204)" stroke-width="1px"></line><line x1="30.70800018310547" y1="0" x2="25.70800018310547" y2="0" style="visibility: inherit;" fill="rgb(0, 0, 0)" stroke="rgb(204, 204, 204)" stroke-width="1px"></line></g><g transform="translate(20.70800018310547, 0)"><text style="text-anchor: end; visibility: hidden; font-family: &quot;Helvetica Neue&quot;, sans-serif; font-size: 12px; font-weight: 200;" x="0" y="176.95999908447266" dx="0em" dy="0.3em" fill="rgb(33, 33, 33)" stroke="none" stroke-width="1px">0</text><text style="text-anchor: end; visibility: inherit; font-family: &quot;Helvetica Neue&quot;, sans-serif; font-size: 12px; font-weight: 200;" x="0" y="157.2977769639757" dx="0em" dy="0.3em" fill="rgb(33, 33, 33)" stroke="none" stroke-width="1px">10</text><text style="text-anchor: end; visibility: hidden; font-family: &quot;Helvetica Neue&quot;, sans-serif; font-size: 12px; font-weight: 200;" x="0" y="137.63555484347873" dx="0em" dy="0.3em" fill="rgb(33, 33, 33)" stroke="none" stroke-width="1px">20</text><text style="text-anchor: end; visibility: inherit; font-family: &quot;Helvetica Neue&quot;, sans-serif; font-size: 12px; font-weight: 200;" x="0" y="117.97333272298178" dx="0em" dy="0.3em" fill="rgb(33, 33, 33)" stroke="none" stroke-width="1px">30</text><text style="text-anchor: end; visibility: hidden; font-family: &quot;Helvetica Neue&quot;, sans-serif; font-size: 12px; font-weight: 200;" x="0" y="98.31111060248482" dx="0em" dy="0.3em" fill="rgb(33, 33, 33)" stroke="none" stroke-width="1px">40</text><text style="text-anchor: end; visibility: inherit; font-family: &quot;Helvetica Neue&quot;, sans-serif; font-size: 12px; font-weight: 200;" x="0" y="78.64888848198784" dx="0em" dy="0.3em" fill="rgb(33, 33, 33)" stroke="none" stroke-width="1px">50</text><text style="text-anchor: end; visibility: hidden; font-family: &quot;Helvetica Neue&quot;, sans-serif; font-size: 12px; font-weight: 200;" x="0" y="58.98666636149089" dx="0em" dy="0.3em" fill="rgb(33, 33, 33)" stroke="none" stroke-width="1px">60</text><text style="text-anchor: end; visibility: inherit; font-family: &quot;Helvetica Neue&quot;, sans-serif; font-size: 12px; font-weight: 200;" x="0" y="39.32444424099393" dx="0em" dy="0.3em" fill="rgb(33, 33, 33)" stroke="none" stroke-width="1px">70</text><text style="text-anchor: end; visibility: hidden; font-family: &quot;Helvetica Neue&quot;, sans-serif; font-size: 12px; font-weight: 200;" x="0" y="19.662222120496978" dx="0em" dy="0.3em" fill="rgb(33, 33, 33)" stroke="none" stroke-width="1px">80</text><text style="text-anchor: end; visibility: hidden; font-family: &quot;Helvetica Neue&quot;, sans-serif; font-size: 12px; font-weight: 200;" x="0" y="0" dx="0em" dy="0.3em" fill="rgb(33, 33, 33)" stroke="none" stroke-width="1px">90</text></g><line x1="30.70800018310547" y1="0" x2="30.70800018310547" y2="176.95999908447266" fill="rgb(0, 0, 0)" stroke="rgb(204, 204, 204)" stroke-width="1px"></line></g></g><g transform="translate(30, 0)" clip-path="url(#clip_0)"><clipPath id="clip_0"><rect width="299" height="176"></rect></clipPath><g><g><g><line x1="0" y1="0" x2="0" y2="176.95999908447266" fill="rgb(0, 0, 0)" stroke="rgb(66, 66, 66)" stroke-width="1px" opacity="0.25"></line><line x1="29.929199981689454" y1="0" x2="29.929199981689454" y2="176.95999908447266" fill="rgb(0, 0, 0)" stroke="rgb(66, 66, 66)" stroke-width="1px" opacity="0.25"></line><line x1="59.85839996337891" y1="0" x2="59.85839996337891" y2="176.95999908447266" fill="rgb(0, 0, 0)" stroke="rgb(66, 66, 66)" stroke-width="1px" opacity="0.25"></line><line x1="89.78759994506835" y1="0" x2="89.78759994506835" y2="176.95999908447266" fill="rgb(0, 0, 0)" stroke="rgb(66, 66, 66)" stroke-width="1px" opacity="0.25"></line><line x1="119.71679992675782" y1="0" x2="119.71679992675782" y2="176.95999908447266" fill="rgb(0, 0, 0)" stroke="rgb(66, 66, 66)" stroke-width="1px" opacity="0.25"></line><line x1="149.64599990844727" y1="0" x2="149.64599990844727" y2="176.95999908447266" fill="rgb(0, 0, 0)" stroke="rgb(66, 66, 66)" stroke-width="1px" opacity="0.25"></line><line x1="179.5751998901367" y1="0" x2="179.5751998901367" y2="176.95999908447266" fill="rgb(0, 0, 0)" stroke="rgb(66, 66, 66)" stroke-width="1px" opacity="0.25"></line><line x1="209.50439987182617" y1="0" x2="209.50439987182617" y2="176.95999908447266" fill="rgb(0, 0, 0)" stroke="rgb(66, 66, 66)" stroke-width="1px" opacity="0.25"></line><line x1="239.43359985351563" y1="0" x2="239.43359985351563" y2="176.95999908447266" fill="rgb(0, 0, 0)" stroke="rgb(66, 66, 66)" stroke-width="1px" opacity="0.25"></line><line x1="269.36279983520507" y1="0" x2="269.36279983520507" y2="176.95999908447266" fill="rgb(0, 0, 0)" stroke="rgb(66, 66, 66)" stroke-width="1px" opacity="0.25"></line><line x1="299.29199981689453" y1="0" x2="299.29199981689453" y2="176.95999908447266" fill="rgb(0, 0, 0)" stroke="rgb(66, 66, 66)" stroke-width="1px" opacity="0.25"></line></g><g><line x1="0" y1="176.95999908447266" x2="299.29199981689453" y2="176.95999908447266" fill="rgb(0, 0, 0)" stroke="rgb(66, 66, 66)" stroke-width="1px" opacity="0.25"></line><line x1="0" y1="157.2977769639757" x2="299.29199981689453" y2="157.2977769639757" fill="rgb(0, 0, 0)" stroke="rgb(66, 66, 66)" stroke-width="1px" opacity="0.25"></line><line x1="0" y1="137.63555484347873" x2="299.29199981689453" y2="137.63555484347873" fill="rgb(0, 0, 0)" stroke="rgb(66, 66, 66)" stroke-width="1px" opacity="0.25"></line><line x1="0" y1="117.97333272298178" x2="299.29199981689453" y2="117.97333272298178" fill="rgb(0, 0, 0)" stroke="rgb(66, 66, 66)" stroke-width="1px" opacity="0.25"></line><line x1="0" y1="98.31111060248482" x2="299.29199981689453" y2="98.31111060248482" fill="rgb(0, 0, 0)" stroke="rgb(66, 66, 66)" stroke-width="1px" opacity="0.25"></line><line x1="0" y1="78.64888848198784" x2="299.29199981689453" y2="78.64888848198784" fill="rgb(0, 0, 0)" stroke="rgb(66, 66, 66)" stroke-width="1px" opacity="0.25"></line><line x1="0" y1="58.98666636149089" x2="299.29199981689453" y2="58.98666636149089" fill="rgb(0, 0, 0)" stroke="rgb(66, 66, 66)" stroke-width="1px" opacity="0.25"></line><line x1="0" y1="39.32444424099393" x2="299.29199981689453" y2="39.32444424099393" fill="rgb(0, 0, 0)" stroke="rgb(66, 66, 66)" stroke-width="1px" opacity="0.25"></line><line x1="0" y1="19.662222120496978" x2="299.29199981689453" y2="19.662222120496978" fill="rgb(0, 0, 0)" stroke="rgb(66, 66, 66)" stroke-width="1px" opacity="0.25"></line><line x1="0" y1="0" x2="299.29199981689453" y2="0" fill="rgb(0, 0, 0)" stroke="rgb(66, 66, 66)" stroke-width="1px" opacity="0.25"></line></g></g></g><g><g><line x1="0" y1="176.95999908447266" x2="299.29199981689453" y2="176.95999908447266" fill="rgb(0, 0, 0)" stroke="rgb(153, 153, 153)" stroke-width="1.5px"></line></g></g><g><g><line x1="29.929199981689454" y1="0" x2="29.929199981689454" y2="176.95999908447266" fill="rgb(0, 0, 0)" stroke="rgb(153, 153, 153)" stroke-width="1.5px"></line></g></g><g><g><g><g><g><path style="fill: none;" stroke="rgb(0, 119, 187)" stroke-width="2px" d="M29.929199981689454,120.2562128381241L30.52778398132324,120.2562128381241L31.12636798095703,120.2562128381241L31.72495198059082,116.87196185947342L32.32353598022461,115.14578249145936L32.9221199798584,115.12712815725817L33.52070397949219,114.20736242374946L34.11928797912598,117.26743008590552L34.71787197875977,115.20191115802129L35.316455978393556,111.90150303100964L35.915039978027345,108.16024947176628L36.51362397766113,109.46669801036026L37.11220797729492,106.41438878434609L37.71079197692871,101.63759442963773L38.3093759765625,97.00569443103304L38.90795997619629,99.82626479390058L39.50654397583008,100.92886632087678L40.10512797546387,103.94707057373436L40.70371197509766,98.09863428182493L41.30229597473145,97.83013542703175L41.90087997436524,92.36675658805967L42.49946397399902,93.80190890700219L43.09804797363281,91.4227462627477L43.6966319732666,82.92566287842139L44.29521597290039,84.89702303919935L44.893799972534175,85.49070293329157L45.492383972167964,84.66864879498934L46.09096797180176,83.58628787846757L46.68955197143555,79.99121861678182L47.28813597106934,79.01243838869796L47.886719970703126,77.24691001335945L48.485303970336915,75.0093328235789L49.083887969970704,70.72113443120429L49.68247196960449,73.74495248548685L50.28105596923828,71.1407666090348L50.87963996887208,72.2293428858603L51.47822396850586,77.89009386361114L52.07680796813965,73.03872285242977L52.675391967773436,71.60072478633157L53.273975967407225,66.90858097643665L53.87255996704101,69.69003149730426L54.4711439666748,65.46759770192689L55.06972796630859,64.70152925764515L55.66831196594238,66.89297293816085L56.266895965576175,64.96762278895628L56.865479965209964,66.16893614129282L57.46406396484375,60.99842004879123L58.06264796447754,58.19067469853741L58.66123196411133,57.97885501446257L59.25981596374512,58.73545911959357L59.85839996337891,59.18942158266829L60.456983963012696,60.640059281198745L61.05556796264648,57.386529627805956L61.65415196228027,59.26375680294544L62.25273596191406,56.26618383574112L62.85131996154785,53.28937683451868L63.44990396118164,55.33264060117129L64.04848796081542,53.612946809344635L64.64707196044922,54.34852236538286L65.24565596008301,54.2007360885554L65.8442399597168,54.99576023802592L66.44282395935059,55.76733903282489L67.04140795898438,54.75746178390398L67.63999195861817,52.089582298517826L68.23857595825196,53.13993935377006L68.83715995788575,50.824501535103806L69.43574395751953,52.970019505954966L70.03432795715332,51.311678236648106L70.63291195678711,51.78950100108126L71.2314959564209,50.01423852349053L71.83007995605469,49.243648342269765L72.42866395568848,49.664984148670285L73.02724795532227,53.45256929477847L73.62583195495606,53.66316424619279L74.22441595458984,53.20039260680808L74.82299995422363,52.33359801272695L75.42158395385742,53.580913087412185L76.02016795349121,51.972781690856095L76.618751953125,50.41877424268911L77.21733595275879,46.5407147217544L77.81591995239258,47.454095366127746L78.41450395202637,49.180386973652375L79.01308795166015,50.216161938167176L79.61167195129394,49.65936369597544L80.21025595092775,49.91441336089369L80.80883995056153,48.594618634044366L81.40742395019532,47.80274179793477L82.00600794982911,47.62218300160268L82.6045919494629,48.102976334036725L83.20317594909669,46.329499197463576L83.80175994873048,48.800193577570525L84.40034394836425,48.51522137471778L84.99892794799804,45.98771161120487L85.59751194763183,48.00598941536501L86.19609594726562,48.03869887739447L86.79467994689941,45.701798112810906L87.3932639465332,46.36161679052833L87.99184794616698,47.052075302492455L88.59043194580077,46.58265449410396L89.18901594543456,48.36295514510445L89.78759994506835,50.903963061722024L90.38618394470214,49.48291575987503L90.98476794433593,48.041158768533506L91.58335194396973,50.416317930445814L92.18193594360352,48.30663276554233L92.78051994323731,45.86255844569962L93.3791039428711,42.628728023094084L93.97768794250489,48.641687009199416L94.57627194213867,46.063590991893875L95.17485594177246,44.51673338151056L95.77343994140625,44.47231473084753L96.37202394104004,44.15110223555007L96.97060794067383,47.49315540042244L97.56919194030762,46.847302552861976L98.16777593994141,47.34348675989264L98.7663599395752,50.29228203059493L99.36494393920898,49.410474446532405L99.96352793884277,52.41616755792879L100.56211193847656,50.390238457599054L101.16069593811036,48.880113692067596L101.75927993774415,48.56317344341599L102.35786393737794,48.9621379044584L102.95644793701172,49.201516581083794L103.5550319366455,52.29079283865961L104.1536159362793,52.37696976228817L104.75219993591308,53.31237183203224L105.35078393554687,52.695352853195075L105.94936793518066,50.85231694009248L106.54795193481445,49.74649539223094L107.14653593444824,54.3851719564818L107.74511993408203,52.749898317197534L108.34370393371582,52.06330143896058L108.9422879333496,51.651343312018426L109.54087193298339,51.10960113051951L110.13945593261718,51.6682547374041L110.73803993225097,52.29801120665152L111.33662393188476,49.7302160365994L111.93520793151855,49.07323485013508L112.53379193115235,50.15187066405677L113.13237593078614,49.32622762660952L113.73095993041993,46.76888266767361L114.32954393005372,51.714908406180456L114.9281279296875,54.09339523905126L115.5267119293213,54.93135572832341L116.12529592895508,52.193918665169505L116.72387992858887,52.3188452581941L117.32246392822266,52.099236908892195L117.92104792785645,48.43268823704318L118.51963192749024,45.0545018134672L119.11821592712403,43.91127987445455L119.71679992675782,45.287305847514546L120.3153839263916,46.112921431350514L120.91396792602539,48.37568261278605L121.51255192565918,46.493122964713166L122.11113592529296,48.89836783792032L122.70971992492674,50.04695045672794L123.30830392456053,51.91436024869611L123.90688792419434,53.329370428993684L124.50547192382813,50.64359287490437L125.10405592346191,49.032126342450795L125.7026399230957,48.65438103364593L126.30122392272949,49.016862458596336L126.89980792236328,48.05608809266596L127.49839192199707,46.89049486287439L128.09697592163084,46.485706230333136L128.69555992126465,48.304786186841966L129.29414392089845,44.38862597267911L129.89272792053222,45.57371350644928L130.49131192016603,45.401070111144406L131.0898959197998,44.11922085306088L131.6884799194336,43.055549993311104L132.28706391906738,43.30104339302821L132.88564791870118,44.33203534842542L133.48423191833496,45.2451918265634L134.08281591796876,44.909389797879214L134.68139991760253,45.00247588600237L135.27998391723634,43.58550301307599L135.8785679168701,45.38640703602107L136.4771519165039,47.35063936492108L137.0757359161377,46.76179293156113L137.6743199157715,46.11391776621153L138.2729039154053,46.903455887902396L138.87148791503907,48.85000328671717L139.47007191467287,46.77771536907184L140.06865591430665,45.8289039233843L140.66723991394042,47.027008887105694L141.26582391357422,48.62956778090552L141.864407913208,50.18023472763571L142.4629919128418,48.16498284385628L143.06157591247558,48.13409493448924L143.66015991210938,48.70469079910231L144.25874391174315,49.341609622769795L144.85732791137696,47.661807780936726L145.45591191101073,46.948493981170515L146.05449591064453,47.10963431154414L146.6530799102783,48.67914303556856L147.2516639099121,49.62084826998321L147.85024790954589,46.945655053697834L148.4488319091797,46.22423503949352L149.04741590881346,47.264207556771225L149.64599990844727,46.12079923600393L150.24458390808107,47.791274684910775L150.84316790771484,50.26638748027216L151.44175190734865,47.9221071901045L152.04033590698242,47.98836954223816L152.63891990661622,50.09008008955193L153.23750390625,49.87828189213995L153.8360879058838,48.86750705812577L154.43467190551758,50.61756259908452L155.03325590515138,50.48933270275914L155.63183990478515,49.23413754449729L156.23042390441896,47.302757228639535L156.82900790405273,44.08197590309132L157.42759190368653,43.32776432822902L158.0261759033203,42.87523738331166L158.6247599029541,42.014592606127906L159.22334390258789,43.8547261811849L159.8219279022217,43.78054910575247L160.4205119018555,44.32517147072633L161.01909590148927,45.24107349994398L161.61767990112307,46.96887793837516L162.21626390075684,46.53273607563358L162.81484790039065,45.092787737088L163.41343190002442,45.4070819548613L164.01201589965822,47.068483011325554L164.610599899292,47.18162772963714L165.2091838989258,46.07125133972346L165.80776789855958,45.11046420087561L166.40635189819338,46.595945053600474L167.00493589782715,48.370929480802374L167.60351989746096,49.43592013712352L168.20210389709473,49.78034722558253L168.8006878967285,47.63048303729073L169.39927189636228,47.8133950505499L169.99785589599608,47.62857495317172L170.59643989562986,46.928554284511534L171.19502389526366,47.68679910378202L171.79360789489743,47.552617385111034L172.39219189453124,43.93732469164058L172.99077589416504,42.94641229645893L173.58935989379881,43.23556077491688L174.18794389343262,42.23078664109104L174.7865278930664,41.03879355056225L175.3851118927002,40.6181650015786L175.98369589233397,40.95491648242174L176.58227989196777,42.92435920206157L177.18086389160155,42.338633002711504L177.77944789123535,40.5143727573012L178.37803189086912,41.18720244075496L178.97661589050293,44.2419879975281L179.5751998901367,44.30746750045802L180.1737838897705,43.1684979817494L180.77236788940428,42.77967757542385L181.37095188903808,43.43008124719549L181.96953588867186,42.34749892445819L182.56811988830566,42.87621275171645L183.16670388793946,43.193441048071435L183.76528788757324,45.151169857018346L184.36387188720704,44.263848005918874L184.96245588684081,45.7934140317268L185.56103988647462,46.71115364721152L186.1596238861084,45.19983828003481L186.7582078857422,45.47131228062938L187.35679188537597,46.22332529121945L187.95537588500977,44.61257396110588L188.55395988464355,43.3515618581381L189.15254388427735,42.889515901257084L189.75112788391112,42.90685563246214L190.34971188354493,43.80095538675212L190.9482958831787,43.453719323759174L191.5468798828125,44.423640906863994L192.1454638824463,43.238202025592955L192.74404788208008,43.705195917296976L193.34263188171388,42.218006421619435L193.94121588134766,41.03112541887924L194.53979988098146,40.02442951190153L195.13838388061524,40.89323649351513L195.73696788024904,43.18191251361722L196.33555187988281,42.78772629454454L196.93413587951662,40.78382873240102L197.5327198791504,42.23257194138179L198.1313038787842,43.10181786677026L198.72988787841797,45.09619594823761L199.32847187805177,45.11455957621743L199.92705587768555,45.1255777530053L200.52563987731935,44.83762135374437L201.12422387695312,44.66484751418781L201.72280787658693,45.44487912602082L202.32139187622073,43.85094495708705L202.9199758758545,40.83262531925919L203.5185598754883,39.610768147229834L204.11714387512208,40.055911064478806L204.71572787475588,38.85017228902791L205.31431187438966,41.07237807535793L205.91289587402343,42.99483615782327L206.5114798736572,42.67548048106818L207.110063873291,45.72408343194931L207.7086478729248,44.01846754064417L208.3072318725586,44.17335522632766L208.90581587219236,43.97172653283812L209.50439987182617,44.439877926977715L210.10298387145994,42.95337693232756L210.70156787109374,43.828868166671384L211.30015187072752,43.47046699171071L211.89873587036132,42.66629767650099L212.4973198699951,43.65662061317545L213.0959038696289,44.25081437518011L213.69448786926267,44.90189793771657L214.29307186889648,45.881676685471746L214.89165586853028,44.996719408324594L215.49023986816405,42.99292051623601L216.08882386779786,44.44172292724977L216.68740786743163,45.311004373858026L217.28599186706543,45.24344463158968L217.8845758666992,43.730084260428384L218.483159866333,43.411196647964886L219.08174386596679,43.80899269072012L219.6803278656006,42.86941309590665L220.27891186523436,43.18936125458555L220.87749586486817,40.43567509775832L221.47607986450194,39.9617266245626L222.07466386413574,40.26648615087845L222.67324786376952,41.922166392468284L223.27183186340332,41.73731731695551L223.8704158630371,41.03727926141457L224.4689998626709,40.61725642809L225.0675838623047,39.48154681252828L225.66616786193848,40.86207417922486L226.26475186157228,41.39582329390916L226.86333586120605,42.89433598362032L227.46191986083986,43.204314987213735L228.06050386047363,43.97943099960307L228.65908786010743,43.56080469146971L229.2576718597412,43.60419621192338L229.856255859375,42.15740659839528L230.45483985900879,44.23498188187901L231.0534238586426,41.357614779468065L231.65200785827636,41.98771495938871L232.25059185791017,42.66034237267476L232.84917585754394,43.358480125546066L233.44775985717774,44.07193008260248L234.04634385681152,44.205432751502684L234.64492785644532,43.99097304794316L235.24351185607912,43.56772992047374L235.8420958557129,43.902912654225446L236.4406798553467,42.04206915844287L237.03926385498048,40.630995755639674L237.63784785461428,40.96261493485838L238.23643185424805,39.39419461125567L238.83501585388186,39.92596694289432L239.43359985351563,39.950469036977836L240.03218385314943,39.37603568276066L240.6307678527832,38.7368143653307L241.229351852417,41.00436332113961L241.82793585205079,40.89206816882469L242.4265198516846,42.002954298336334L243.02510385131836,42.66948597604335L243.62368785095214,42.18570906710056L244.2222718505859,43.073700142201574L244.82085585021971,42.72279887169515L245.4194398498535,41.33400088892469L246.0180238494873,41.67897931972905L246.61660784912107,43.65335820934561L247.21519184875487,44.24885693288218L247.81377584838867,44.01702755677084L248.41235984802245,43.877929931104035L249.01094384765625,43.794471355703934L249.60952784729002,43.155261599796575L250.20811184692383,43.949998967152794L250.8066958465576,44.426841387566526L251.4052798461914,42.94555500868083L252.00386384582518,42.94047909691636L252.60244784545898,42.64286624452404L253.20103184509276,41.28604131262202L253.79961584472656,41.944770879281094L254.39819984436033,40.867184093476254L254.99678384399414,42.57715246336059L255.5953678436279,42.71943756972422L256.1939518432617,43.09937593887605L256.7925358428955,42.149075739466554L257.3911198425293,42.75715884072147L257.98970384216307,42.23831278590745L258.5882878417969,41.927005153019024L259.1868718414307,42.623916488852956L259.78545584106445,41.86380006945271L260.3840398406982,42.291426133379474L260.98262384033205,41.664305856168596L261.5812078399658,40.10977646937545L262.1797918395996,40.06075475286653L262.7783758392334,39.736774417627515L263.3769598388672,38.95325760625079L263.975543838501,40.545100655458356L264.57412783813476,43.26759831611682L265.17271183776853,42.83913777604431L265.77129583740236,43.76032467290145L266.36987983703614,42.25108367498211L266.9684638366699,41.050971770896865L267.56704783630374,42.687425069812946L268.1656318359375,42.78560113359566L268.7642158355713,42.54993946653161" fill="none"></path></g></g></g></g><g opacity="0.2"><g><g><g><path style="fill: none;" stroke="rgb(0, 119, 187)" stroke-width="2px" d="M29.929199981689454,120.2562128381241L30.52778398132324,120.2562128381241L31.12636798095703,120.2562128381241L31.72495198059082,112.89208270858023L32.32353598022461,112.89208270858023L32.9221199798584,115.10132249749765L33.52070397949219,112.89208270858023L34.11928797912598,121.72903811397862L34.71787197875977,112.1556719457886L35.316455978393556,107.00078160516213L35.915039978027345,102.5823020273273L36.51362397766113,111.41926118299695L37.11220797729492,101.84589126453567L37.71079197692871,94.4817611349918L38.3093759765625,90.06328905769946L38.90795997619629,104.05513105345308L39.50654397583008,102.5823020273273L40.10512797546387,108.4736106312879L40.70371197509766,89.32687079436535L41.30229597473145,97.42741168670084L41.90087997436524,84.17198795428138L42.49946397399902,95.95459016111758L43.09804797363281,87.85404926878206L43.6966319732666,70.18013845798528L44.29521597290039,87.85404926878206L44.893799972534175,86.3812202426563L45.492383972167964,83.43556969094723L46.09096797180176,81.96274816536396L46.68955197143555,74.59861803582008L47.28813597106934,77.54426858752915L47.886719970703126,74.59861803582008L48.485303970336915,71.65296748411104L49.083887969970704,64.28883735456718L49.68247196960449,78.28067935032078L50.28105596923828,67.23448790627621L50.87963996887208,73.86220727302845L51.47822396850586,86.3812202426563L52.07680796813965,65.76166638069294L52.675391967773436,69.44372769519364L53.273975967407225,59.87036527727486L53.87255996704101,73.86220727302845L54.4711439666748,59.13394701394071L55.06972796630859,63.55242659177553L55.66831196594238,70.18013845798528L56.266895965576175,62.07959756564976L56.865479965209964,67.97090616961036L57.46406396484375,53.242645910522626L58.06264796447754,53.97905667331426L58.66123196411133,57.66112548835743L59.25981596374512,59.87036527727486L59.85839996337891,59.87036527727486L60.456983963012696,62.81601582898389L61.05556796264648,52.50623514773096L61.65415196228027,62.07959756564976L62.25273596191406,51.76982438493934L62.85131996154785,48.82416633268781L63.44990396118164,58.39753625114909L64.04848796081542,51.033406121605196L64.64707196044922,55.45188569944003L65.24565596008301,53.97905667331426L65.8442399597168,56.18829646223166L66.44282395935059,56.9247072250233L67.04140795898438,53.242645910522626L67.63999195861817,48.087763070438655L68.23857595825196,54.71547493664839L68.83715995788575,47.35134480710454L69.43574395751953,56.18829646223166L70.03432795715332,48.82416633268781L70.63291195678711,52.50623514773096L71.2314959564209,47.35134480710454L71.83007995605469,48.087763070438655L72.42866395568848,50.296987858271066L73.02724795532227,59.13394701394071L73.62583195495606,53.97905667331426L74.22441595458984,52.50623514773096L74.82299995422363,51.033406121605196L75.42158395385742,55.45188569944003L76.02016795349121,49.560584596021926L76.618751953125,48.087763070438655L77.21733595275879,40.723625440352265L77.81591995239258,48.82416633268781L78.41450395202637,51.76982438493934L79.01308795166015,51.76982438493934L79.61167195129394,48.82416633268781L80.21025595092775,50.296987858271066L80.80883995056153,46.614926543770395L81.40742395019532,46.614926543770395L82.00600794982911,47.35134480710454L82.6045919494629,48.82416633268781L83.20317594909669,43.669283492603824L83.80175994873048,52.50623514773096L84.40034394836425,48.087763070438655L84.99892794799804,42.196446965935564L85.59751194763183,51.033406121605196L86.19609594726562,48.087763070438655L86.79467994689941,42.196446965935564L87.3932639465332,47.35134480710454L87.99184794616698,48.087763070438655L88.59043194580077,45.87852328152124L89.18901594543456,51.033406121605196L89.78759994506835,54.71547493664839L90.38618394470214,47.35134480710454L90.98476794433593,45.87852328152124L91.58335194396973,53.97905667331426L92.18193594360352,45.142105018187095L92.78051994323731,42.196446965935564L93.3791039428711,37.77798238918575L93.97768794250489,57.66112548835743L94.57627194213867,42.196446965935564L95.17485594177246,42.196446965935564L95.77343994140625,44.40568675485298L96.37202394104004,43.669283492603824L96.97060794067383,52.50623514773096L97.56919194030762,45.87852328152124L98.16777593994141,48.087763070438655L98.7663599395752,54.71547493664839L99.36494393920898,48.087763070438655L99.96352793884277,56.9247072250233L100.56211193847656,47.35134480710454L101.16069593811036,46.614926543770395L101.75927993774415,48.087763070438655L102.35786393737794,49.560584596021926L102.95644793701172,49.560584596021926L103.5550319366455,56.9247072250233L104.1536159362793,52.50623514773096L104.75219993591308,54.71547493664839L105.35078393554687,51.76982438493934L105.94936793518066,48.087763070438655L106.54795193481445,48.087763070438655L107.14653593444824,61.34318680285813L107.74511993408203,50.296987858271066L108.34370393371582,51.033406121605196L108.9422879333496,51.033406121605196L109.54087193298339,50.296987858271066L110.13945593261718,52.50623514773096L110.73803993225097,53.242645910522626L111.33662393188476,45.87852328152124L111.93520793151855,48.087763070438655L112.53379193115235,51.76982438493934L113.13237593078614,48.087763070438655L113.73095993041993,42.93286522926971L114.32954393005372,59.13394701394071L114.9281279296875,57.66112548835743L115.5267119293213,56.18829646223166L116.12529592895508,48.087763070438655L116.72387992858887,52.50623514773096L117.32246392822266,51.76982438493934L117.92104792785645,42.93286522926971L118.51963192749024,39.98722217810314L119.11821592712403,42.196446965935564L119.71679992675782,47.35134480710454L120.3153839263916,47.35134480710454L120.91396792602539,51.76982438493934L121.51255192565918,43.669283492603824L122.11113592529296,52.50623514773096L122.70971992492674,51.76982438493934L123.30830392456053,54.71547493664839L123.90688792419434,55.45188569944003L124.50547192382813,46.614926543770395L125.10405592346191,46.614926543770395L125.7026399230957,48.087763070438655L126.30122392272949,49.560584596021926L126.89980792236328,46.614926543770395L127.49839192199707,45.142105018187095L128.09697592163084,45.87852328152124L128.69555992126465,51.033406121605196L129.29414392089845,38.51438565143488L129.89272792053222,47.35134480710454L130.49131192016603,45.142105018187095L131.0898959197998,42.196446965935564L131.6884799194336,41.46004370368641L132.28706391906738,43.669283492603824L132.88564791870118,45.87852328152124L133.48423191833496,46.614926543770395L134.08281591796876,44.40568675485298L134.68139991760253,45.142105018187095L135.27998391723634,41.46004370368641L135.8785679168701,48.087763070438655L136.4771519165039,50.296987858271066L137.0757359161377,45.87852328152124L137.6743199157715,45.142105018187095L138.2729039154053,48.087763070438655L138.87148791503907,51.76982438493934L139.47007191467287,43.669283492603824L140.06865591430665,44.40568675485298L140.66723991394042,48.82416633268781L141.26582391357422,51.033406121605196L141.864407913208,52.50623514773096L142.4629919128418,45.142105018187095L143.06157591247558,48.087763070438655L143.66015991210938,49.560584596021926L144.25874391174315,50.296987858271066L144.85732791137696,45.142105018187095L145.45591191101073,45.87852328152124L146.05449591064453,47.35134480710454L146.6530799102783,51.033406121605196L147.2516639099121,51.033406121605196L147.85024790954589,42.93286522926971L148.4488319091797,45.142105018187095L149.04741590881346,48.82416633268781L149.64599990844727,44.40568675485298L150.24458390808107,50.296987858271066L150.84316790771484,53.97905667331426L151.44175190734865,44.40568675485298L152.04033590698242,48.087763070438655L152.63891990661622,53.242645910522626L153.23750390625,49.560584596021926L153.8360879058838,47.35134480710454L154.43467190551758,53.242645910522626L155.03325590515138,50.296987858271066L155.63183990478515,47.35134480710454L156.23042390441896,44.40568675485298L156.82900790405273,39.250803914768994L157.42759190368653,42.196446965935564L158.0261759033203,42.196446965935564L158.6247599029541,40.723625440352265L159.22334390258789,46.614926543770395L159.8219279022217,43.669283492603824L160.4205119018555,45.142105018187095L161.01909590148927,46.614926543770395L161.61767990112307,49.560584596021926L162.21626390075684,45.87852328152124L162.81484790039065,42.93286522926971L163.41343190002442,45.87852328152124L164.01201589965822,49.560584596021926L164.610599899292,47.35134480710454L165.2091838989258,44.40568675485298L165.80776789855958,43.669283492603824L166.40635189819338,48.82416633268781L167.00493589782715,51.033406121605196L167.60351989746096,51.033406121605196L168.20210389709473,50.296987858271066L168.8006878967285,44.40568675485298L169.39927189636228,48.087763070438655L169.99785589599608,47.35134480710454L170.59643989562986,45.87852328152124L171.19502389526366,48.82416633268781L171.79360789489743,47.35134480710454L172.39219189453124,38.51438565143488L172.99077589416504,41.46004370368641L173.58935989379881,43.669283492603824L174.18794389343262,40.723625440352265L174.7865278930664,39.250803914768994L175.3851118927002,39.98722217810314L175.98369589233397,41.46004370368641L176.58227989196777,45.87852328152124L177.18086389160155,41.46004370368641L177.77944789123535,37.77798238918575L178.37803189086912,42.196446965935564L178.97661589050293,48.82416633268781L179.5751998901367,44.40568675485298L180.1737838897705,41.46004370368641L180.77236788940428,42.196446965935564L181.37095188903808,44.40568675485298L181.96953588867186,40.723625440352265L182.56811988830566,43.669283492603824L183.16670388793946,43.669283492603824L183.76528788757324,48.087763070438655L184.36387188720704,42.93286522926971L184.96245588684081,48.087763070438655L185.56103988647462,48.087763070438655L186.1596238861084,42.93286522926971L186.7582078857422,45.87852328152124L187.35679188537597,47.35134480710454L187.95537588500977,42.196446965935564L188.55395988464355,41.46004370368641L189.15254388427735,42.196446965935564L189.75112788391112,42.93286522926971L190.34971188354493,45.142105018187095L190.9482958831787,42.93286522926971L191.5468798828125,45.87852328152124L192.1454638824463,41.46004370368641L192.74404788208008,44.40568675485298L193.34263188171388,39.98722217810314L193.94121588134766,39.250803914768994L194.53979988098146,38.51438565143488L195.13838388061524,42.196446965935564L195.73696788024904,46.614926543770395L196.33555187988281,42.196446965935564L196.93413587951662,37.77798238918575L197.5327198791504,44.40568675485298L198.1313038787842,44.40568675485298L198.72988787841797,48.087763070438655L199.32847187805177,45.142105018187095L199.92705587768555,45.142105018187095L200.52563987731935,44.40568675485298L201.12422387695312,44.40568675485298L201.72280787658693,46.614926543770395L202.32139187622073,41.46004370368641L202.9199758758545,36.30514586251746L203.5185598754883,37.77798238918575L204.11714387512208,40.723625440352265L204.71572787475588,37.04156412585161L205.31431187438966,44.40568675485298L205.91289587402343,45.87852328152124L206.5114798736572,42.196446965935564L207.110063873291,50.296987858271066L207.7086478729248,41.46004370368641L208.3072318725586,44.40568675485298L208.90581587219236,43.669283492603824L209.50439987182617,45.142105018187095L210.10298387145994,40.723625440352265L210.70156787109374,45.142105018187095L211.30015187072752,42.93286522926971L211.89873587036132,41.46004370368641L212.4973198699951,45.142105018187095L213.0959038696289,45.142105018187095L213.69448786926267,45.87852328152124L214.29307186889648,47.35134480710454L214.89165586853028,43.669283492603824L215.49023986816405,39.98722217810314L216.08882386779786,46.614926543770395L216.68740786743163,46.614926543770395L217.28599186706543,45.142105018187095L217.8845758666992,41.46004370368641L218.483159866333,42.93286522926971L219.08174386596679,44.40568675485298L219.6803278656006,41.46004370368641L220.27891186523436,43.669283492603824L220.87749586486817,36.30514586251746L221.47607986450194,39.250803914768994L222.07466386413574,40.723625440352265L222.67324786376952,44.40568675485298L223.27183186340332,41.46004370368641L223.8704158630371,39.98722217810314L224.4689998626709,39.98722217810314L225.0675838623047,37.77798238918575L225.66616786193848,42.93286522926971L226.26475186157228,42.196446965935564L226.86333586120605,45.142105018187095L227.46191986083986,43.669283492603824L228.06050386047363,45.142105018187095L228.65908786010743,42.93286522926971L229.2576718597412,43.669283492603824L229.856255859375,39.98722217810314L230.45483985900879,47.35134480710454L231.0534238586426,37.04156412585161L231.65200785827636,42.93286522926971L232.25059185791017,43.669283492603824L232.84917585754394,44.40568675485298L233.44775985717774,45.142105018187095L234.04634385681152,44.40568675485298L234.64492785644532,43.669283492603824L235.24351185607912,42.93286522926971L235.8420958557129,44.40568675485298L236.4406798553467,39.250803914768994L237.03926385498048,38.51438565143488L237.63784785461428,41.46004370368641L238.23643185424805,37.04156412585161L238.83501585388186,40.723625440352265L239.43359985351563,39.98722217810314L240.03218385314943,38.51438565143488L240.6307678527832,37.77798238918575L241.229351852417,44.40568675485298L241.82793585205079,40.723625440352265L242.4265198516846,43.669283492603824L243.02510385131836,43.669283492603824L243.62368785095214,41.46004370368641L244.2222718505859,44.40568675485298L244.82085585021971,42.196446965935564L245.4194398498535,39.250803914768994L246.0180238494873,42.196446965935564L246.61660784912107,46.614926543770395L247.21519184875487,45.142105018187095L247.81377584838867,43.669283492603824L248.41235984802245,43.669283492603824L249.01094384765625,43.669283492603824L249.60952784729002,42.196446965935564L250.20811184692383,45.142105018187095L250.8066958465576,45.142105018187095L251.4052798461914,40.723625440352265L252.00386384582518,42.93286522926971L252.60244784545898,42.196446965935564L253.20103184509276,39.250803914768994L253.79961584472656,42.93286522926971L254.39819984436033,39.250803914768994L254.99678384399414,45.142105018187095L255.5953678436279,42.93286522926971L256.1939518432617,43.669283492603824L256.7925358428955,40.723625440352265L257.3911198425293,43.669283492603824L257.98970384216307,41.46004370368641L258.5882878417969,41.46004370368641L259.1868718414307,43.669283492603824L259.78545584106445,40.723625440352265L260.3840398406982,42.93286522926971L260.98262384033205,40.723625440352265L261.5812078399658,37.77798238918575L262.1797918395996,39.98722217810314L262.7783758392334,39.250803914768994L263.3769598388672,37.77798238918575L263.975543838501,42.93286522926971L264.57412783813476,47.35134480710454L265.17271183776853,42.196446965935564L265.77129583740236,45.142105018187095L266.36987983703614,39.98722217810314L266.9684638366699,39.250803914768994L267.56704783630374,45.142105018187095L268.1656318359375,42.93286522926971L268.7642158355713,42.196446965935564" fill="none"></path></g></g></g></g></g></g><g transform="translate(30, 176)" clip-path="url(#clip_1)"><clipPath id="clip_1"><rect width="299" height="23"></rect></clipPath><g><g><line x1="0" y1="0" x2="0" y2="5" style="visibility: inherit;" fill="rgb(0, 0, 0)" stroke="rgb(204, 204, 204)" stroke-width="1px"></line><line x1="29.929199981689454" y1="0" x2="29.929199981689454" y2="5" style="visibility: inherit;" fill="rgb(0, 0, 0)" stroke="rgb(204, 204, 204)" stroke-width="1px"></line><line x1="59.85839996337891" y1="0" x2="59.85839996337891" y2="5" style="visibility: inherit;" fill="rgb(0, 0, 0)" stroke="rgb(204, 204, 204)" stroke-width="1px"></line><line x1="89.78759994506835" y1="0" x2="89.78759994506835" y2="5" style="visibility: inherit;" fill="rgb(0, 0, 0)" stroke="rgb(204, 204, 204)" stroke-width="1px"></line><line x1="119.71679992675782" y1="0" x2="119.71679992675782" y2="5" style="visibility: inherit;" fill="rgb(0, 0, 0)" stroke="rgb(204, 204, 204)" stroke-width="1px"></line><line x1="149.64599990844727" y1="0" x2="149.64599990844727" y2="5" style="visibility: inherit;" fill="rgb(0, 0, 0)" stroke="rgb(204, 204, 204)" stroke-width="1px"></line><line x1="179.5751998901367" y1="0" x2="179.5751998901367" y2="5" style="visibility: inherit;" fill="rgb(0, 0, 0)" stroke="rgb(204, 204, 204)" stroke-width="1px"></line><line x1="209.50439987182617" y1="0" x2="209.50439987182617" y2="5" style="visibility: inherit;" fill="rgb(0, 0, 0)" stroke="rgb(204, 204, 204)" stroke-width="1px"></line><line x1="239.43359985351563" y1="0" x2="239.43359985351563" y2="5" style="visibility: inherit;" fill="rgb(0, 0, 0)" stroke="rgb(204, 204, 204)" stroke-width="1px"></line><line x1="269.36279983520507" y1="0" x2="269.36279983520507" y2="5" style="visibility: inherit;" fill="rgb(0, 0, 0)" stroke="rgb(204, 204, 204)" stroke-width="1px"></line><line x1="299.29199981689453" y1="0" x2="299.29199981689453" y2="5" style="visibility: inherit;" fill="rgb(0, 0, 0)" stroke="rgb(204, 204, 204)" stroke-width="1px"></line></g><g transform="translate(0, 8)"><text style="text-anchor: middle; visibility: hidden; font-family: &quot;Helvetica Neue&quot;, sans-serif; font-size: 12px; font-weight: 200;" x="0" y="0" dx="0em" dy="0.95em" fill="rgb(33, 33, 33)" stroke="none" stroke-width="1px">-50</text><text style="text-anchor: middle; visibility: inherit; font-family: &quot;Helvetica Neue&quot;, sans-serif; font-size: 12px; font-weight: 200;" x="29.929199981689454" y="0" dx="0em" dy="0.95em" fill="rgb(33, 33, 33)" stroke="none" stroke-width="1px">0</text><text style="text-anchor: middle; visibility: inherit; font-family: &quot;Helvetica Neue&quot;, sans-serif; font-size: 12px; font-weight: 200;" x="59.85839996337891" y="0" dx="0em" dy="0.95em" fill="rgb(33, 33, 33)" stroke="none" stroke-width="1px">50</text><text style="text-anchor: middle; visibility: inherit; font-family: &quot;Helvetica Neue&quot;, sans-serif; font-size: 12px; font-weight: 200;" x="89.78759994506835" y="0" dx="0em" dy="0.95em" fill="rgb(33, 33, 33)" stroke="none" stroke-width="1px">100</text><text style="text-anchor: middle; visibility: inherit; font-family: &quot;Helvetica Neue&quot;, sans-serif; font-size: 12px; font-weight: 200;" x="119.71679992675782" y="0" dx="0em" dy="0.95em" fill="rgb(33, 33, 33)" stroke="none" stroke-width="1px">150</text><text style="text-anchor: middle; visibility: inherit; font-family: &quot;Helvetica Neue&quot;, sans-serif; font-size: 12px; font-weight: 200;" x="149.64599990844727" y="0" dx="0em" dy="0.95em" fill="rgb(33, 33, 33)" stroke="none" stroke-width="1px">200</text><text style="text-anchor: middle; visibility: inherit; font-family: &quot;Helvetica Neue&quot;, sans-serif; font-size: 12px; font-weight: 200;" x="179.5751998901367" y="0" dx="0em" dy="0.95em" fill="rgb(33, 33, 33)" stroke="none" stroke-width="1px">250</text><text style="text-anchor: middle; visibility: inherit; font-family: &quot;Helvetica Neue&quot;, sans-serif; font-size: 12px; font-weight: 200;" x="209.50439987182617" y="0" dx="0em" dy="0.95em" fill="rgb(33, 33, 33)" stroke="none" stroke-width="1px">300</text><text style="text-anchor: middle; visibility: inherit; font-family: &quot;Helvetica Neue&quot;, sans-serif; font-size: 12px; font-weight: 200;" x="239.43359985351563" y="0" dx="0em" dy="0.95em" fill="rgb(33, 33, 33)" stroke="none" stroke-width="1px">350</text><text style="text-anchor: middle; visibility: inherit; font-family: &quot;Helvetica Neue&quot;, sans-serif; font-size: 12px; font-weight: 200;" x="269.36279983520507" y="0" dx="0em" dy="0.95em" fill="rgb(33, 33, 33)" stroke="none" stroke-width="1px">400</text><text style="text-anchor: middle; visibility: hidden; font-family: &quot;Helvetica Neue&quot;, sans-serif; font-size: 12px; font-weight: 200;" x="299.29199981689453" y="0" dx="0em" dy="0.95em" fill="rgb(33, 33, 33)" stroke="none" stroke-width="1px">450</text></g><line x1="0" y1="0" x2="299.29199981689453" y2="0" fill="rgb(0, 0, 0)" stroke="rgb(204, 204, 204)" stroke-width="1px"></line></g></g></g></g></svg>